<?xml version="1.0" standalone="no"?>
<!DOCTYPE svg PUBLIC "-//W3C//DTD SVG 1.1//EN" "http://www.w3.org/Graphics/SVG/1.1/DTD/svg11.dtd" >
<svg xmlns="http://www.w3.org/2000/svg" xmlns:xlink="http://www.w3.org/1999/xlink" version="1.1">
<metadata>
Created by FontForge 20170731 at Sat Jan 23 16:04:34 2021
 By Aleksey,,,
Pangram Pangram Foundry
</metadata>
<defs>
<font id="NeueMontreal-LightItalic" horiz-adv-x="0" >
  <font-face 
    font-family="Neue Montreal Light"
    font-weight="300"
    font-style="italic"
    font-stretch="normal"
    units-per-em="2048"
    panose-1="0 0 4 0 0 0 0 0 0 0"
    ascent="1581"
    descent="-467"
    x-height="1053"
    cap-height="1464"
    bbox="-1217 -492 2247 1931"
    underline-thickness="102"
    underline-position="-307"
    slope="-11"
    unicode-range="U+0020-25CA"
  />
<missing-glyph horiz-adv-x="1024" 
d="M840 1581v-2048h-650v2048h650zM682 1444h-338v-68h133v-76h-135v-67h340v67h-135v76h135v68zM547 1180h-205v-213h340v69h-135v144zM477 1110v-74h-67v74h67zM682 911h-340v-67h135v-76h-135v-68h205v144h135v67zM682 788h-68v-135h-272v-69h340v204zM682 539h-205v-115
h70v47h67v-96h-204v164h-68v-232h340v232zM682 184h-340v-231h340v231zM614 117v-97h-204v97h204zM682 -94h-340v-68h143l-143 -96v-68h340v68h-209l143 96h66v68z" />
    <glyph glyph-name=".notdef" horiz-adv-x="1024" 
d="M840 1581v-2048h-650v2048h650zM682 1444h-338v-68h133v-76h-135v-67h340v67h-135v76h135v68zM547 1180h-205v-213h340v69h-135v144zM477 1110v-74h-67v74h67zM682 911h-340v-67h135v-76h-135v-68h205v144h135v67zM682 788h-68v-135h-272v-69h340v204zM682 539h-205v-115
h70v47h67v-96h-204v164h-68v-232h340v232zM682 184h-340v-231h340v231zM614 117v-97h-204v97h204zM682 -94h-340v-68h143l-143 -96v-68h340v68h-209l143 96h66v68z" />
    <glyph glyph-name=".null" 
 />
    <glyph glyph-name="nonmarkingreturn" horiz-adv-x="682" 
 />
    <glyph glyph-name="space" unicode=" " horiz-adv-x="471" 
 />
    <glyph glyph-name="exclam" unicode="!" horiz-adv-x="409" 
d="M319 1464h82l-96 -495l-135 -592h-41l94 592zM96 -8q-24 0 -39.5 16t-9.5 45t28 45.5t46 16.5t39.5 -16.5t9.5 -45.5t-28 -45t-46 -16z" />
    <glyph glyph-name="quotedbl" unicode="&#x22;" horiz-adv-x="473" 
d="M254 1464h65l-79 -411h-66zM494 1464h65l-80 -411h-65z" />
    <glyph glyph-name="numbersign" unicode="#" horiz-adv-x="1081" 
d="M1081 903h-233l-141 -379h241l-22 -57h-242l-174 -467h-66l174 467h-321l-174 -467h-66l174 467h-190l22 57h191l141 379h-202l20 58h203l166 440h65l-166 -440h322l166 440h65l-166 -440h234zM641 524l141 379h-321l-142 -379h322z" />
    <glyph glyph-name="dollar" unicode="$" horiz-adv-x="1167" 
d="M807 1401q170 -29 269.5 -136t78.5 -270h-65q12 147 -67 236t-226 115l-117 -601q221 -97 320.5 -207t78.5 -245q-26 -165 -147 -240.5t-344 -75.5q-28 0 -58 3l-28 -154h-66l31 160q-214 28 -339 156t-116 329h66q-3 -174 99.5 -287.5t299.5 -140.5l129 664q-8 3 -39 16
q-200 87 -288.5 191t-59.5 235q16 76 60 129.5t110 81.5t139 39.5t164 11.5q35 0 51 -2l27 141h66zM618 772l113 580q-16 2 -49 2q-79 0 -142 -10t-118 -33t-90 -66t-47 -104q-12 -63 3 -114t61 -95t109 -81t160 -79zM1014 301q13 114 -66.5 198t-279.5 179l-125 -641
q18 -2 55 -2q385 0 416 266z" />
    <glyph glyph-name="percent" unicode="%" horiz-adv-x="1464" 
d="M369 657q-72 0 -122.5 30t-73.5 81t-29.5 119.5t10.5 146.5q33 165 127 271t235 106q72 0 122.5 -30t73.5 -81t28.5 -119.5t-11.5 -146.5q-31 -165 -125 -271t-235 -106zM1352 1403l-1110 -1403h-72l1110 1403h72zM381 715q61 0 111 27t83 74.5t55 101t34 116.5
q14 58 12 115.5t-16 103t-53.5 73.5t-100.5 28q-62 0 -112.5 -27.5t-84.5 -75t-56 -101t-34 -116.5q-14 -58 -12 -115.5t16.5 -102.5t55 -73t102.5 -28zM1006 -23q-72 0 -122.5 30t-74 81t-29.5 119.5t11 146.5q31 165 125 271t235 106q72 0 122.5 -30t73.5 -81t29.5 -119.5
t-10.5 -146.5q-33 -165 -126 -271t-234 -106zM1016 35q61 0 111 27t83.5 74.5t55.5 101t34 116.5q14 58 11.5 115.5t-16.5 103t-53.5 73.5t-100.5 28q-62 0 -112.5 -27.5t-84 -74.5t-55 -101.5t-33.5 -116.5q-14 -58 -12 -115.5t16 -102.5t54 -73t102 -28z" />
    <glyph glyph-name="ampersand" unicode="&#x26;" horiz-adv-x="1136" 
d="M1028 0h-76l-118 209q-222 -232 -482 -232q-183 0 -272.5 110.5t-54.5 293.5q14 69 48 131.5t75.5 109t99.5 91t106.5 73.5t108.5 60q-23 38 -33 55t-28 50t-26 52t-18.5 48.5t-13 52.5t-2.5 51t6 55q21 111 112 194t236 83q134 0 199 -83.5t43 -193.5
q-24 -119 -116.5 -208t-268.5 -179l291 -504q102 141 147 312h66q-53 -198 -183 -365zM414 1210q-11 -53 3.5 -113t31.5 -93.5t60 -106.5q3 -5 4.5 -8t4 -7t4.5 -8l2 3l64 32t61.5 34t62 40t53.5 43.5t49 52.5t34.5 60t23.5 71q18 91 -32 155.5t-154 64.5q-115 0 -185 -64
t-87 -156zM362 35q235 0 443 225l-299 514q-6 9 -12 21q-60 -30 -103.5 -54.5t-98 -64t-91 -79.5t-68 -96.5t-43.5 -119.5q-32 -162 43.5 -254t228.5 -92z" />
    <glyph glyph-name="quotesingle" unicode="'" horiz-adv-x="233" 
d="M262 1464h66l-80 -411h-66z" />
    <glyph glyph-name="parenleft" unicode="(" horiz-adv-x="487" 
d="M592 1546h65q-163 -206 -270.5 -418.5t-159.5 -478.5q-27 -135 -32.5 -258.5t9.5 -234t40 -203.5t65 -193h-65q-35 83 -60.5 176t-41 205.5t-11.5 243.5t31 264q51 265 167 491.5t263 405.5z" />
    <glyph glyph-name="parenright" unicode=")" horiz-adv-x="497" 
d="M307 1546q36 -84 61 -176t40.5 -204.5t11.5 -245.5t-31 -271q-51 -257 -168 -484.5t-262 -404.5h-65q163 205 270.5 416.5t159.5 472.5q27 138 32.5 263.5t-9.5 236t-40 204t-65 193.5h65z" />
    <glyph glyph-name="asterisk" unicode="*" horiz-adv-x="696" 
d="M750 1245l-238 -82l106 -196l-47 -29l-108 203l-184 -203l-35 29l178 196l-205 82l27 45l205 -80l49 254h55l-49 -254l239 80z" />
    <glyph glyph-name="plus" unicode="+" horiz-adv-x="1058" 
d="M520 639h-395l10 57l395 -2l78 416h66l-82 -416l395 2l-10 -57h-395l-80 -416h-66z" />
    <glyph glyph-name="comma" unicode="," horiz-adv-x="249" 
d="M10 -8q-29 -9 -45.5 6.5t-9.5 52.5q6 30 26 47t46 17q64 0 41 -111q-3 -22 -10.5 -46.5t-24 -59.5t-47 -63t-70.5 -40l10 58q69 30 84 139z" />
    <glyph glyph-name="hyphen" unicode="-" horiz-adv-x="677" 
d="M68 551h548l-10 -57h-549z" />
    <glyph glyph-name="period" unicode="." horiz-adv-x="284" 
d="M41 -8q-24 0 -39.5 16t-9.5 45t28 45.5t46 16.5t39.5 -16.5t9.5 -45.5t-28 -45t-46 -16z" />
    <glyph glyph-name="slash" unicode="/" horiz-adv-x="731" 
d="M905 1464l-880 -1464h-68l883 1464h65z" />
    <glyph glyph-name="zero" unicode="0" horiz-adv-x="1161" 
d="M475 -23q-101 0 -178 37.5t-123 104t-69 158.5t-21.5 200t25.5 230q30 153 86.5 284t137 231.5t190 158t235.5 57.5q101 0 177.5 -37.5t122.5 -104t69 -159t21 -200.5t-26 -230t-64 -230t-98 -200t-130 -158.5t-163 -104t-192 -37.5zM485 35q110 0 205.5 52t166.5 144.5
t122 213t78 262.5q30 140 24.5 262.5t-39 214t-109 144t-185.5 52.5t-206 -52.5t-167.5 -144.5t-122.5 -213t-78 -263q-22 -113 -24.5 -213t16.5 -184.5t58.5 -145.5t106 -95t154.5 -34z" />
    <glyph glyph-name="one" unicode="1" horiz-adv-x="577" 
d="M502 1415h65l-274 -1415h-66l232 1194q-98 -143 -336 -143l10 57q152 0 246.5 79.5t122.5 227.5z" />
    <glyph glyph-name="two" unicode="2" horiz-adv-x="1038" 
d="M250 981h-66q17 89 60.5 169.5t109 145.5t159 103.5t200.5 38.5q184 0 286.5 -115.5t67.5 -294.5q-16 -82 -56 -149.5t-95 -115.5t-122.5 -89.5t-141.5 -77t-148.5 -71t-146 -80t-132 -96t-109.5 -125.5t-75 -163v-4h836l-11 -57h-907q38 198 170.5 339.5t347.5 244.5
q15 7 44 21q69 33 103 49.5t90.5 47t86 52t69 55.5t61 66t41.5 74.5t29 90.5q27 141 -51.5 240.5t-236.5 99.5q-174 0 -301.5 -115.5t-161.5 -283.5z" />
    <glyph glyph-name="three" unicode="3" horiz-adv-x="1054" 
d="M246 1012h-66q37 190 165 308t333 118q116 0 211 -50t143.5 -141.5t26.5 -202.5q-24 -122 -106 -196.5t-189 -106.5v-4q86 -27 141.5 -89.5t74 -143t-0.5 -168.5q-37 -175 -167.5 -267t-322.5 -92q-235 0 -365.5 131t-94.5 351h65q-36 -185 70 -304.5t315 -119.5
q171 0 289 80t145 221q17 87 -2.5 160t-64 119t-102.5 71t-119 25h-154l12 57h146q132 0 234.5 76t129.5 209q12 60 -2.5 117.5t-52 104.5t-106.5 76t-158 29q-95 0 -172.5 -31.5t-128 -85.5t-82 -117t-45.5 -134z" />
    <glyph glyph-name="four" unicode="4" horiz-adv-x="1081" 
d="M719 0h-66l72 373h-715l13 57l905 985h65l-190 -985h215l-12 -57h-215zM907 1311l-809 -881h639z" />
    <glyph glyph-name="five" unicode="5" horiz-adv-x="997" 
d="M598 903q134 0 222.5 -64.5t119.5 -170t6 -232.5q-41 -215 -186.5 -337t-360.5 -122q-114 0 -196.5 34.5t-125 92t-57.5 127t-2 146.5h66q-24 -157 59 -249.5t260 -92.5q84 0 158.5 22.5t140 68.5t112.5 125t67 185q19 101 3.5 178t-60 128.5t-109.5 77.5t-144 26
q-71 0 -138 -18.5t-116.5 -48.5t-84.5 -60t-58 -60h-72l299 756h662l-10 -57h-611l-237 -596v-4q161 145 393 145z" />
    <glyph glyph-name="six" unicode="6" horiz-adv-x="1091" 
d="M141 524q25 78 69 141.5t95 104t111 68.5t116.5 39.5t112.5 11.5q203 0 301.5 -126.5t61.5 -324.5q-39 -201 -189 -331t-358 -130q-237 0 -331 173.5t-32 496.5q77 394 246.5 592.5t417.5 198.5q162 0 254 -97.5t71 -263.5h-65q17 139 -58 221t-212 82
q-210 0 -361.5 -175.5t-226.5 -557.5l-23 -119v-4zM471 35q181 0 308.5 113t162.5 290q33 174 -48.5 283.5t-258.5 109.5q-56 0 -113.5 -13.5t-116.5 -45t-107.5 -78t-87 -118.5t-54.5 -160q-9 -55 -6 -109.5t27.5 -103.5t61.5 -86.5t97.5 -59.5t134.5 -22z" />
    <glyph glyph-name="seven" unicode="7" horiz-adv-x="985" 
d="M195 1415h921l-8 -49q-121 -79 -226.5 -176.5t-184.5 -195.5t-146 -208.5t-113 -210.5t-84 -207.5t-60.5 -193t-39.5 -174.5h-66q25 129 62.5 255.5t105.5 281.5t155 292.5t218 278.5t287 250v2h-832z" />
    <glyph glyph-name="eight" unicode="8" horiz-adv-x="1089" 
d="M39 393q28 139 127 234.5t244 142.5l2 4q-98 43 -147 121.5t-27 191.5q21 109 93.5 189.5t176 121t223.5 40.5q185 0 287.5 -94t71.5 -257q-22 -113 -101 -191.5t-192 -121.5l-2 -4q126 -47 188.5 -143t34.5 -234q-24 -129 -114.5 -225.5t-209 -143.5t-245.5 -47
q-94 0 -176 28t-141 79t-85 131.5t-8 177.5zM608 801q156 0 273 77.5t143 208.5q27 137 -59.5 215t-243.5 78t-274 -78t-144 -215q-26 -130 61.5 -208t243.5 -78zM459 35q114 0 217.5 42.5t179 125.5t96.5 190q31 156 -74 253t-280 97q-113 0 -217.5 -42t-180 -123
t-96.5 -185q-31 -160 74.5 -259t280.5 -99z" />
    <glyph glyph-name="nine" unicode="9" horiz-adv-x="1069" 
d="M670 1438q238 0 331.5 -173.5t30.5 -496.5q-77 -394 -246.5 -592.5t-416.5 -198.5q-162 0 -254 97t-72 264h66q-17 -139 58 -221t212 -82q210 0 361.5 175.5t226.5 557.5l22 115q-33 -95 -92 -166.5t-129.5 -111.5t-141.5 -59.5t-141 -19.5q-203 0 -301 126.5t-59 324.5
q39 201 188 331t357 130zM977 999q8 55 5 109.5t-28 103.5t-62.5 86.5t-98 59.5t-134.5 22q-181 0 -307.5 -113t-161.5 -290q-34 -174 47.5 -283.5t258.5 -109.5q72 0 144 23t141 69.5t122 130t74 192.5z" />
    <glyph glyph-name="colon" unicode=":" horiz-adv-x="296" 
d="M162 614q-24 0 -39.5 16.5t-9.5 45.5t27.5 45t45.5 16t40 -16t10 -45t-28 -45.5t-46 -16.5zM41 -8q-24 0 -39.5 16t-9.5 45t28 45.5t46 16.5t39.5 -16.5t9.5 -45.5t-28 -45t-46 -16z" />
    <glyph glyph-name="semicolon" unicode=";" horiz-adv-x="301" 
d="M168 616q-24 0 -40.5 16.5t-10.5 45.5t27.5 45t45.5 16t40 -16t10 -45t-27 -45.5t-45 -16.5zM14 -8q-29 -9 -45.5 6.5t-9.5 52.5q6 30 26 47t46 17q64 0 41 -111q-3 -22 -10.5 -46.5t-24 -59.5t-47 -63t-70.5 -40l10 58q69 30 84 139z" />
    <glyph glyph-name="less" unicode="&#x3c;" horiz-adv-x="993" 
d="M852 258l-735 338l14 82l868 342l-12 -66l-794 -315l-3 -4l674 -311z" />
    <glyph glyph-name="equal" unicode="=" horiz-adv-x="1044" 
d="M152 809h847l-12 -57h-848zM94 520h848l-10 -57h-848z" />
    <glyph glyph-name="greater" unicode="&#x3e;" horiz-adv-x="991" 
d="M47 258l12 66l793 311l2 4l-672 315l13 66l733 -342l-15 -82z" />
    <glyph glyph-name="question" unicode="?" horiz-adv-x="966" 
d="M211 1051h-66q17 88 59 165t105 138.5t152.5 97t193.5 35.5q112 0 202.5 -47.5t135 -131t25.5 -180.5q-11 -58 -40.5 -106t-73 -83t-82 -59.5t-87.5 -51.5t-71 -42q-103 -72 -146.5 -156.5t-79.5 -275.5h-65q38 199 94 301t188 195q22 16 65 41t75 45.5t67 49.5t58 67.5
t32 85.5q22 113 -63 202t-244 89q-162 0 -282 -105.5t-152 -273.5zM358 -8q-24 0 -39.5 16t-9.5 45t28 45.5t46 16.5t39.5 -16.5t9.5 -45.5t-28 -45t-46 -16z" />
    <glyph glyph-name="at" unicode="@" horiz-adv-x="1734" 
d="M743 172q-159 0 -230 114.5t-34 303.5q18 92 61.5 176t105.5 150t147 105.5t178 39.5q108 0 171.5 -65t67.5 -187h2l70 233h57l-186 -579q-36 -101 -7.5 -161t118.5 -60q131 0 233.5 134t140.5 335q31 161 -1 292t-113.5 214.5t-198.5 128.5t-258 45q-122 0 -244.5 -35.5
t-234 -104.5t-204 -164.5t-159 -223t-94.5 -271.5q-42 -218 20 -385.5t213.5 -258.5t366.5 -91q195 0 412 92l14 -58q-212 -92 -438 -92q-174 0 -312 57t-224 161t-119.5 250t2.5 325q31 159 104.5 297.5t174.5 239.5t222.5 174t251.5 109t258 36q119 0 225.5 -30t193 -89.5
t142.5 -148.5t75.5 -206t-9.5 -263q-43 -230 -168 -378.5t-283 -148.5q-103 0 -145 60.5t-21 152.5q-66 -104 -154.5 -164.5t-189.5 -60.5zM754 229q148 0 258 129.5t149 321.5q28 151 -30.5 237.5t-172.5 86.5q-81 0 -153.5 -36.5t-123.5 -96.5t-86 -132t-50 -149
q-31 -162 23.5 -261.5t185.5 -99.5z" />
    <glyph glyph-name="A" unicode="A" horiz-adv-x="1239" 
d="M956 498h-688l-288 -498h-66l846 1464h78l280 -1464h-65zM301 555h645l-160 834h-4z" />
    <glyph glyph-name="B" unicode="B" horiz-adv-x="1232" 
d="M1233 1098q-23 -119 -101 -202.5t-202 -121.5l-2 -4q135 -31 198.5 -126.5t36.5 -237.5q-41 -207 -183.5 -306.5t-352.5 -99.5h-600l284 1464h570q199 0 292.5 -96t59.5 -270zM248 797h549q139 0 242 84.5t128 216.5q28 142 -48.5 225.5t-248.5 83.5h-503zM236 739
l-134 -682h529q118 0 211.5 34t162.5 114t93 201q29 152 -55 242.5t-250 90.5h-557z" />
    <glyph glyph-name="C" unicode="C" horiz-adv-x="1349" 
d="M1317 1032q6 172 -104.5 285t-303.5 113q-141 0 -266.5 -53.5t-219.5 -147.5t-160 -221.5t-95 -276.5q-39 -203 1 -360t159 -246.5t303 -89.5q107 0 207.5 38.5t177.5 104t134 149.5t87 177h66q-74 -233 -263 -380t-419 -147q-198 0 -331 93.5t-182.5 265t-5.5 395.5
q32 165 107 304.5t180.5 239.5t242.5 156t288 56q218 0 342.5 -126t119.5 -329h-65z" />
    <glyph glyph-name="D" unicode="D" horiz-adv-x="1323" 
d="M25 0l284 1464h525q104 0 186.5 -26.5t139 -75t93.5 -115t52 -149.5t12 -176.5t-23 -196.5q-31 -156 -93.5 -286.5t-156 -229.5t-224 -154t-285.5 -55h-510zM360 1407l-264 -1350h447q264 0 445 178t241 490q32 155 20 281t-61 215t-142.5 137.5t-224.5 48.5h-461z" />
    <glyph glyph-name="E" unicode="E" horiz-adv-x="1181" 
d="M248 807h825l-12 -57h-825l-136 -693h918l-10 -57h-983l284 1464h963l-10 -57h-897z" />
    <glyph glyph-name="F" unicode="F" horiz-adv-x="1124" 
d="M244 793h753l-10 -58h-754l-143 -735h-65l284 1464h942l-10 -57h-876z" />
    <glyph glyph-name="G" unicode="G" horiz-adv-x="1449" 
d="M1350 1047q0 170 -115.5 276.5t-312.5 106.5q-150 0 -280.5 -56.5t-224 -154t-157.5 -222.5t-92 -268q-20 -116 -19 -220t34.5 -191t91 -150t150 -98t212.5 -35q249 0 427 172t234 461h-507l12 57h573l-141 -725h-53l67 387h-4q-74 -177 -237 -293.5t-381 -116.5
q-129 0 -231 37.5t-167.5 104.5t-104 161t-41.5 207t19 242q31 158 103 295t176.5 240.5t246.5 163t304 59.5q226 0 355.5 -118t127.5 -322h-65z" />
    <glyph glyph-name="H" unicode="H" horiz-adv-x="1327" 
d="M311 1464h66l-127 -657h936l127 657h65l-284 -1464h-66l146 750h-936l-146 -750h-65z" />
    <glyph glyph-name="I" unicode="I" horiz-adv-x="337" 
d="M317 1464h66l-285 -1464h-65z" />
    <glyph glyph-name="J" unicode="J" horiz-adv-x="917" 
d="M768 373q-34 -176 -154.5 -286t-304.5 -110t-261.5 110t-43.5 286l12 59h66l-12 -59q-30 -159 37.5 -248.5t211.5 -89.5q145 0 249 89.5t134 248.5l213 1091h66z" />
    <glyph glyph-name="K" unicode="K" horiz-adv-x="1208" 
d="M311 1464h66l-184 -948l1099 948h86l-725 -626l480 -838h-80l-455 791l-424 -365l-82 -426h-65z" />
    <glyph glyph-name="L" unicode="L" horiz-adv-x="1069" 
d="M311 1464h66l-275 -1407h840l-10 -57h-905z" />
    <glyph glyph-name="M" unicode="M" horiz-adv-x="1619" 
d="M27 0l284 1464h97l311 -1376h4l850 1376h96l-285 -1464h-65l266 1368h-4l-842 -1368h-69l-308 1368h-4l-266 -1368h-65z" />
    <glyph glyph-name="N" unicode="N" horiz-adv-x="1345" 
d="M27 0l284 1464h82l668 -1372h4l266 1372h66l-285 -1464h-82l-668 1368h-4l-266 -1368h-65z" />
    <glyph glyph-name="O" unicode="O" horiz-adv-x="1468" 
d="M627 -23q-198 0 -333.5 97t-186 269t-7.5 390q42 218 159 389.5t289.5 268t371.5 96.5q198 0 333.5 -96.5t186 -268t8.5 -389.5q-43 -218 -160 -390t-290 -269t-371 -97zM637 35q172 0 327.5 86.5t266.5 246.5t151 365q31 157 8.5 285.5t-85 220t-165 141.5t-231.5 50
q-172 0 -327 -86t-266 -246t-150 -365q-32 -157 -9.5 -285.5t84.5 -220t164.5 -142t231.5 -50.5z" />
    <glyph glyph-name="P" unicode="P" horiz-adv-x="1155" 
d="M25 0l284 1464h520q463 0 383 -415q-83 -416 -544 -416h-455l-123 -633h-65zM365 1407l-140 -717h473q180 0 296.5 88.5t152.5 270.5q34 182 -48 270t-261 88h-473z" />
    <glyph glyph-name="Q" unicode="Q" horiz-adv-x="1421" 
d="M1432 733q-36 -183 -124.5 -333.5t-217.5 -252.5l151 -188l-53 -45l-156 192q-194 -129 -422 -129q-198 0 -333 97t-185.5 269t-7.5 390q42 218 158.5 389.5t289 268t371.5 96.5t334 -96.5t186 -268t9 -389.5zM621 35q200 0 374 117l-131 163l54 45l135 -167
q116 94 198 233t115 307q31 157 8.5 285.5t-85 220t-165 141.5t-231.5 50q-172 0 -327 -86t-266 -246t-150 -365q-32 -157 -9.5 -285.5t84.5 -220t164.5 -142t231.5 -50.5z" />
    <glyph glyph-name="R" unicode="R" horiz-adv-x="1198" 
d="M27 0l284 1464h574q206 0 304 -102.5t58 -306.5q-30 -155 -135.5 -253t-263.5 -126v-4q74 -9 122 -48.5t67 -97t25.5 -124.5t2 -133.5t-9 -122t-2 -92.5t17.5 -42l-2 -12h-72q-13 12 -13 55t5.5 100t9.5 124t-5.5 131.5t-34 117t-81.5 85t-143 32.5h-518l-125 -645h-65z
M367 1407l-138 -705h469q186 0 318.5 91.5t165.5 261.5q36 182 -51.5 267t-294.5 85h-469z" />
    <glyph glyph-name="S" unicode="S" horiz-adv-x="1167" 
d="M664 797q124 -53 200 -96.5t134 -100t78 -126t9 -161.5q-20 -166 -157.5 -251t-374.5 -85q-123 0 -225 31t-176.5 90.5t-110.5 155t-23 217.5h66q-19 -211 107 -323.5t372 -112.5q209 0 327.5 78t129.5 209q5 59 -1 104t-33.5 84.5t-54 66t-91.5 61.5t-114.5 58
t-152.5 68q-105 46 -173.5 86.5t-121 93t-70 116.5t-3.5 144q13 77 57 133t112 88t148 47t176 15q137 0 246.5 -47.5t171 -144t45.5 -224.5h-65q10 116 -40 198t-144 121.5t-224 39.5q-114 0 -200.5 -23t-145.5 -76.5t-72 -134.5q-13 -78 4 -134t80 -103.5t118 -75
t178 -80.5q9 -4 14 -6z" />
    <glyph glyph-name="T" unicode="T" horiz-adv-x="1167" 
d="M436 0l275 1407h-523l11 57h1110l-11 -57h-522l-274 -1407h-66z" />
    <glyph glyph-name="U" unicode="U" horiz-adv-x="1275" 
d="M1157 508q-103 -531 -629 -531q-527 0 -424 531l187 956h65l-186 -956q-46 -239 45.5 -356t323.5 -117q463 0 553 473l186 956h65z" />
    <glyph glyph-name="V" unicode="V" horiz-adv-x="1187" 
d="M178 1464h68l256 -1347h2l780 1347h68l-846 -1464h-51z" />
    <glyph glyph-name="W" unicode="W" horiz-adv-x="1769" 
d="M190 1464h68l96 -1358h2l656 1358h82l127 -1358h2l624 1358h68l-674 -1464h-76l-131 1358h-4l-659 -1358h-76z" />
    <glyph glyph-name="X" unicode="X" horiz-adv-x="1134" 
d="M586 748l-357 716h78l324 -655h2l579 655h78l-635 -716l383 -748h-77l-353 686h-2l-616 -686h-78z" />
    <glyph glyph-name="Y" unicode="Y" horiz-adv-x="1140" 
d="M166 1464h76l340 -792h4l651 792h76l-711 -864l-117 -600h-65l117 600z" />
    <glyph glyph-name="Z" unicode="Z" horiz-adv-x="1196" 
d="M281 1464h1024l-11 -57l-1243 -1346l-2 -4h1000l-11 -57h-1081l10 57l1241 1346l2 4h-940z" />
    <glyph glyph-name="bracketleft" unicode="[" horiz-adv-x="516" 
d="M358 1546h291l-12 -57h-225l-324 -1671h225l-12 -58h-291z" />
    <glyph glyph-name="backslash" unicode="\" horiz-adv-x="677" 
d="M188 1464h66l313 -1464h-67z" />
    <glyph glyph-name="bracketright" unicode="]" horiz-adv-x="516" 
d="M555 1546l-348 -1786h-291l12 58h226l323 1671h-225l12 57h291z" />
    <glyph glyph-name="asciicircum" unicode="^" horiz-adv-x="778" 
d="M551 1403h-2l-389 -502h-72l438 563h72l221 -563h-69z" />
    <glyph glyph-name="underscore" unicode="_" horiz-adv-x="759" 
d="M-162 -283h776l-10 -57h-776z" />
    <glyph glyph-name="grave" unicode="`" horiz-adv-x="927" 
d="M553 1477l92 -254h-59l-117 254h84z" />
    <glyph glyph-name="a" unicode="a" horiz-adv-x="1007" 
d="M829 780q23 111 -48 172.5t-210 61.5q-295 0 -362 -258h-62q84 311 435 311q167 0 250 -83.5t49 -254.5l-101 -518q-2 -9 -6.5 -28t-6 -29.5l-4 -28t0 -27.5t7 -22.5t15 -18t26 -10.5t39 -3.5t54.5 7.5l-10 -53q-39 -8 -70 -8q-77 0 -104.5 42t-9.5 140h-4
q-79 -99 -192 -147t-230 -48q-152 0 -230.5 83t-50.5 221q26 127 130 194.5t323 104.5q25 5 68.5 11t70.5 10.5t63 12.5t59.5 21t48 31.5t39.5 47.5t23 66zM311 31q151 0 280 96.5t150 194.5l60 311q-7 -11 -17 -20.5t-25.5 -17.5t-27.5 -14t-35.5 -12.5t-37.5 -10t-44.5 -9
t-44.5 -7.5t-51 -8t-51 -8q-83 -13 -145.5 -31t-118.5 -47t-90.5 -72.5t-46.5 -101.5q-24 -120 39 -181.5t206 -61.5z" />
    <glyph glyph-name="b" unicode="b" horiz-adv-x="1067" 
d="M670 1067q194 0 294 -147t52 -398q-50 -251 -206.5 -398t-350.5 -147q-144 0 -229.5 80t-110.5 205h-4l-52 -262h-61l285 1464h61l-133 -688h4q74 131 189.5 211t261.5 80zM455 31q180 0 317 132t182 359q44 227 -42.5 359.5t-266.5 132.5q-159 0 -297.5 -135
t-181.5 -357q-44 -222 43 -356.5t246 -134.5z" />
    <glyph glyph-name="c" unicode="c" horiz-adv-x="995" 
d="M938 709q0 38 -10.5 78t-36 81.5t-61.5 73.5t-93 52t-125 20q-199 0 -330 -127t-169 -330q-14 -65 -10.5 -129t17.5 -122t45.5 -108.5t73 -87.5t99.5 -58t125 -21q85 0 158.5 30t122 78t79.5 100t45 105h62q-42 -155 -171.5 -261t-305.5 -106q-142 0 -245 77.5
t-144.5 212t-10.5 296.5q47 242 198.5 373t371.5 131q88 0 161 -32.5t119 -84.5t71 -114.5t25 -126.5h-61z" />
    <glyph glyph-name="d" unicode="d" horiz-adv-x="1067" 
d="M1083 1464h62l-285 -1464h-61l51 262h-4q-72 -124 -189 -204.5t-262 -80.5q-126 0 -215 63.5t-125.5 189t-3.5 292.5q32 167 117 292.5t198.5 189t239.5 63.5q146 0 230.5 -80t109.5 -211h4zM420 31q159 0 298 134.5t183 356.5q22 115 8 206.5t-55.5 155t-104.5 97
t-139 33.5q-180 0 -316.5 -132.5t-180.5 -359.5q-45 -227 41 -359t266 -132z" />
    <glyph glyph-name="e" unicode="e" horiz-adv-x="1021" 
d="M432 31q84 0 158 28t125 72.5t85.5 90.5t53.5 93h61q-65 -153 -191 -245.5t-302 -92.5q-143 0 -238.5 74.5t-128.5 201.5t-2 284q51 256 206 393t372 137q112 0 190.5 -40.5t117 -112t49 -169.5t-14.5 -213h-858l-4 -12q-14 -81 -13 -153.5t24.5 -134t62.5 -106.5
t102.5 -70t144.5 -25zM621 1014q-186 0 -321.5 -125.5t-174.5 -302.5h797q10 64 9.5 125.5t-22 116.5t-56.5 96t-95 65.5t-137 24.5z" />
    <glyph glyph-name="f" unicode="f" horiz-adv-x="522" 
d="M645 1413q-71 9 -122.5 2.5t-88.5 -60t-59 -163.5l-27 -139h227l-10 -54h-227l-195 -999h-61l194 999h-149l10 54h150l30 155q28 147 93 208t168 61q34 0 77 -11z" />
    <glyph glyph-name="g" unicode="g" horiz-adv-x="1062" 
d="M995 1053h62l-195 -996q-77 -407 -500 -407q-191 0 -295 85.5t-102 211.5h62q8 -104 93.5 -174t252.5 -70q361 0 430 356l49 256h-4q-67 -115 -187.5 -185.5t-257.5 -70.5q-87 0 -160 33.5t-124.5 100t-69 164.5t5.5 227q25 124 81 219.5t131 151.5t158.5 84t172.5 28
q138 0 230 -70t114 -192h4zM428 113q70 0 142.5 28t138.5 81t117.5 142t72.5 199q21 115 5 200t-62.5 140.5t-108 83t-131.5 27.5q-66 0 -127 -15t-119 -48t-104 -82.5t-81.5 -122t-53.5 -162.5q-42 -221 49.5 -346t261.5 -125z" />
    <glyph glyph-name="h" unicode="h" horiz-adv-x="980" 
d="M670 1067q131 0 207.5 -82.5t48.5 -230.5l-148 -754h-61l139 713q14 59 9.5 113t-24.5 96t-73.5 67t-136.5 25t-161 -29t-131.5 -73.5t-89 -93.5t-44.5 -93l-142 -725h-61l285 1464h61l-117 -598h5q30 35 54.5 58.5t64.5 53t82 47t102.5 30t130.5 12.5z" />
    <glyph glyph-name="i" unicode="i" horiz-adv-x="317" 
d="M309 1305q-19 0 -32 13.5t-9 35.5q4 23 22.5 36t37.5 13q21 0 34 -13t9 -36q-4 -22 -23 -35.5t-39 -13.5zM229 1053h62l-205 -1053h-61z" />
    <glyph glyph-name="j" unicode="j" horiz-adv-x="319" 
d="M311 1305q-19 0 -32 13.5t-9 35.5q4 23 22.5 36t37.5 13q21 0 34 -13t9 -36q-4 -22 -23 -35.5t-39 -13.5zM231 1053h62l-232 -1186q-9 -47 -19.5 -80.5t-30 -66t-50.5 -49.5t-74 -17q-62 0 -98 18l10 54q58 -16 96.5 -15.5t63 32.5t39.5 107z" />
    <glyph glyph-name="k" unicode="k" horiz-adv-x="897" 
d="M287 1464h61l-192 -989l712 578h86l-499 -404l358 -649h-76l-334 608l-264 -215l-76 -393h-61z" />
    <glyph glyph-name="l" unicode="l" horiz-adv-x="282" 
d="M293 1464h61l-284 -1464h-62z" />
    <glyph glyph-name="m" unicode="m" horiz-adv-x="1572" 
d="M1274 1067q149 0 207.5 -88.5t27.5 -249.5l-141 -729h-61l133 688q32 164 -8 245t-172 81q-155 0 -269.5 -93t-136.5 -208l-139 -713h-62l133 688q34 170 -15.5 248t-162.5 78q-77 0 -150.5 -30t-125.5 -75.5t-86 -97.5t-43 -98l-140 -713h-61l205 1053h61l-39 -191h4
q34 43 62.5 71.5t76 63t109.5 52.5t137 18q118 0 179 -58t61 -165h4q40 54 75.5 90t84.5 68.5t111.5 48.5t140.5 16z" />
    <glyph glyph-name="n" unicode="n" horiz-adv-x="980" 
d="M670 1067q131 0 207.5 -82.5t48.5 -230.5l-148 -754h-61l139 713q14 59 9.5 113t-24.5 96t-73.5 67t-136.5 25t-161 -29t-131.5 -73.5t-89 -93.5t-44.5 -93l-142 -725h-61l205 1053h61l-37 -187h5q30 35 54.5 58.5t64.5 53t82 47t102.5 30t130.5 12.5z" />
    <glyph glyph-name="o" unicode="o" horiz-adv-x="1064" 
d="M426 -23q-222 0 -322.5 149t-52.5 396t206 396t380 149t323.5 -149t53.5 -396t-207 -396t-381 -149zM436 31q197 0 335.5 136t180.5 355q28 143 0.5 253.5t-111 174.5t-214.5 64q-197 0 -334.5 -136.5t-179.5 -355.5q-23 -107 -10.5 -197t51 -155.5t111 -102t171.5 -36.5
z" />
    <glyph glyph-name="p" unicode="p" horiz-adv-x="1069" 
d="M670 1067q194 0 294 -147t52 -398q-50 -251 -206.5 -398t-350.5 -147q-144 0 -229.5 80t-110.5 205h-4l-117 -602h-61l270 1393h61l-53 -277h4q74 131 189.5 211t261.5 80zM455 31q180 0 317 132t182 359q44 227 -42.5 359.5t-266.5 132.5q-159 0 -297.5 -135
t-181.5 -357q-44 -222 43 -356.5t246 -134.5z" />
    <glyph glyph-name="q" unicode="q" horiz-adv-x="1071" 
d="M1004 1053h61l-270 -1393h-62l117 602h-4q-72 -124 -189 -204.5t-262 -80.5q-126 0 -215 63.5t-125.5 189t-3.5 292.5q32 167 117 292.5t198.5 189t239.5 63.5q146 0 230.5 -80t109.5 -211h4zM420 31q159 0 298 134.5t183 356.5q22 115 8 206.5t-55.5 155t-104.5 97
t-139 33.5q-180 0 -316.5 -132.5t-180.5 -359.5q-45 -227 41 -359t266 -132z" />
    <glyph glyph-name="r" unicode="r" horiz-adv-x="598" 
d="M592 1067q46 0 76 -6l-11 -53h-4q-97 15 -195.5 -26t-172 -129t-95.5 -200l-127 -653h-61l205 1053h61l-43 -211h4q56 96 156.5 160.5t206.5 64.5z" />
    <glyph glyph-name="s" unicode="s" horiz-adv-x="905" 
d="M465 588q224 -76 299.5 -159t46.5 -228q-21 -104 -123.5 -164t-243.5 -60q-193 0 -317.5 95t-124.5 256h61q0 -93 53.5 -162t139 -102t190.5 -33t196.5 47.5t109.5 128.5q7 33 7 62t-4 52t-18 44.5t-27.5 37.5t-41 33.5t-50 29.5t-62 28t-70 27t-80.5 28
q-57 19 -92.5 33.5t-79 40.5t-66 54t-35 70.5t-4.5 94.5q17 112 113 168.5t241 56.5q160 0 264.5 -85.5t104.5 -209.5h-61q0 108 -91.5 175t-226.5 67q-44 0 -88 -9.5t-88 -29.5t-74.5 -58.5t-36.5 -89.5q-5 -40 9.5 -74t32.5 -54t65 -43.5t70 -32t85 -29.5q11 -4 17 -6z
" />
    <glyph glyph-name="t" unicode="t" horiz-adv-x="540" 
d="M578 999h-232l-141 -727q-6 -30 -8.5 -46t-6 -42.5t-2 -40t5.5 -33t14 -29t25.5 -19.5t37.5 -12t53.5 -0.5t70.5 9.5l-10 -53q-58 -12 -115 -12q-31 0 -55 7t-45.5 24t-30.5 46.5t-11.5 75.5t11.5 109l146 743h-154l10 54h154l65 340h62l-66 -340h232z" />
    <glyph glyph-name="u" unicode="u" horiz-adv-x="985" 
d="M913 1053h62l-205 -1053h-61l36 186h-4q-38 -44 -71 -73t-85 -61.5t-122 -49t-156 -16.5q-131 0 -207.5 82.5t-48.5 230.5l148 754h61l-139 -713q-14 -58 -9.5 -112.5t24.5 -96.5t73.5 -67t136.5 -25t161 29t131.5 73.5t89 93.5t44.5 93z" />
    <glyph glyph-name="v" unicode="v" horiz-adv-x="890" 
d="M106 1053h64l180 -971h2l559 971h64l-606 -1053h-68z" />
    <glyph glyph-name="w" unicode="w" horiz-adv-x="1423" 
d="M113 1053h63l117 -977h2l469 977h84l90 -977h2l498 977h63l-536 -1053h-82l-92 973h-5l-464 -973h-82z" />
    <glyph glyph-name="x" unicode="x" horiz-adv-x="948" 
d="M150 1053h75l258 -471h4l443 471h76l-488 -514l318 -539h-78l-287 500h-4l-477 -500h-78l524 539z" />
    <glyph glyph-name="y" unicode="y" horiz-adv-x="907" 
d="M985 1053l-625 -1088q-35 -60 -55 -93t-48.5 -75t-50 -63.5t-49 -42.5t-57 -29t-63.5 -8q-61 0 -119 20l10 54h4q38 -8 55.5 -10.5t50 -4.5t57.5 6.5t46 26.5q38 32 88.5 106.5t85.5 151.5l-211 1049h66l192 -965h3l555 965h65z" />
    <glyph glyph-name="z" unicode="z" horiz-adv-x="899" 
d="M-33 53l877 942v4h-660l11 54h737l-10 -54l-877 -942v-4h713l-10 -53h-791z" />
    <glyph glyph-name="braceleft" unicode="{" horiz-adv-x="540" 
d="M82 682q68 -2 124 50t77 155l63 323q17 85 36.5 142.5t52.5 103.5t82.5 68t119.5 22h22l-12 -57h-22q-100 0 -142 -62.5t-80 -255.5l-57 -297q-16 -84 -58.5 -135t-111.5 -84v-4q56 -33 78 -84.5t6 -136.5l-55 -287q-16 -80 -22 -130.5t-4.5 -91t15.5 -61.5t39.5 -31.5
t67.5 -10.5h23l-13 -58h-22q-56 0 -93 16t-56.5 43.5t-25 72.5t-1 94.5t17.5 117.5l62 314q19 102 -17.5 154.5t-105.5 52.5z" />
    <glyph glyph-name="bar" unicode="|" horiz-adv-x="26" 
d="M193 1524h65l-348 -1786h-66z" />
    <glyph glyph-name="braceright" unicode="}" horiz-adv-x="536" 
d="M516 682l-12 -57q-69 0 -125.5 -52.5t-75.5 -154.5l-61 -314q-17 -86 -37 -144t-53 -106t-83 -71t-120 -23h-23l13 58h22q100 0 142.5 65.5t80.5 259.5l56 287q16 85 58.5 136.5t111.5 84.5v4q-56 33 -78 84t-6 135l57 297q16 80 22 130t4 89.5t-16.5 59.5t-40 29.5
t-67.5 9.5h-23l12 57h23q92 0 135 -40t44 -115t-19 -181l-64 -323q-20 -102 17 -154.5t106 -50.5z" />
    <glyph glyph-name="asciitilde" unicode="~" horiz-adv-x="788" 
d="M274 723q-86 0 -120 -127h-66q22 86 74 135t123 49q43 0 84 -21t67.5 -45.5t61.5 -45.5t67 -21q43 0 75 34t46 91h66q-22 -85 -74.5 -133.5t-122.5 -48.5q-43 0 -84 21t-67.5 45.5t-62 45.5t-67.5 21z" />
    <glyph glyph-name="exclamdown" unicode="&#xa1;" horiz-adv-x="401" 
d="M332 1206q24 0 39.5 -16t9.5 -45t-28 -45.5t-46 -16.5t-39.5 16.5t-9.5 45.5t28 45t46 16zM-18 -266l96 495l135 592h41l-94 -592l-97 -495h-81z" />
    <glyph glyph-name="cent" unicode="&#xa2;" horiz-adv-x="993" 
d="M938 709q0 45 -16 92.5t-48 93t-89.5 78t-131.5 39.5l-190 -981q85 0 158.5 30t122 78t79.5 100t45 105h62q-42 -155 -171.5 -261t-305.5 -106l-29 -151h-66l31 156q-188 26 -284 190.5t-52 390.5q45 235 189.5 365.5t355.5 138.5l29 143h65l-28 -145q78 -7 143 -42
t106 -85.5t63.5 -109.5t22.5 -119h-61zM113 557q-24 -120 0.5 -231.5t99 -191.5t186.5 -99l189 979q-190 -9 -314 -135t-161 -322z" />
    <glyph glyph-name="sterling" unicode="&#xa3;" horiz-adv-x="1038" 
d="M934 152l29 -46q-37 -31 -58.5 -47t-59 -39t-77.5 -33t-86 -10q-52 0 -101 20t-81.5 43.5t-78 43.5t-91.5 20q-142 0 -312 -104l-28 51q107 76 180.5 182.5t97.5 229.5q13 74 -4 168h-162l11 53h139q-2 6 -11 40t-11.5 43.5t-9.5 40.5t-9 45.5t-5 42.5t-2.5 48t2.5 45.5
t7 50.5q13 66 53 131.5t104 123.5t161.5 94t211.5 36q90 0 161.5 -23t115.5 -63.5t71.5 -95t30.5 -118.5t-8 -134h-65q35 177 -52.5 277t-263.5 100q-165 0 -296.5 -91.5t-162.5 -250.5q-7 -37 -8 -73t5.5 -73.5t12.5 -63.5t18 -69t17 -63h367l-10 -53h-344q17 -92 2 -168
q-19 -100 -75 -195.5t-138 -163.5l2 -4q111 62 217 62q53 0 104.5 -20t85.5 -43.5t78 -43.5t84 -20q46 0 91.5 18t74 38.5t76.5 60.5z" />
    <glyph glyph-name="currency" unicode="&#xa4;" horiz-adv-x="720" 
d="M770 705q-33 -159 -137 -263l100 -131l-49 -43l-98 131q-128 -96 -271 -96q-145 0 -233 94l-148 -129l-32 41l149 131q-69 111 -37 265q28 154 138 264l-95 133l47 41l97 -131q129 94 270 94q143 0 231 -94l152 131l33 -41l-152 -133q63 -107 35 -264zM326 360
q131 0 239.5 92.5t139.5 252.5q31 161 -41 252.5t-203 91.5q-133 0 -241.5 -91.5t-139.5 -252.5t41.5 -253t204.5 -92z" />
    <glyph glyph-name="yen" unicode="&#xa5;" horiz-adv-x="1062" 
d="M1210 1405l-637 -811h410l-10 -57h-418l-37 -185h418l-10 -57h-418l-57 -295h-66l57 295h-417l10 57h418l36 185h-417l10 57h410l-320 811h72l297 -758h4l592 758h73z" />
    <glyph glyph-name="brokenbar" unicode="&#xa6;" horiz-adv-x="32" 
d="M154 1524h65l-143 -738h-66zM-45 502h65l-149 -764h-66z" />
    <glyph glyph-name="section" unicode="&#xa7;" horiz-adv-x="1105" 
d="M1042 463q-25 -123 -114.5 -198.5t-220.5 -84.5q56 -51 79 -105t9 -124q-22 -109 -125.5 -178.5t-280.5 -69.5q-94 0 -160.5 26.5t-100 71.5t-45 99.5t-1.5 117.5h65q-10 -53 0 -100t35.5 -82t81 -55.5t135.5 -20.5q138 0 225 48t105 143q8 41 -1.5 77.5t-28.5 64
t-57 58.5t-69 51.5t-83 52.5q-53 33 -80 50q-19 12 -58.5 37t-57 36.5t-50 34t-47 35.5t-38 35.5t-33 39.5t-22.5 41.5t-15.5 48t-2.5 53t6 61.5q25 123 115 198.5t221 84.5q-56 51 -79 105t-9 124q22 110 125 179t280 69q94 0 161 -26.5t100.5 -72t45 -100t1.5 -117.5h-66
q10 53 0 100t-35.5 82.5t-81 56t-135.5 20.5q-138 0 -224.5 -48t-104.5 -143q-8 -40 2 -77t27.5 -63t56.5 -58.5t67 -50.5t83 -52.5t83 -52.5q19 -12 59 -37.5t57 -36.5t49.5 -33.5t47 -35.5t38 -35.5t33 -39.5t22 -41.5t15 -48t2.5 -53t-6 -61.5zM649 227q51 5 91 13t81 25
t70.5 42t52.5 64.5t33 91.5q6 37 5.5 66.5t-10 56t-23.5 48t-35 42t-44.5 37.5t-52 35.5t-57.5 36.5q-18 11 -28.5 17.5t-26.5 16.5t-29 19q-29 20 -95 62t-96 63q-64 -6 -113 -18.5t-95 -37.5t-76 -70.5t-43 -109.5q-6 -37 -5.5 -66.5t10 -56t23.5 -48t35 -42t44.5 -37.5
t52 -35.5t57.5 -36.5q56 -34 84 -53t93.5 -61t96.5 -64z" />
    <glyph glyph-name="dieresis" unicode="&#xa8;" horiz-adv-x="1017" 
d="M444 1376q5 28 26 47t52 19t46 -19t10 -47q-6 -27 -28.5 -46t-53.5 -19t-44.5 18.5t-7.5 46.5zM762 1376q5 28 26 47t52 19t45.5 -19t9.5 -47q-6 -27 -28.5 -46t-53.5 -19t-44 18.5t-7 46.5z" />
    <glyph glyph-name="copyright" unicode="&#xa9;" horiz-adv-x="1587" 
d="M686 -35q-227 0 -377.5 101.5t-204.5 273.5t-12 389q31 160 109.5 299.5t192.5 242t266 161.5t323 59q220 0 370 -101.5t206 -274t14 -386.5q-31 -161 -111 -301.5t-194.5 -242.5t-265 -161t-316.5 -59zM696 23q202 0 374.5 92t285 252t151.5 362q40 201 -12 361
t-188.5 252t-335.5 92q-154 0 -292.5 -53.5t-242 -148t-176 -223.5t-102.5 -280q-39 -204 9 -363t184.5 -251t344.5 -92zM1176 924q0 97 -67 161t-189 64q-161 0 -279 -117t-154 -303q-36 -185 37 -300.5t234 -115.5q136 0 230.5 74.5t129.5 196.5h62
q-40 -151 -157.5 -239.5t-277.5 -88.5q-189 0 -276 132t-47 341t180.5 343t329.5 134q153 0 231.5 -78.5t75.5 -203.5h-63z" />
    <glyph glyph-name="guillemotleft" unicode="&#xab;" horiz-adv-x="675" 
d="M61 522l15 82l323 246l-16 -82l-264 -203l-2 -4l186 -203l-16 -82zM340 522l14 82l324 246l-16 -82l-265 -203l-2 -4l187 -203l-17 -82z" />
    <glyph glyph-name="logicalnot" unicode="&#xac;" horiz-adv-x="1056" 
d="M870 727h-723l11 57h788l-92 -483h-66z" />
    <glyph glyph-name="registered" unicode="&#xae;" horiz-adv-x="1034" 
d="M547 518q-98 0 -184.5 40.5t-144 108t-82.5 163t-5 198.5q40 213 186 341t359 128q98 0 184.5 -40.5t144.5 -108.5t83 -163t6 -198q-42 -214 -188 -341.5t-359 -127.5zM549 575q184 0 312.5 109.5t166.5 302.5q18 93 -3 178t-70.5 145t-122.5 95t-156 35
q-183 0 -312.5 -110.5t-166.5 -301.5q-19 -94 2.5 -179t71.5 -144.5t123 -94.5t155 -35zM442 750h-65l104 530h224q74 0 111.5 -38.5t25.5 -106.5q-9 -50 -47.5 -85.5t-100.5 -48.5v-2q41 -9 56.5 -46t12 -77t-3 -76.5t14.5 -43.5l-2 -6h-61q-16 11 -18.5 39t1 59t2.5 60.5
t-19.5 49t-58.5 19.5h-131zM498 1034h145q62 0 92 23t39 73q10 49 -11.5 71t-80.5 22h-147z" />
    <glyph glyph-name="macron" unicode="&#xaf;" horiz-adv-x="964" 
d="M410 1391h467l-11 -54h-467z" />
    <glyph glyph-name="degree" unicode="&#xb0;" horiz-adv-x="747" 
d="M438 879q-61 0 -109 19t-76 50t-46 71t-19 82.5t5 84.5q11 53 40 106t73.5 98.5t110.5 74t142 28.5q60 0 108.5 -19t77 -50t47 -71t20 -82.5t-4.5 -84.5q-10 -53 -40 -106t-75.5 -98.5t-112 -74t-141.5 -28.5zM451 940q113 0 192.5 69.5t101.5 176.5q21 107 -32 176.5
t-166 69.5t-192.5 -69.5t-100.5 -176.5q-22 -107 31 -176.5t166 -69.5z" />
    <glyph glyph-name="plusminus" unicode="&#xb1;" horiz-adv-x="1062" 
d="M145 731h394l75 381h66l-76 -381h393l-10 -57h-393l-76 -389h-65l75 389h-393zM14 57h852l-10 -57h-852z" />
    <glyph glyph-name="acute" unicode="&#xb4;" horiz-adv-x="968" 
d="M750 1477h84l-216 -254h-59z" />
    <glyph glyph-name="paragraph" unicode="&#xb6;" horiz-adv-x="915" 
d="M530 788h-81q-165 0 -242 81t-43 257q65 338 416 338h387l-285 -1464h-66l275 1407h-174l-275 -1407h-65z" />
    <glyph glyph-name="periodcentered" unicode="&#xb7;" horiz-adv-x="268" 
d="M143 578q-24 0 -39.5 16t-9.5 45t28 45t46 16t39.5 -16t9.5 -45t-28 -45t-46 -16z" />
    <glyph glyph-name="cedilla" unicode="&#xb8;" horiz-adv-x="999" 
d="M465 -6l-137 -103l-2 -4q94 20 140 -14.5t34 -101.5q-13 -68 -74 -105t-147 -37q-106 0 -183 54l27 34q68 -41 156 -41q65 0 107.5 23t51.5 68q7 41 -17 60t-79 19q-50 0 -100 -22l-19 31l176 139h66z" />
    <glyph glyph-name="guillemotright" unicode="&#xbb;" horiz-adv-x="675" 
d="M336 522l-324 -246l17 82l264 203l2 4l-186 203l16 82l225 -246zM614 522l-323 -246l16 82l264 203l2 4l-186 203l16 82l226 -246z" />
    <glyph glyph-name="questiondown" unicode="&#xbf;" horiz-adv-x="974" 
d="M645 1204q24 0 39.5 -16t9.5 -45t-27.5 -45.5t-45.5 -16.5t-40 16.5t-10 45.5t28 45t46 16zM793 145h65q-17 -88 -59 -165t-105 -138.5t-152.5 -97t-193.5 -35.5q-172 0 -281.5 106t-80.5 253q11 58 40.5 106t73 83t82 59.5t87.5 51.5t71 42q103 72 146 156.5t79 275.5
h66q-38 -199 -94.5 -301t-188.5 -195q-22 -16 -65 -41t-75 -45.5t-67 -49.5t-58 -67.5t-32 -85.5q-10 -53 6 -104.5t53.5 -93t102 -67t145.5 -25.5q162 0 282.5 105t152.5 273z" />
    <glyph glyph-name="Agrave" unicode="&#xc0;" horiz-adv-x="1239" 
d="M741 1888l93 -254h-60l-117 254h84zM956 498h-688l-288 -498h-66l846 1464h78l280 -1464h-65zM301 555h645l-160 834h-4z" />
    <glyph glyph-name="Aacute" unicode="&#xc1;" horiz-adv-x="1239" 
d="M991 1888h84l-215 -254h-59zM956 498h-688l-288 -498h-66l846 1464h78l280 -1464h-65zM301 555h645l-160 834h-4z" />
    <glyph glyph-name="Acircumflex" unicode="&#xc2;" horiz-adv-x="1239" 
d="M905 1898l139 -212h-79l-103 165h-2l-168 -165h-82l219 212h76zM956 498h-688l-288 -498h-66l846 1464h78l280 -1464h-65zM301 555h645l-160 834h-4z" />
    <glyph glyph-name="Atilde" unicode="&#xc3;" horiz-adv-x="1239" 
d="M729 1858q38 0 74.5 -17t60 -37.5t53.5 -37.5t56 -17q67 0 96 109h61q-40 -162 -167 -162q-37 0 -73 17t-60 37t-54.5 37t-56.5 17q-67 0 -96 -108h-62q20 79 63.5 120.5t104.5 41.5zM956 498h-688l-288 -498h-66l846 1464h78l280 -1464h-65zM301 555h645l-160 834h-4z
" />
    <glyph glyph-name="Adieresis" unicode="&#xc4;" horiz-adv-x="1239" 
d="M621 1788q5 28 25.5 46.5t51.5 18.5t46 -19t10 -46q-6 -28 -27.5 -47t-52.5 -19t-45 19.5t-8 46.5zM938 1788q5 28 26 46.5t52 18.5t45.5 -18.5t9.5 -46.5q-6 -28 -27.5 -47t-52.5 -19t-45 19.5t-8 46.5zM956 498h-688l-288 -498h-66l846 1464h78l280 -1464h-65zM301 555
h645l-160 834h-4z" />
    <glyph glyph-name="Aring" unicode="&#xc5;" horiz-adv-x="1239" 
d="M809 1599q-70 0 -108 45.5t-25 118.5q15 72 71 120t125 48q71 0 111 -48.5t25 -119.5q-13 -72 -70 -118t-129 -46zM819 1649q55 0 90.5 31t44.5 83q11 52 -13.5 84.5t-78.5 32.5t-89 -32t-46 -85q-9 -52 14.5 -83t77.5 -31zM956 498h-688l-288 -498h-66l846 1464h78
l280 -1464h-65zM301 555h645l-160 834h-4z" />
    <glyph glyph-name="AE" unicode="&#xc6;" horiz-adv-x="1869" 
d="M836 57h866l-10 -57h-932l96 498h-582l-288 -498h-66l846 1464h1190l-10 -57h-846l-117 -600h774l-12 -57h-774zM307 555h561l166 852h-235z" />
    <glyph glyph-name="Ccedilla" unicode="&#xc7;" horiz-adv-x="1349" 
d="M920 1487q218 0 342.5 -126t119.5 -329h-65q6 172 -104.5 285t-303.5 113q-141 0 -266.5 -53.5t-219.5 -147.5t-160 -221.5t-95 -276.5q-39 -203 1 -360t159 -246.5t303 -89.5q107 0 207.5 38.5t177.5 104t134 149.5t87 177h66q-72 -230 -257 -376.5t-411 -150.5
l-115 -86l-2 -4q94 20 140 -14.5t34 -101.5q-13 -68 -74 -105t-147 -37q-105 0 -182 54l26 34q68 -41 156 -41q65 0 108 23.5t52 67.5q7 41 -17 60t-79 19q-51 0 -101 -22l-18 31l157 125q-184 11 -305 107t-164.5 262.5t-1.5 381.5q32 165 107 304.5t180.5 239.5t242.5 156
t288 56z" />
    <glyph glyph-name="Egrave" unicode="&#xc8;" horiz-adv-x="1181" 
d="M743 1888l93 -254h-60l-117 254h84zM248 807h825l-12 -57h-825l-136 -693h918l-10 -57h-983l284 1464h963l-10 -57h-897z" />
    <glyph glyph-name="Eacute" unicode="&#xc9;" horiz-adv-x="1181" 
d="M993 1888h84l-215 -254h-59zM248 807h825l-12 -57h-825l-136 -693h918l-10 -57h-983l284 1464h963l-10 -57h-897z" />
    <glyph glyph-name="Ecircumflex" unicode="&#xca;" horiz-adv-x="1181" 
d="M907 1898l140 -212h-80l-103 165h-2l-168 -165h-82l219 212h76zM248 807h825l-12 -57h-825l-136 -693h918l-10 -57h-983l284 1464h963l-10 -57h-897z" />
    <glyph glyph-name="Edieresis" unicode="&#xcb;" horiz-adv-x="1181" 
d="M623 1788q5 28 25.5 46.5t51.5 18.5t46 -19t10 -46q-6 -28 -27.5 -47t-52.5 -19t-45 19.5t-8 46.5zM940 1788q5 28 26 46.5t52 18.5t45.5 -18.5t9.5 -46.5q-6 -28 -27.5 -47t-52.5 -19t-45 19.5t-8 46.5zM248 807h825l-12 -57h-825l-136 -693h918l-10 -57h-983l284 1464
h963l-10 -57h-897z" />
    <glyph glyph-name="Igrave" unicode="&#xcc;" horiz-adv-x="368" 
d="M324 1888l92 -254h-60l-116 254h84zM348 1464h66l-285 -1464h-66z" />
    <glyph glyph-name="Iacute" unicode="&#xcd;" horiz-adv-x="337" 
d="M543 1888h84l-215 -254h-60zM317 1464h66l-285 -1464h-65z" />
    <glyph glyph-name="Icircumflex" unicode="&#xce;" horiz-adv-x="317" 
d="M451 1898l139 -212h-80l-102 165h-2l-168 -165h-82l219 212h76zM311 1464h66l-285 -1464h-65z" />
    <glyph glyph-name="Idieresis" unicode="&#xcf;" horiz-adv-x="442" 
d="M227 1788q5 28 26 46.5t52 18.5t45.5 -18.5t9.5 -46.5q-6 -28 -27 -47t-52 -19t-45.5 19.5t-8.5 46.5zM545 1788q5 28 26 46.5t52 18.5t45.5 -18.5t9.5 -46.5q-6 -28 -27.5 -47t-52.5 -19t-45 19.5t-8 46.5zM369 1464h65l-284 -1464h-66z" />
    <glyph glyph-name="Eth" unicode="&#xd0;" horiz-adv-x="1409" 
d="M920 1464q104 0 186.5 -26.5t139 -75t93.5 -115t52 -149.5t12 -176.5t-23 -196.5q-31 -156 -93.5 -286.5t-156 -229.5t-224 -154t-285.5 -55h-510l141 729h-215l12 57h215l131 678h525zM629 57q264 0 445 178t241 490q32 155 20 281t-61 215t-142.5 137.5t-224.5 48.5
h-461l-120 -621h465l-13 -57h-465l-131 -672h447z" />
    <glyph glyph-name="Ntilde" unicode="&#xd1;" horiz-adv-x="1345" 
d="M784 1858q38 0 74.5 -17t60 -37.5t53.5 -37.5t56 -17q67 0 96 109h62q-20 -80 -63.5 -121t-104.5 -41q-37 0 -73 17t-60 37t-54.5 37t-56.5 17q-67 0 -96 -108h-62q20 79 63.5 120.5t104.5 41.5zM27 0l284 1464h82l668 -1372h4l266 1372h66l-285 -1464h-82l-668 1368h-4
l-266 -1368h-65z" />
    <glyph glyph-name="Ograve" unicode="&#xd2;" horiz-adv-x="1468" 
d="M858 1888l92 -254h-59l-117 254h84zM627 -23q-198 0 -333.5 97t-186 269t-7.5 390q42 218 159 389.5t289.5 268t371.5 96.5q198 0 333.5 -96.5t186 -268t8.5 -389.5q-43 -218 -160 -390t-290 -269t-371 -97zM637 35q172 0 327.5 86.5t266.5 246.5t151 365
q31 157 8.5 285.5t-85 220t-165 141.5t-231.5 50q-172 0 -327 -86t-266 -246t-150 -365q-32 -157 -9.5 -285.5t84.5 -220t164.5 -142t231.5 -50.5z" />
    <glyph glyph-name="Oacute" unicode="&#xd3;" horiz-adv-x="1468" 
d="M1108 1888h84l-215 -254h-59zM627 -23q-198 0 -333.5 97t-186 269t-7.5 390q42 218 159 389.5t289.5 268t371.5 96.5q198 0 333.5 -96.5t186 -268t8.5 -389.5q-43 -218 -160 -390t-290 -269t-371 -97zM637 35q172 0 327.5 86.5t266.5 246.5t151 365q31 157 8.5 285.5
t-85 220t-165 141.5t-231.5 50q-172 0 -327 -86t-266 -246t-150 -365q-32 -157 -9.5 -285.5t84.5 -220t164.5 -142t231.5 -50.5z" />
    <glyph glyph-name="Ocircumflex" unicode="&#xd4;" horiz-adv-x="1468" 
d="M1022 1898l139 -212h-80l-102 165h-2l-168 -165h-82l219 212h76zM627 -23q-198 0 -333.5 97t-186 269t-7.5 390q42 218 159 389.5t289.5 268t371.5 96.5q198 0 333.5 -96.5t186 -268t8.5 -389.5q-43 -218 -160 -390t-290 -269t-371 -97zM637 35q172 0 327.5 86.5
t266.5 246.5t151 365q31 157 8.5 285.5t-85 220t-165 141.5t-231.5 50q-172 0 -327 -86t-266 -246t-150 -365q-32 -157 -9.5 -285.5t84.5 -220t164.5 -142t231.5 -50.5z" />
    <glyph glyph-name="Otilde" unicode="&#xd5;" horiz-adv-x="1468" 
d="M846 1858q38 0 74.5 -17t60 -37.5t53.5 -37.5t56 -17q67 0 96 109h61q-20 -80 -63.5 -121t-104.5 -41q-46 0 -90 27t-82 54t-71 27q-68 0 -97 -108h-61q20 79 63.5 120.5t104.5 41.5zM627 -23q-198 0 -333.5 97t-186 269t-7.5 390q42 218 159 389.5t289.5 268t371.5 96.5
q198 0 333.5 -96.5t186 -268t8.5 -389.5q-43 -218 -160 -390t-290 -269t-371 -97zM637 35q172 0 327.5 86.5t266.5 246.5t151 365q31 157 8.5 285.5t-85 220t-165 141.5t-231.5 50q-172 0 -327 -86t-266 -246t-150 -365q-32 -157 -9.5 -285.5t84.5 -220t164.5 -142
t231.5 -50.5z" />
    <glyph glyph-name="Odieresis" unicode="&#xd6;" horiz-adv-x="1468" 
d="M737 1788q5 28 26 46.5t52 18.5t45.5 -18.5t9.5 -46.5q-6 -28 -27 -47t-52 -19t-45.5 19.5t-8.5 46.5zM1055 1788q5 28 26 46.5t52 18.5t45.5 -18.5t9.5 -46.5q-6 -28 -27.5 -47t-52.5 -19t-45 19.5t-8 46.5zM627 -23q-198 0 -333.5 97t-186 269t-7.5 390
q42 218 159 389.5t289.5 268t371.5 96.5q198 0 333.5 -96.5t186 -268t8.5 -389.5q-43 -218 -160 -390t-290 -269t-371 -97zM637 35q172 0 327.5 86.5t266.5 246.5t151 365q31 157 8.5 285.5t-85 220t-165 141.5t-231.5 50q-172 0 -327 -86t-266 -246t-150 -365
q-32 -157 -9.5 -285.5t84.5 -220t164.5 -142t231.5 -50.5z" />
    <glyph glyph-name="multiply" unicode="&#xd7;" horiz-adv-x="1034" 
d="M975 993l-391 -327l264 -328l-51 -43l-265 328l-391 -328l-35 43l392 328l-265 327l52 43l264 -327l391 327z" />
    <glyph glyph-name="Oslash" unicode="&#xd8;" horiz-adv-x="1507" 
d="M1618 1415l-207 -180q111 -202 55 -502q-43 -218 -160 -390t-290 -269t-371 -97q-147 0 -260 54t-182 153l-203 -174l-33 43l205 178q-112 203 -53 502q42 218 158.5 389.5t289 268t371.5 96.5q147 0 259.5 -53t184.5 -152l199 174zM184 733q-52 -266 45 -452l1096 954
q-64 93 -166 144t-231 51q-172 0 -327.5 -86t-266.5 -246t-150 -365zM1401 733q52 267 -45 453l-1100 -953q63 -96 165.5 -147t233.5 -51q172 0 327.5 86.5t267 246.5t151.5 365z" />
    <glyph glyph-name="Ugrave" unicode="&#xd9;" horiz-adv-x="1275" 
d="M760 1888l92 -254h-59l-117 254h84zM1157 508q-103 -531 -629 -531q-527 0 -424 531l187 956h65l-186 -956q-46 -239 45.5 -356t323.5 -117q463 0 553 473l186 956h65z" />
    <glyph glyph-name="Uacute" unicode="&#xda;" horiz-adv-x="1275" 
d="M1010 1888h84l-215 -254h-60zM1157 508q-103 -531 -629 -531q-527 0 -424 531l187 956h65l-186 -956q-46 -239 45.5 -356t323.5 -117q463 0 553 473l186 956h65z" />
    <glyph glyph-name="Ucircumflex" unicode="&#xdb;" horiz-adv-x="1275" 
d="M924 1898l139 -212h-80l-102 165h-2l-168 -165h-82l219 212h76zM1157 508q-103 -531 -629 -531q-527 0 -424 531l187 956h65l-186 -956q-46 -239 45.5 -356t323.5 -117q463 0 553 473l186 956h65z" />
    <glyph glyph-name="Udieresis" unicode="&#xdc;" horiz-adv-x="1275" 
d="M639 1788q5 28 26 46.5t52 18.5t45.5 -18.5t9.5 -46.5q-6 -28 -27.5 -47t-52.5 -19t-45 19.5t-8 46.5zM956 1788q5 28 26 46.5t52 18.5t46 -19t10 -46q-6 -28 -27.5 -47t-52.5 -19t-45.5 19.5t-8.5 46.5zM1157 508q-103 -531 -629 -531q-527 0 -424 531l187 956h65
l-186 -956q-46 -239 45.5 -356t323.5 -117q463 0 553 473l186 956h65z" />
    <glyph glyph-name="Yacute" unicode="&#xdd;" horiz-adv-x="1140" 
d="M932 1888h84l-215 -254h-60zM166 1464h76l340 -792h4l651 792h76l-711 -864l-117 -600h-65l117 600z" />
    <glyph glyph-name="Thorn" unicode="&#xde;" horiz-adv-x="1169" 
d="M27 0l284 1464h66l-43 -225h454q461 0 381 -416q-80 -415 -542 -415h-455l-80 -408h-65zM322 1182l-140 -717h473q180 0 296.5 88t152.5 270t-46.5 270.5t-262.5 88.5h-473z" />
    <glyph glyph-name="germandbls" unicode="&#xdf;" horiz-adv-x="942" 
d="M264 1032l-201 -1032h-61l209 1073q39 200 152.5 307t302.5 107q69 0 125 -19.5t96.5 -61.5t54 -106.5t-1.5 -154.5q-49 -249 -272 -332v-4q136 -43 193.5 -142.5t25.5 -269.5q-36 -182 -159.5 -301t-283.5 -119q-107 0 -178 29l10 53q121 -33 215 -22t163 63.5
t111 127.5t60 169q12 76 7 134t-31 101t-59.5 72t-78 47t-86.5 25.5t-85 7.5h-58l12 54h52q65 0 125 18t112 54t90 96.5t54 138.5q24 128 -34.5 208.5t-189.5 80.5q-173 0 -263 -103t-128 -299z" />
    <glyph glyph-name="agrave" unicode="&#xe0;" horiz-adv-x="1007" 
d="M537 1477l92 -254h-60l-116 254h84zM829 780q22 115 -44 174.5t-193 59.5q-155 0 -253.5 -68.5t-129.5 -189.5h-62q16 59 47 110.5t83.5 98.5t135.5 74.5t189 27.5q59 0 107 -10.5t88.5 -33.5t63 -60.5t31.5 -92t-7 -127.5l-105 -532q-16 -82 -11 -110q12 -75 136 -50
l-10 -53q-39 -8 -70 -8q-80 0 -106.5 41.5t-7.5 140.5h-4q-156 -195 -422 -195q-152 0 -231 76t-54 203q29 145 136 219t321 105q22 3 60.5 8t61.5 8.5t57 10.5t55 15t47 22t41.5 32t29.5 44.5t20 59.5zM311 31q91 0 170.5 28.5t132 73t85 93.5t42.5 96l60 311
q-29 -46 -110 -68.5t-224 -38.5q-82 -10 -145.5 -26.5t-118.5 -45t-90 -74t-47 -106.5q-23 -121 40 -182t205 -61z" />
    <glyph glyph-name="aacute" unicode="&#xe1;" horiz-adv-x="1007" 
d="M786 1477h84l-215 -254h-59zM829 780q22 115 -44 174.5t-193 59.5q-155 0 -253.5 -68.5t-129.5 -189.5h-62q16 59 47 110.5t83.5 98.5t135.5 74.5t189 27.5q59 0 107 -10.5t88.5 -33.5t63 -60.5t31.5 -92t-7 -127.5l-105 -532q-16 -82 -11 -110q12 -75 136 -50l-10 -53
q-39 -8 -70 -8q-80 0 -106.5 41.5t-7.5 140.5h-4q-156 -195 -422 -195q-152 0 -231 76t-54 203q29 145 136 219t321 105q22 3 60.5 8t61.5 8.5t57 10.5t55 15t47 22t41.5 32t29.5 44.5t20 59.5zM311 31q91 0 170.5 28.5t132 73t85 93.5t42.5 96l60 311q-29 -46 -110 -68.5
t-224 -38.5q-82 -10 -145.5 -26.5t-118.5 -45t-90 -74t-47 -106.5q-23 -121 40 -182t205 -61z" />
    <glyph glyph-name="acircumflex" unicode="&#xe2;" horiz-adv-x="1007" 
d="M700 1487l140 -213h-80l-103 166h-2l-168 -166h-81l219 213h75zM829 780q22 115 -44 174.5t-193 59.5q-155 0 -253.5 -68.5t-129.5 -189.5h-62q16 59 47 110.5t83.5 98.5t135.5 74.5t189 27.5q59 0 107 -10.5t88.5 -33.5t63 -60.5t31.5 -92t-7 -127.5l-105 -532
q-16 -82 -11 -110q12 -75 136 -50l-10 -53q-39 -8 -70 -8q-80 0 -106.5 41.5t-7.5 140.5h-4q-156 -195 -422 -195q-152 0 -231 76t-54 203q29 145 136 219t321 105q22 3 60.5 8t61.5 8.5t57 10.5t55 15t47 22t41.5 32t29.5 44.5t20 59.5zM311 31q91 0 170.5 28.5t132 73
t85 93.5t42.5 96l60 311q-29 -46 -110 -68.5t-224 -38.5q-82 -10 -145.5 -26.5t-118.5 -45t-90 -74t-47 -106.5q-23 -121 40 -182t205 -61z" />
    <glyph glyph-name="atilde" unicode="&#xe3;" horiz-adv-x="1007" 
d="M524 1446q38 0 74.5 -17t60 -37.5t53.5 -37.5t56 -17q67 0 96 109h62q-20 -80 -63.5 -121t-104.5 -41q-37 0 -73 17t-60 37.5t-54.5 37.5t-56.5 17q-67 0 -96 -109h-62q20 79 63.5 120.5t104.5 41.5zM829 780q22 115 -44 174.5t-193 59.5q-155 0 -253.5 -68.5
t-129.5 -189.5h-62q16 59 47 110.5t83.5 98.5t135.5 74.5t189 27.5q59 0 107 -10.5t88.5 -33.5t63 -60.5t31.5 -92t-7 -127.5l-105 -532q-16 -82 -11 -110q12 -75 136 -50l-10 -53q-39 -8 -70 -8q-80 0 -106.5 41.5t-7.5 140.5h-4q-156 -195 -422 -195q-152 0 -231 76
t-54 203q29 145 136 219t321 105q22 3 60.5 8t61.5 8.5t57 10.5t55 15t47 22t41.5 32t29.5 44.5t20 59.5zM311 31q91 0 170.5 28.5t132 73t85 93.5t42.5 96l60 311q-29 -46 -110 -68.5t-224 -38.5q-82 -10 -145.5 -26.5t-118.5 -45t-90 -74t-47 -106.5q-23 -121 40 -182
t205 -61z" />
    <glyph glyph-name="adieresis" unicode="&#xe4;" horiz-adv-x="1007" 
d="M416 1376q5 28 26 47t52 19t45.5 -19t9.5 -47q-6 -27 -28.5 -46t-53.5 -19t-44 18.5t-7 46.5zM733 1376q5 28 26 47t52 19t45.5 -19t9.5 -47q-6 -27 -28.5 -46t-53.5 -19t-44 18.5t-7 46.5zM829 780q22 115 -44 174.5t-193 59.5q-155 0 -253.5 -68.5t-129.5 -189.5h-62
q16 59 47 110.5t83.5 98.5t135.5 74.5t189 27.5q59 0 107 -10.5t88.5 -33.5t63 -60.5t31.5 -92t-7 -127.5l-105 -532q-16 -82 -11 -110q12 -75 136 -50l-10 -53q-39 -8 -70 -8q-80 0 -106.5 41.5t-7.5 140.5h-4q-156 -195 -422 -195q-152 0 -231 76t-54 203q29 145 136 219
t321 105q22 3 60.5 8t61.5 8.5t57 10.5t55 15t47 22t41.5 32t29.5 44.5t20 59.5zM311 31q91 0 170.5 28.5t132 73t85 93.5t42.5 96l60 311q-29 -46 -110 -68.5t-224 -38.5q-82 -10 -145.5 -26.5t-118.5 -45t-90 -74t-47 -106.5q-23 -121 40 -182t205 -61z" />
    <glyph glyph-name="aring" unicode="&#xe5;" horiz-adv-x="1007" 
d="M604 1188q-70 0 -108 45.5t-25 118.5q13 72 70.5 120t126.5 48q71 0 109.5 -48t25.5 -120t-70 -118t-129 -46zM612 1237q55 0 92 31.5t46 83.5q11 52 -13.5 84t-79.5 32q-54 0 -89 -31.5t-46 -84.5q-9 -53 13.5 -84t76.5 -31zM829 780q22 115 -44 174.5t-193 59.5
q-155 0 -253.5 -68.5t-129.5 -189.5h-62q16 59 47 110.5t83.5 98.5t135.5 74.5t189 27.5q59 0 107 -10.5t88.5 -33.5t63 -60.5t31.5 -92t-7 -127.5l-105 -532q-16 -82 -11 -110q12 -75 136 -50l-10 -53q-39 -8 -70 -8q-80 0 -106.5 41.5t-7.5 140.5h-4q-156 -195 -422 -195
q-152 0 -231 76t-54 203q29 145 136 219t321 105q22 3 60.5 8t61.5 8.5t57 10.5t55 15t47 22t41.5 32t29.5 44.5t20 59.5zM311 31q91 0 170.5 28.5t132 73t85 93.5t42.5 96l60 311q-29 -46 -110 -68.5t-224 -38.5q-82 -10 -145.5 -26.5t-118.5 -45t-90 -74t-47 -106.5
q-23 -121 40 -182t205 -61z" />
    <glyph glyph-name="ae" unicode="&#xe6;" horiz-adv-x="1744" 
d="M846 532l-4 -12q-14 -81 -13 -153.5t24.5 -134t62.5 -106.5t102.5 -70t144.5 -25q84 0 158 28t125 72.5t85.5 90.5t53.5 93h62q-65 -153 -191.5 -245.5t-302.5 -92.5q-147 0 -243 77.5t-128 211.5q-50 -86 -115.5 -146.5t-134 -89.5t-127.5 -41t-120 -12
q-152 0 -230.5 83t-50.5 221q26 127 130 194.5t323 104.5q25 5 69 11t70.5 10.5t63 12.5t60 21t48 31.5t39.5 47.5t22 66q23 114 -47.5 174t-210.5 60q-295 0 -362 -258h-62q84 311 435 311q145 0 228.5 -63t80.5 -191q81 125 202 189.5t269 64.5q112 0 190.5 -40.5
t117 -112t49 -169.5t-14.5 -213h-858zM1352 1014q-186 0 -321.5 -125.5t-174.5 -302.5h797q10 64 9.5 125.5t-22 116.5t-56.5 96t-95 65.5t-137 24.5zM311 31q151 0 280 96.5t150 194.5l60 311q-7 -11 -17 -20.5t-25.5 -17.5t-27.5 -14t-35.5 -12.5t-37.5 -10t-44.5 -9
t-44.5 -7.5t-51 -8t-51 -8q-83 -13 -145.5 -31t-118.5 -47t-90.5 -72.5t-46.5 -101.5q-24 -120 39 -181.5t206 -61.5z" />
    <glyph glyph-name="ccedilla" unicode="&#xe7;" horiz-adv-x="995" 
d="M612 1014q-199 0 -330 -127t-169 -330q-14 -65 -10.5 -129t17.5 -122t45.5 -108.5t73 -87.5t99.5 -58t125 -21q85 0 158.5 30t122 78t79.5 100t45 105h62q-42 -155 -171.5 -261t-305.5 -106h-7l-116 -86l-2 -4q94 20 140 -14.5t34 -101.5q-13 -68 -74 -105t-147 -37
q-106 0 -183 54l27 34q68 -41 156 -41q65 0 107.5 23t51.5 68q7 41 -17 60t-79 19q-50 0 -100 -22l-19 31l158 129q-186 28 -279.5 191t-50.5 388q47 242 198.5 373t371.5 131q88 0 161 -32.5t119 -84.5t71 -114.5t25 -126.5h-61q0 38 -10.5 78t-36 81.5t-61.5 73.5t-93 52
t-125 20z" />
    <glyph glyph-name="egrave" unicode="&#xe8;" horiz-adv-x="1021" 
d="M670 1223h-60l-116 254h84zM432 31q84 0 158 28t125 72.5t85.5 90.5t53.5 93h61q-65 -153 -191 -245.5t-302 -92.5q-143 0 -238.5 74.5t-128.5 201.5t-2 284q51 256 206 393t372 137q112 0 190.5 -40.5t117 -112t49 -169.5t-14.5 -213h-858l-4 -12q-14 -81 -13 -153.5
t24.5 -134t62.5 -106.5t102.5 -70t144.5 -25zM621 1014q-186 0 -321.5 -125.5t-174.5 -302.5h797q10 64 9.5 125.5t-22 116.5t-56.5 96t-95 65.5t-137 24.5z" />
    <glyph glyph-name="eacute" unicode="&#xe9;" horiz-adv-x="1021" 
d="M911 1477l-215 -254h-59l190 254h84zM432 31q84 0 158 28t125 72.5t85.5 90.5t53.5 93h61q-65 -153 -191 -245.5t-302 -92.5q-143 0 -238.5 74.5t-128.5 201.5t-2 284q51 256 206 393t372 137q112 0 190.5 -40.5t117 -112t49 -169.5t-14.5 -213h-858l-4 -12
q-14 -81 -13 -153.5t24.5 -134t62.5 -106.5t102.5 -70t144.5 -25zM621 1014q-186 0 -321.5 -125.5t-174.5 -302.5h797q10 64 9.5 125.5t-22 116.5t-56.5 96t-95 65.5t-137 24.5z" />
    <glyph glyph-name="ecircumflex" unicode="&#xea;" horiz-adv-x="1021" 
d="M696 1440l-168 -166h-82l220 213h75l140 -213h-80l-103 166h-2zM432 31q84 0 158 28t125 72.5t85.5 90.5t53.5 93h61q-65 -153 -191 -245.5t-302 -92.5q-143 0 -238.5 74.5t-128.5 201.5t-2 284q51 256 206 393t372 137q112 0 190.5 -40.5t117 -112t49 -169.5t-14.5 -213
h-858l-4 -12q-14 -81 -13 -153.5t24.5 -134t62.5 -106.5t102.5 -70t144.5 -25zM621 1014q-186 0 -321.5 -125.5t-174.5 -302.5h797q10 64 9.5 125.5t-22 116.5t-56.5 96t-95 65.5t-137 24.5z" />
    <glyph glyph-name="edieresis" unicode="&#xeb;" horiz-adv-x="1021" 
d="M508 1311q-31 0 -44 18.5t-7 46.5q5 28 26 47t52 19t45.5 -19t9.5 -47q-6 -27 -28.5 -46t-53.5 -19zM825 1311q-31 0 -44 18.5t-7 46.5q5 28 26 47t52 19t45.5 -19t9.5 -47q-6 -27 -28.5 -46t-53.5 -19zM432 31q84 0 158 28t125 72.5t85.5 90.5t53.5 93h61
q-65 -153 -191 -245.5t-302 -92.5q-143 0 -238.5 74.5t-128.5 201.5t-2 284q51 256 206 393t372 137q112 0 190.5 -40.5t117 -112t49 -169.5t-14.5 -213h-858l-4 -12q-14 -81 -13 -153.5t24.5 -134t62.5 -106.5t102.5 -70t144.5 -25zM621 1014q-186 0 -321.5 -125.5
t-174.5 -302.5h797q10 64 9.5 125.5t-22 116.5t-56.5 96t-95 65.5t-137 24.5z" />
    <glyph glyph-name="igrave" unicode="&#xec;" horiz-adv-x="305" 
d="M211 1477l92 -254h-59l-117 254h84zM238 1053h61l-205 -1053h-61z" />
    <glyph glyph-name="iacute" unicode="&#xed;" horiz-adv-x="331" 
d="M432 1477h84l-215 -254h-59zM209 1053h61l-204 -1053h-62z" />
    <glyph glyph-name="icircumflex" unicode="&#xee;" horiz-adv-x="337" 
d="M383 1487l139 -213h-80l-102 166h-2l-168 -166h-82l219 213h76zM246 1053h61l-205 -1053h-61z" />
    <glyph glyph-name="idieresis" unicode="&#xef;" horiz-adv-x="442" 
d="M147 1376q5 28 26 47t52 19t46 -19t10 -47q-6 -27 -28.5 -46t-53.5 -19t-44.5 18.5t-7.5 46.5zM465 1376q5 28 26 47t52 19t45.5 -19t9.5 -47q-6 -27 -28.5 -46t-53.5 -19t-44 18.5t-7 46.5zM295 1053h61l-204 -1053h-62z" />
    <glyph glyph-name="eth" unicode="&#xf0;" horiz-adv-x="1075" 
d="M858 1290q243 -317 162 -737q-33 -166 -113.5 -294.5t-204.5 -203.5t-274 -75q-144 0 -241 73.5t-131.5 197.5t-4.5 277q45 235 205 391t373 156q122 0 214 -58.5t130 -160.5q-5 188 -180 418l-349 -88l-4 55l314 80q-77 89 -144 143h88q69 -65 121 -127l346 88l4 -55z
M438 33q197 0 335 144.5t181 365.5q26 136 -4.5 244.5t-116.5 171.5t-215 63q-126 0 -233.5 -67.5t-176 -178.5t-95.5 -248q-26 -136 2 -247.5t112 -179.5t211 -68z" />
    <glyph glyph-name="ntilde" unicode="&#xf1;" horiz-adv-x="980" 
d="M537 1393q-68 0 -97 -109h-61q20 79 63.5 120.5t104.5 41.5q38 0 74.5 -17t60 -37.5t53.5 -37.5t56 -17q67 0 96 109h61q-20 -80 -63.5 -121t-104.5 -41q-37 0 -73 17t-59.5 37.5t-54 37.5t-56.5 17zM670 1067q131 0 207.5 -82.5t48.5 -230.5l-148 -754h-61l139 713
q14 59 9.5 113t-24.5 96t-73.5 67t-136.5 25t-161 -29t-131.5 -73.5t-89 -93.5t-44.5 -93l-142 -725h-61l205 1053h61l-37 -187h5q30 35 54.5 58.5t64.5 53t82 47t102.5 30t130.5 12.5z" />
    <glyph glyph-name="ograve" unicode="&#xf2;" horiz-adv-x="1064" 
d="M578 1477l92 -254h-60l-116 254h84zM426 -23q-222 0 -322.5 149t-52.5 396t206 396t380 149t323.5 -149t53.5 -396t-207 -396t-381 -149zM436 31q197 0 335.5 136t180.5 355q28 143 0.5 253.5t-111 174.5t-214.5 64q-197 0 -334.5 -136.5t-179.5 -355.5
q-23 -107 -10.5 -197t51 -155.5t111 -102t171.5 -36.5z" />
    <glyph glyph-name="oacute" unicode="&#xf3;" horiz-adv-x="1064" 
d="M827 1477h84l-215 -254h-59zM426 -23q-222 0 -322.5 149t-52.5 396t206 396t380 149t323.5 -149t53.5 -396t-207 -396t-381 -149zM436 31q197 0 335.5 136t180.5 355q28 143 0.5 253.5t-111 174.5t-214.5 64q-197 0 -334.5 -136.5t-179.5 -355.5q-23 -107 -10.5 -197
t51 -155.5t111 -102t171.5 -36.5z" />
    <glyph glyph-name="ocircumflex" unicode="&#xf4;" horiz-adv-x="1064" 
d="M741 1487l140 -213h-80l-103 166h-2l-168 -166h-82l220 213h75zM426 -23q-222 0 -322.5 149t-52.5 396t206 396t380 149t323.5 -149t53.5 -396t-207 -396t-381 -149zM436 31q197 0 335.5 136t180.5 355q28 143 0.5 253.5t-111 174.5t-214.5 64q-197 0 -334.5 -136.5
t-179.5 -355.5q-23 -107 -10.5 -197t51 -155.5t111 -102t171.5 -36.5z" />
    <glyph glyph-name="otilde" unicode="&#xf5;" horiz-adv-x="1064" 
d="M565 1446q38 0 74.5 -17t60 -37.5t53.5 -37.5t56 -17q67 0 96 109h62q-20 -80 -63.5 -121t-104.5 -41q-37 0 -73 17t-60 37.5t-54.5 37.5t-56.5 17q-67 0 -96 -109h-62q20 79 63.5 120.5t104.5 41.5zM426 -23q-222 0 -322.5 149t-52.5 396t206 396t380 149t323.5 -149
t53.5 -396t-207 -396t-381 -149zM436 31q197 0 335.5 136t180.5 355q28 143 0.5 253.5t-111 174.5t-214.5 64q-197 0 -334.5 -136.5t-179.5 -355.5q-23 -107 -10.5 -197t51 -155.5t111 -102t171.5 -36.5z" />
    <glyph glyph-name="odieresis" unicode="&#xf6;" horiz-adv-x="1064" 
d="M457 1376q5 28 26 47t52 19t45.5 -19t9.5 -47q-6 -27 -28.5 -46t-53.5 -19t-44 18.5t-7 46.5zM774 1376q5 28 26 47t52 19t45.5 -19t9.5 -47q-6 -27 -28.5 -46t-53.5 -19t-44 18.5t-7 46.5zM426 -23q-222 0 -322.5 149t-52.5 396t206 396t380 149t323.5 -149t53.5 -396
t-207 -396t-381 -149zM436 31q197 0 335.5 136t180.5 355q28 143 0.5 253.5t-111 174.5t-214.5 64q-197 0 -334.5 -136.5t-179.5 -355.5q-23 -107 -10.5 -197t51 -155.5t111 -102t171.5 -36.5z" />
    <glyph glyph-name="divide" unicode="&#xf7;" horiz-adv-x="1060" 
d="M606 930q-69 0 -57 63q12 64 82 64q33 0 48 -17t9 -47t-27.5 -46.5t-54.5 -16.5zM125 641l10 57h852l-10 -57h-852zM481 283q-69 0 -57 63q12 64 82 64q33 0 48 -17t9 -47t-27.5 -46.5t-54.5 -16.5z" />
    <glyph glyph-name="oslash" unicode="&#xf8;" horiz-adv-x="1126" 
d="M1171 1022l-180 -158q63 -142 23 -342q-48 -247 -207 -396t-381 -149q-199 0 -303 123l-137 -120l-33 43l139 122q-87 149 -41 377q48 247 206 396t380 149q224 0 328 -154l172 152zM113 522q-41 -202 28 -334l772 680q-84 146 -286 146q-197 0 -334.5 -136.5
t-179.5 -355.5zM952 522q34 168 -12 295l-768 -674q86 -112 264 -112q197 0 335.5 136t180.5 355z" />
    <glyph glyph-name="ugrave" unicode="&#xf9;" horiz-adv-x="985" 
d="M621 1223h-60l-117 254h84zM913 1053h62l-205 -1053h-61l36 186h-4q-38 -44 -71 -73t-85 -61.5t-122 -49t-156 -16.5q-131 0 -207.5 82.5t-48.5 230.5l148 754h61l-139 -713q-14 -58 -9.5 -112.5t24.5 -96.5t73.5 -67t136.5 -25t161 29t131.5 73.5t89 93.5t44.5 93z" />
    <glyph glyph-name="uacute" unicode="&#xfa;" horiz-adv-x="985" 
d="M862 1477l-215 -254h-59l190 254h84zM913 1053h62l-205 -1053h-61l36 186h-4q-38 -44 -71 -73t-85 -61.5t-122 -49t-156 -16.5q-131 0 -207.5 82.5t-48.5 230.5l148 754h61l-139 -713q-14 -58 -9.5 -112.5t24.5 -96.5t73.5 -67t136.5 -25t161 29t131.5 73.5t89 93.5
t44.5 93z" />
    <glyph glyph-name="ucircumflex" unicode="&#xfb;" horiz-adv-x="985" 
d="M647 1440l-168 -166h-82l219 213h76l139 -213h-79l-103 166h-2zM913 1053h62l-205 -1053h-61l36 186h-4q-38 -44 -71 -73t-85 -61.5t-122 -49t-156 -16.5q-131 0 -207.5 82.5t-48.5 230.5l148 754h61l-139 -713q-14 -58 -9.5 -112.5t24.5 -96.5t73.5 -67t136.5 -25
t161 29t131.5 73.5t89 93.5t44.5 93z" />
    <glyph glyph-name="udieresis" unicode="&#xfc;" horiz-adv-x="985" 
d="M459 1311q-31 0 -44 18.5t-7 46.5q5 28 25.5 47t51.5 19t46 -19t10 -47q-6 -27 -28.5 -46t-53.5 -19zM776 1311q-31 0 -44 18.5t-7 46.5q5 28 26 47t52 19t45.5 -19t9.5 -47q-6 -27 -28.5 -46t-53.5 -19zM913 1053h62l-205 -1053h-61l36 186h-4q-38 -44 -71 -73
t-85 -61.5t-122 -49t-156 -16.5q-131 0 -207.5 82.5t-48.5 230.5l148 754h61l-139 -713q-14 -58 -9.5 -112.5t24.5 -96.5t73.5 -67t136.5 -25t161 29t131.5 73.5t89 93.5t44.5 93z" />
    <glyph glyph-name="yacute" unicode="&#xfd;" horiz-adv-x="907" 
d="M737 1477h84l-215 -254h-59zM985 1053l-625 -1088q-35 -60 -55 -93t-48.5 -75t-50 -63.5t-49 -42.5t-57 -29t-63.5 -8q-61 0 -119 20l10 54h4q38 -8 55.5 -10.5t50 -4.5t57.5 6.5t46 26.5q38 32 88.5 106.5t85.5 151.5l-211 1049h66l192 -965h3l555 965h65z" />
    <glyph glyph-name="thorn" unicode="&#xfe;" horiz-adv-x="1069" 
d="M670 1067q194 0 294 -147t52 -398q-50 -251 -206.5 -398t-350.5 -147q-144 0 -229.5 80t-110.5 205h-4l-117 -602h-61l350 1804h61l-133 -688h4q74 131 189.5 211t261.5 80zM455 31q180 0 317 132t182 359q44 227 -42.5 359.5t-266.5 132.5q-159 0 -297.5 -135
t-181.5 -357q-44 -222 43 -356.5t246 -134.5z" />
    <glyph glyph-name="ydieresis" unicode="&#xff;" horiz-adv-x="907" 
d="M367 1376q5 28 25.5 47t51.5 19t46 -19t10 -47q-6 -27 -28.5 -46t-53.5 -19t-44 18.5t-7 46.5zM684 1376q5 28 26 47t52 19t45.5 -19t9.5 -47q-6 -27 -28.5 -46t-53.5 -19t-44 18.5t-7 46.5zM985 1053l-625 -1088q-35 -60 -55 -93t-48.5 -75t-50 -63.5t-49 -42.5t-57 -29
t-63.5 -8q-61 0 -119 20l10 54h4q38 -8 55.5 -10.5t50 -4.5t57.5 6.5t46 26.5q38 32 88.5 106.5t85.5 151.5l-211 1049h66l192 -965h3l555 965h65z" />
    <glyph glyph-name="Amacron" unicode="&#x100;" horiz-adv-x="1239" 
d="M614 1802h467l-10 -53h-467zM956 498h-688l-288 -498h-66l846 1464h78l280 -1464h-65zM301 555h645l-160 834h-4z" />
    <glyph glyph-name="amacron" unicode="&#x101;" horiz-adv-x="1007" 
d="M410 1391h467l-11 -54h-467zM829 780q22 115 -44 174.5t-193 59.5q-155 0 -253.5 -68.5t-129.5 -189.5h-62q16 59 47 110.5t83.5 98.5t135.5 74.5t189 27.5q59 0 107 -10.5t88.5 -33.5t63 -60.5t31.5 -92t-7 -127.5l-105 -532q-16 -82 -11 -110q12 -75 136 -50l-10 -53
q-39 -8 -70 -8q-80 0 -106.5 41.5t-7.5 140.5h-4q-156 -195 -422 -195q-152 0 -231 76t-54 203q29 145 136 219t321 105q22 3 60.5 8t61.5 8.5t57 10.5t55 15t47 22t41.5 32t29.5 44.5t20 59.5zM311 31q91 0 170.5 28.5t132 73t85 93.5t42.5 96l60 311q-29 -46 -110 -68.5
t-224 -38.5q-82 -10 -145.5 -26.5t-118.5 -45t-90 -74t-47 -106.5q-23 -121 40 -182t205 -61z" />
    <glyph glyph-name="Abreve" unicode="&#x102;" horiz-adv-x="1239" 
d="M825 1677q-101 0 -153 64t-41 155h57q-2 -67 35 -116t113 -49q77 0 133 48.5t82 116.5h57q-24 -91 -102 -155t-181 -64zM956 498h-688l-288 -498h-66l846 1464h78l280 -1464h-65zM301 555h645l-160 834h-4z" />
    <glyph glyph-name="abreve" unicode="&#x103;" horiz-adv-x="1007" 
d="M621 1266q-102 0 -154 64t-41 155h57q-2 -68 35 -117t113 -49q77 0 133 49t82 117h57q-25 -91 -102 -155t-180 -64zM829 780q22 115 -44 174.5t-193 59.5q-155 0 -253.5 -68.5t-129.5 -189.5h-62q16 59 47 110.5t83.5 98.5t135.5 74.5t189 27.5q59 0 107 -10.5
t88.5 -33.5t63 -60.5t31.5 -92t-7 -127.5l-105 -532q-16 -82 -11 -110q12 -75 136 -50l-10 -53q-39 -8 -70 -8q-80 0 -106.5 41.5t-7.5 140.5h-4q-156 -195 -422 -195q-152 0 -231 76t-54 203q29 145 136 219t321 105q22 3 60.5 8t61.5 8.5t57 10.5t55 15t47 22t41.5 32
t29.5 44.5t20 59.5zM311 31q91 0 170.5 28.5t132 73t85 93.5t42.5 96l60 311q-29 -46 -110 -68.5t-224 -38.5q-82 -10 -145.5 -26.5t-118.5 -45t-90 -74t-47 -106.5q-23 -121 40 -182t205 -61z" />
    <glyph glyph-name="Aogonek" unicode="&#x104;" horiz-adv-x="1239" 
d="M1085 -281h7l-9 -49q-49 -22 -114 -22q-92 0 -131.5 42t-26.5 111q13 61 73.5 114t141.5 87h27l-97 496h-688l-288 -498h-66l846 1464h78l280 -1464h-35q-97 -49 -147 -95t-62 -102q-8 -47 18 -75.5t89 -28.5q57 0 104 20zM301 555h645l-160 834h-4z" />
    <glyph glyph-name="aogonek" unicode="&#x105;" horiz-adv-x="1007" 
d="M889 -281h6l-8 -49q-50 -22 -115 -22q-92 0 -131.5 42t-26.5 111q11 56 64.5 105.5t126.5 83.5q-68 6 -89.5 48t-4.5 134h-4q-156 -195 -422 -195q-152 0 -231 76t-54 203q29 145 136 219t321 105q22 3 60.5 8t61.5 8.5t57 10.5t55 15t47 22t41.5 32t29.5 44.5t20 59.5
q22 115 -44 174.5t-193 59.5q-155 0 -253.5 -68.5t-129.5 -189.5h-62q16 59 47 110.5t83.5 98.5t135.5 74.5t189 27.5q59 0 107 -10.5t88.5 -33.5t63 -60.5t31.5 -92t-7 -127.5l-105 -532q-16 -82 -11 -110q12 -75 136 -50l-10 -53q-3 -1 -10 -2t-11 -2
q-89 -46 -137.5 -91.5t-58.5 -99.5q-8 -47 17.5 -75.5t88.5 -28.5q58 0 105 20zM741 322l60 311q-29 -46 -110 -68.5t-224 -38.5q-82 -10 -145.5 -26.5t-118.5 -45t-90 -74t-47 -106.5q-23 -121 40 -182t205 -61q91 0 170.5 28.5t132 73t85 93.5t42.5 96z" />
    <glyph glyph-name="Cacute" unicode="&#x106;" horiz-adv-x="1349" 
d="M1110 1888h84l-215 -254h-59zM1317 1032q6 172 -104.5 285t-303.5 113q-141 0 -266.5 -53.5t-219.5 -147.5t-160 -221.5t-95 -276.5q-39 -203 1 -360t159 -246.5t303 -89.5q107 0 207.5 38.5t177.5 104t134 149.5t87 177h66q-74 -233 -263 -380t-419 -147
q-198 0 -331 93.5t-182.5 265t-5.5 395.5q32 165 107 304.5t180.5 239.5t242.5 156t288 56q218 0 342.5 -126t119.5 -329h-65z" />
    <glyph glyph-name="cacute" unicode="&#x107;" horiz-adv-x="995" 
d="M829 1477h84l-215 -254h-59zM938 709q0 38 -10.5 78t-36 81.5t-61.5 73.5t-93 52t-125 20q-199 0 -330 -127t-169 -330q-14 -65 -10.5 -129t17.5 -122t45.5 -108.5t73 -87.5t99.5 -58t125 -21q85 0 158.5 30t122 78t79.5 100t45 105h62q-42 -155 -171.5 -261t-305.5 -106
q-142 0 -245 77.5t-144.5 212t-10.5 296.5q47 242 198.5 373t371.5 131q88 0 161 -32.5t119 -84.5t71 -114.5t25 -126.5h-61z" />
    <glyph glyph-name="Cdotaccent" unicode="&#x10a;" horiz-adv-x="1349" 
d="M899 1788q5 28 26 46.5t52 18.5t45.5 -18.5t9.5 -46.5q-6 -28 -27.5 -47t-52.5 -19t-45 19.5t-8 46.5zM1317 1032q6 172 -104.5 285t-303.5 113q-141 0 -266.5 -53.5t-219.5 -147.5t-160 -221.5t-95 -276.5q-39 -203 1 -360t159 -246.5t303 -89.5q107 0 207.5 38.5
t177.5 104t134 149.5t87 177h66q-74 -233 -263 -380t-419 -147q-198 0 -331 93.5t-182.5 265t-5.5 395.5q32 165 107 304.5t180.5 239.5t242.5 156t288 56q218 0 342.5 -126t119.5 -329h-65z" />
    <glyph glyph-name="cdotaccent" unicode="&#x10b;" horiz-adv-x="995" 
d="M618 1376q5 28 26 47t52 19t46 -19t10 -47q-6 -27 -28.5 -46t-53.5 -19t-44.5 18.5t-7.5 46.5zM938 709q0 38 -10.5 78t-36 81.5t-61.5 73.5t-93 52t-125 20q-199 0 -330 -127t-169 -330q-14 -65 -10.5 -129t17.5 -122t45.5 -108.5t73 -87.5t99.5 -58t125 -21
q85 0 158.5 30t122 78t79.5 100t45 105h62q-42 -155 -171.5 -261t-305.5 -106q-142 0 -245 77.5t-144.5 212t-10.5 296.5q47 242 198.5 373t371.5 131q88 0 161 -32.5t119 -84.5t71 -114.5t25 -126.5h-61z" />
    <glyph glyph-name="Ccaron" unicode="&#x10c;" horiz-adv-x="1349" 
d="M987 1683h-76l-137 213h82l102 -165h3l167 165h80zM1317 1032q6 172 -104.5 285t-303.5 113q-141 0 -266.5 -53.5t-219.5 -147.5t-160 -221.5t-95 -276.5q-39 -203 1 -360t159 -246.5t303 -89.5q107 0 207.5 38.5t177.5 104t134 149.5t87 177h66q-74 -233 -263 -380
t-419 -147q-198 0 -331 93.5t-182.5 265t-5.5 395.5q32 165 107 304.5t180.5 239.5t242.5 156t288 56q218 0 342.5 -126t119.5 -329h-65z" />
    <glyph glyph-name="ccaron" unicode="&#x10d;" horiz-adv-x="995" 
d="M707 1272h-76l-137 213h81l103 -166h2l168 166h80zM938 709q0 38 -10.5 78t-36 81.5t-61.5 73.5t-93 52t-125 20q-199 0 -330 -127t-169 -330q-14 -65 -10.5 -129t17.5 -122t45.5 -108.5t73 -87.5t99.5 -58t125 -21q85 0 158.5 30t122 78t79.5 100t45 105h62
q-42 -155 -171.5 -261t-305.5 -106q-142 0 -245 77.5t-144.5 212t-10.5 296.5q47 242 198.5 373t371.5 131q88 0 161 -32.5t119 -84.5t71 -114.5t25 -126.5h-61z" />
    <glyph glyph-name="Dcaron" unicode="&#x10e;" horiz-adv-x="1323" 
d="M780 1683h-75l-138 213h82l103 -165h2l168 165h79zM25 0l284 1464h525q104 0 186.5 -26.5t139 -75t93.5 -115t52 -149.5t12 -176.5t-23 -196.5q-31 -156 -93.5 -286.5t-156 -229.5t-224 -154t-285.5 -55h-510zM360 1407l-264 -1350h447q264 0 445 178t241 490
q32 155 20 281t-61 215t-142.5 137.5t-224.5 48.5h-461z" />
    <glyph glyph-name="dcaron" unicode="&#x10f;" horiz-adv-x="1175" 
d="M1339 1473q64 0 41 -111q-34 -176 -153 -209l12 57q61 27 84 140q-29 -9 -45.5 6.5t-9.5 52.5q6 30 25.5 47t45.5 17zM948 776l133 688h62l-285 -1464h-61l51 262h-4q-72 -124 -189 -204.5t-262 -80.5q-126 0 -215 63.5t-125.5 189t-3.5 292.5q32 167 117 292.5
t198.5 189t239.5 63.5q146 0 230.5 -80t109.5 -211h4zM418 31q159 0 298 134.5t183 356.5q22 115 8 206.5t-55.5 155t-104.5 97t-139 33.5q-180 0 -316.5 -132.5t-180.5 -359.5q-45 -227 41 -359t266 -132z" />
    <glyph glyph-name="Dcroat" unicode="&#x110;" horiz-adv-x="1409" 
d="M920 1464q104 0 186.5 -26.5t139 -75t93.5 -115t52 -149.5t12 -176.5t-23 -196.5q-31 -156 -93.5 -286.5t-156 -229.5t-224 -154t-285.5 -55h-510l141 729h-215l12 57h215l131 678h525zM629 57q264 0 445 178t241 490q32 155 20 281t-61 215t-142.5 137.5t-224.5 48.5
h-461l-120 -621h465l-13 -57h-465l-131 -672h447z" />
    <glyph glyph-name="dcroat" unicode="&#x111;" horiz-adv-x="1083" 
d="M1249 1296l-10 -53h-139l-242 -1243h-61l51 262h-4q-72 -124 -189 -204.5t-262 -80.5q-126 0 -215 63.5t-125.5 189t-3.5 292.5q32 167 117 292.5t198.5 189t239.5 63.5q146 0 230.5 -80t109.5 -211h4l90 467h-278l10 53h279l32 168h62l-33 -168h139zM418 31
q159 0 298 134.5t183 356.5q22 115 8 206.5t-55.5 155t-104.5 97t-139 33.5q-180 0 -316.5 -132.5t-180.5 -359.5q-45 -227 41 -359t266 -132z" />
    <glyph glyph-name="Emacron" unicode="&#x112;" horiz-adv-x="1181" 
d="M616 1802h467l-10 -53h-467zM248 807h825l-12 -57h-825l-136 -693h918l-10 -57h-983l284 1464h963l-10 -57h-897z" />
    <glyph glyph-name="emacron" unicode="&#x113;" horiz-adv-x="1021" 
d="M918 1391l-11 -54h-467l11 54h467zM432 31q84 0 158 28t125 72.5t85.5 90.5t53.5 93h61q-65 -153 -191 -245.5t-302 -92.5q-143 0 -238.5 74.5t-128.5 201.5t-2 284q51 256 206 393t372 137q112 0 190.5 -40.5t117 -112t49 -169.5t-14.5 -213h-858l-4 -12
q-14 -81 -13 -153.5t24.5 -134t62.5 -106.5t102.5 -70t144.5 -25zM621 1014q-186 0 -321.5 -125.5t-174.5 -302.5h797q10 64 9.5 125.5t-22 116.5t-56.5 96t-95 65.5t-137 24.5z" />
    <glyph glyph-name="Edotaccent" unicode="&#x116;" horiz-adv-x="1181" 
d="M782 1788q5 28 26 46.5t52 18.5t45.5 -18.5t9.5 -46.5q-6 -28 -27 -47t-52 -19t-45.5 19.5t-8.5 46.5zM248 807h825l-12 -57h-825l-136 -693h918l-10 -57h-983l284 1464h963l-10 -57h-897z" />
    <glyph glyph-name="edotaccent" unicode="&#x117;" horiz-adv-x="1021" 
d="M668 1311q-31 0 -44.5 18.5t-7.5 46.5q5 28 26 47t52 19t46 -19t10 -47q-6 -27 -28.5 -46t-53.5 -19zM432 31q84 0 158 28t125 72.5t85.5 90.5t53.5 93h61q-65 -153 -191 -245.5t-302 -92.5q-143 0 -238.5 74.5t-128.5 201.5t-2 284q51 256 206 393t372 137
q112 0 190.5 -40.5t117 -112t49 -169.5t-14.5 -213h-858l-4 -12q-14 -81 -13 -153.5t24.5 -134t62.5 -106.5t102.5 -70t144.5 -25zM621 1014q-186 0 -321.5 -125.5t-174.5 -302.5h797q10 64 9.5 125.5t-22 116.5t-56.5 96t-95 65.5t-137 24.5z" />
    <glyph glyph-name="Eogonek" unicode="&#x118;" horiz-adv-x="1181" 
d="M1008 -283h6l-8 -49q-53 -22 -117 -22q-92 0 -130.5 42t-25.5 111q11 61 72 113.5t143 87.5h-923l284 1464h963l-10 -57h-897l-117 -600h825l-12 -57h-825l-136 -693h918l-10 -57h2q-99 -49 -151 -96.5t-62 -102.5q-8 -47 17.5 -75.5t88.5 -28.5q58 0 105 20z" />
    <glyph glyph-name="eogonek" unicode="&#x119;" horiz-adv-x="1019" 
d="M53 537q51 256 206 393t372 137q112 0 190.5 -40.5t117 -112t49 -169.5t-14.5 -213h-858l-4 -12q-14 -81 -13 -153.5t24.5 -134t62.5 -106.5t102.5 -70t144.5 -25q84 0 158 28t125 72.5t85.5 90.5t53.5 93h61q-52 -121 -140.5 -204.5t-211.5 -114.5q-184 -94 -203 -195
q-8 -47 18 -75.5t89 -28.5q57 0 104 20h7l-9 -49q-53 -22 -116 -22q-92 0 -130.5 42t-25.5 111q10 52 57.5 99t114.5 82l-47 -3q-143 0 -238.5 74.5t-128.5 201.5t-2 284zM125 586h797q10 64 9.5 125.5t-22 116.5t-56.5 96t-95 65.5t-137 24.5q-186 0 -321.5 -125.5
t-174.5 -302.5z" />
    <glyph glyph-name="Ecaron" unicode="&#x11a;" horiz-adv-x="1181" 
d="M870 1683h-75l-138 213h82l103 -165h2l168 165h80zM248 807h825l-12 -57h-825l-136 -693h918l-10 -57h-983l284 1464h963l-10 -57h-897z" />
    <glyph glyph-name="ecaron" unicode="&#x11b;" horiz-adv-x="1021" 
d="M705 1272h-76l-137 213h81l103 -166h2l168 166h80zM432 31q84 0 158 28t125 72.5t85.5 90.5t53.5 93h61q-65 -153 -191 -245.5t-302 -92.5q-143 0 -238.5 74.5t-128.5 201.5t-2 284q51 256 206 393t372 137q112 0 190.5 -40.5t117 -112t49 -169.5t-14.5 -213h-858l-4 -12
q-14 -81 -13 -153.5t24.5 -134t62.5 -106.5t102.5 -70t144.5 -25zM621 1014q-186 0 -321.5 -125.5t-174.5 -302.5h797q10 64 9.5 125.5t-22 116.5t-56.5 96t-95 65.5t-137 24.5z" />
    <glyph glyph-name="Gbreve" unicode="&#x11e;" horiz-adv-x="1449" 
d="M950 1677q-101 0 -153 64t-41 155h57q-2 -67 35 -116t113 -49q77 0 133 48.5t82 116.5h57q-24 -91 -102 -155t-181 -64zM1350 1047q0 170 -115.5 276.5t-312.5 106.5q-150 0 -280.5 -56.5t-224 -154t-157.5 -222.5t-92 -268q-20 -116 -19 -220t34.5 -191t91 -150t150 -98
t212.5 -35q249 0 427 172t234 461h-507l12 57h573l-141 -725h-53l67 387h-4q-74 -177 -237 -293.5t-381 -116.5q-129 0 -231 37.5t-167.5 104.5t-104 161t-41.5 207t19 242q31 158 103 295t176.5 240.5t246.5 163t304 59.5q226 0 355.5 -118t127.5 -322h-65z" />
    <glyph glyph-name="gbreve" unicode="&#x11f;" horiz-adv-x="1062" 
d="M631 1266q-102 0 -154 64t-41 155h58q-2 -68 34.5 -117t112.5 -49q77 0 133 49t82 117h57q-25 -91 -102 -155t-180 -64zM995 1053h62l-195 -996q-77 -407 -500 -407q-191 0 -295 85.5t-102 211.5h62q8 -104 93.5 -174t252.5 -70q361 0 430 356l49 256h-4
q-67 -115 -187.5 -185.5t-257.5 -70.5q-87 0 -160 33.5t-124.5 100t-69 164.5t5.5 227q25 124 81 219.5t131 151.5t158.5 84t172.5 28q138 0 230 -70t114 -192h4zM428 113q70 0 142.5 28t138.5 81t117.5 142t72.5 199q21 115 5 200t-62.5 140.5t-108 83t-131.5 27.5
q-66 0 -127 -15t-119 -48t-104 -82.5t-81.5 -122t-53.5 -162.5q-42 -221 49.5 -346t261.5 -125z" />
    <glyph glyph-name="Gdotaccent" unicode="&#x120;" horiz-adv-x="1449" 
d="M905 1788q5 28 26 46.5t52 18.5t45.5 -18.5t9.5 -46.5q-6 -28 -27.5 -47t-52.5 -19t-45 19.5t-8 46.5zM1350 1047q0 170 -115.5 276.5t-312.5 106.5q-150 0 -280.5 -56.5t-224 -154t-157.5 -222.5t-92 -268q-20 -116 -19 -220t34.5 -191t91 -150t150 -98t212.5 -35
q249 0 427 172t234 461h-507l12 57h573l-141 -725h-53l67 387h-4q-74 -177 -237 -293.5t-381 -116.5q-129 0 -231 37.5t-167.5 104.5t-104 161t-41.5 207t19 242q31 158 103 295t176.5 240.5t246.5 163t304 59.5q226 0 355.5 -118t127.5 -322h-65z" />
    <glyph glyph-name="gdotaccent" unicode="&#x121;" horiz-adv-x="1062" 
d="M637 1311q-31 0 -44 18.5t-7 46.5q5 28 26 47t52 19t45.5 -19t9.5 -47q-6 -27 -28.5 -46t-53.5 -19zM995 1053h62l-195 -996q-77 -407 -500 -407q-191 0 -295 85.5t-102 211.5h62q8 -104 93.5 -174t252.5 -70q361 0 430 356l49 256h-4q-67 -115 -187.5 -185.5
t-257.5 -70.5q-87 0 -160 33.5t-124.5 100t-69 164.5t5.5 227q25 124 81 219.5t131 151.5t158.5 84t172.5 28q138 0 230 -70t114 -192h4zM428 113q70 0 142.5 28t138.5 81t117.5 142t72.5 199q21 115 5 200t-62.5 140.5t-108 83t-131.5 27.5q-66 0 -127 -15t-119 -48
t-104 -82.5t-81.5 -122t-53.5 -162.5q-42 -221 49.5 -346t261.5 -125z" />
    <glyph glyph-name="Gcommaaccent" unicode="&#x122;" horiz-adv-x="1449" 
d="M1350 1047q0 170 -115.5 276.5t-312.5 106.5q-150 0 -280.5 -56.5t-224 -154t-157.5 -222.5t-92 -268q-20 -116 -19 -220t34.5 -191t91 -150t150 -98t212.5 -35q249 0 427 172t234 461h-507l12 57h573l-141 -725h-53l67 387h-4q-74 -177 -237 -293.5t-381 -116.5
q-129 0 -231 37.5t-167.5 104.5t-104 161t-41.5 207t19 242q31 158 103 295t176.5 240.5t246.5 163t304 59.5q226 0 355.5 -118t127.5 -322h-65zM602 -295q-29 -9 -45.5 6.5t-9.5 52.5q6 30 25.5 47t45.5 17q64 0 41 -111q-34 -176 -153 -209l12 58q61 27 84 139z" />
    <glyph glyph-name="gcommaaccent" unicode="&#x123;" horiz-adv-x="1062" 
d="M643 1241q-63 0 -43 111q5 24 12 47t24 59t47.5 64t70.5 39l-11 -58q-69 -30 -84 -139q29 9 46 -6.5t10 -52.5q-6 -30 -26 -47t-46 -17zM995 1053h62l-195 -996q-77 -407 -500 -407q-191 0 -295 85.5t-102 211.5h62q8 -104 93.5 -174t252.5 -70q361 0 430 356l49 256h-4
q-67 -115 -187.5 -185.5t-257.5 -70.5q-87 0 -160 33.5t-124.5 100t-69 164.5t5.5 227q25 124 81 219.5t131 151.5t158.5 84t172.5 28q138 0 230 -70t114 -192h4zM428 113q70 0 142.5 28t138.5 81t117.5 142t72.5 199q21 115 5 200t-62.5 140.5t-108 83t-131.5 27.5
q-66 0 -127 -15t-119 -48t-104 -82.5t-81.5 -122t-53.5 -162.5q-42 -221 49.5 -346t261.5 -125z" />
    <glyph glyph-name="Hbar" unicode="&#x126;" horiz-adv-x="1323" 
d="M1477 1196l-13 -57h-147l-221 -1139h-66l146 750h-936l-146 -750h-65l221 1139h-141l12 57h141l51 268h66l-51 -268h936l51 268h65l-51 -268h148zM1188 807l63 332h-936l-63 -332h936z" />
    <glyph glyph-name="hbar" unicode="&#x127;" horiz-adv-x="1026" 
d="M715 1067q131 0 207.5 -82.5t48.5 -230.5l-148 -754h-61l139 713q14 59 9.5 113t-24.5 96t-73.5 67t-136.5 25t-161 -29t-131.5 -73.5t-89 -93.5t-44.5 -93l-141 -725h-62l242 1243h-166l10 53h166l33 168h61l-33 -168h238l-10 -53h-238l-74 -377h5q30 35 54.5 58.5
t64.5 53t82 47t102.5 30t130.5 12.5z" />
    <glyph glyph-name="Imacron" unicode="&#x12a;" horiz-adv-x="483" 
d="M244 1802h467l-11 -53h-467zM389 1464h66l-285 -1464h-66z" />
    <glyph glyph-name="imacron" unicode="&#x12b;" horiz-adv-x="425" 
d="M133 1391h467l-10 -54h-467zM287 1053h61l-205 -1053h-61z" />
    <glyph glyph-name="Iogonek" unicode="&#x12e;" horiz-adv-x="362" 
d="M131 -283h6l-8 -49q-53 -22 -117 -22q-91 0 -129.5 41.5t-25.5 111.5q11 61 72 113.5t143 87.5h-6l284 1464h66l-285 -1464h2q-99 -49 -151 -96.5t-62 -102.5q-8 -47 18 -75.5t89 -28.5q57 0 104 20z" />
    <glyph glyph-name="iogonek" unicode="&#x12f;" horiz-adv-x="305" 
d="M299 1311q-31 0 -44 18.5t-7 46.5q5 28 26 47t52 19t45.5 -19t9.5 -47q-6 -27 -28.5 -46t-53.5 -19zM92 -283h6l-8 -49q-53 -22 -117 -22q-91 0 -129.5 41.5t-25.5 111.5q11 61 72 113.5t143 87.5h-2l205 1053h61l-205 -1053h2q-99 -49 -151 -96.5t-62 -102.5
q-8 -47 18 -75.5t89 -28.5q57 0 104 20z" />
    <glyph glyph-name="Idotaccent" unicode="&#x130;" horiz-adv-x="405" 
d="M367 1788q5 28 25.5 46.5t51.5 18.5t46 -19t10 -46q-6 -28 -27.5 -47t-52.5 -19t-45 19.5t-8 46.5zM348 1464h66l-285 -1464h-66z" />
    <glyph glyph-name="dotlessi" unicode="&#x131;" horiz-adv-x="184" 
d="M164 1053h61l-205 -1053h-61z" />
    <glyph glyph-name="Kcommaaccent" unicode="&#x136;" horiz-adv-x="1208" 
d="M311 1464h66l-184 -948l1099 948h86l-725 -626l480 -838h-80l-455 791l-424 -365l-82 -426h-65zM467 -295q-29 -9 -45.5 6.5t-9.5 52.5q6 30 25.5 47t45.5 17q64 0 41 -111q-34 -176 -153 -209l12 58q61 27 84 139z" />
    <glyph glyph-name="kcommaaccent" unicode="&#x137;" horiz-adv-x="897" 
d="M287 1464h61l-192 -989l712 578h86l-499 -404l358 -649h-76l-334 608l-264 -215l-76 -393h-61zM342 -295q-29 -9 -45.5 6.5t-9.5 52.5q6 30 25.5 47t45.5 17q64 0 41 -111q-34 -176 -153 -209l12 58q61 27 84 139z" />
    <glyph glyph-name="Lacute" unicode="&#x139;" horiz-adv-x="1069" 
d="M541 1888h84l-215 -254h-60zM311 1464h66l-275 -1407h840l-10 -57h-905z" />
    <glyph glyph-name="lacute" unicode="&#x13a;" horiz-adv-x="329" 
d="M512 1888h84l-215 -254h-59zM293 1464h61l-284 -1464h-62z" />
    <glyph glyph-name="Lcommaaccent" unicode="&#x13b;" horiz-adv-x="1069" 
d="M311 1464h66l-275 -1407h840l-10 -57h-905zM428 -295q-29 -9 -45.5 6.5t-9.5 52.5q6 30 25.5 47t45.5 17q64 0 41 -111q-34 -176 -153 -209l12 58q61 27 84 139z" />
    <glyph glyph-name="lcommaaccent" unicode="&#x13c;" horiz-adv-x="299" 
d="M283 1464h61l-285 -1464h-61zM-18 -295q-29 -9 -46 6.5t-10 52.5q6 30 26 47t46 17q64 0 41 -111q-34 -175 -154 -209l13 58q61 27 84 139z" />
    <glyph glyph-name="Lcaron" unicode="&#x13d;" horiz-adv-x="1064" 
d="M799 1350q-29 -9 -46 6.5t-10 52.5q6 30 26 47t46 17q64 0 41 -111q-34 -175 -154 -209l13 57q61 27 84 140zM311 1464h66l-275 -1407h840l-10 -57h-905z" />
    <glyph glyph-name="lcaron" unicode="&#x13e;" horiz-adv-x="348" 
d="M500 1350q-29 -9 -46 6.5t-10 52.5q6 30 26 47t46 17q64 0 41 -111q-34 -175 -154 -209l13 57q61 27 84 140zM289 1464h61l-284 -1464h-62z" />
    <glyph glyph-name="Lslash" unicode="&#x141;" horiz-adv-x="1169" 
d="M203 57h839l-10 -57h-905l115 588l-256 -127l12 69l256 127l158 807h65l-149 -772l575 285l-14 -70l-576 -284z" />
    <glyph glyph-name="lslash" unicode="&#x142;" horiz-adv-x="348" 
d="M434 918l-14 -78l-174 -123l-140 -717h-61l129 666l-166 -119l15 78l167 118l140 721h61l-131 -669z" />
    <glyph glyph-name="Nacute" unicode="&#x143;" horiz-adv-x="1345" 
d="M1047 1888h83l-215 -254h-59zM27 0l284 1464h82l668 -1372h4l266 1372h66l-285 -1464h-82l-668 1368h-4l-266 -1368h-65z" />
    <glyph glyph-name="nacute" unicode="&#x144;" horiz-adv-x="980" 
d="M893 1477l-215 -254h-60l191 254h84zM670 1067q131 0 207.5 -82.5t48.5 -230.5l-148 -754h-61l139 713q14 59 9.5 113t-24.5 96t-73.5 67t-136.5 25t-161 -29t-131.5 -73.5t-89 -93.5t-44.5 -93l-142 -725h-61l205 1053h61l-37 -187h5q30 35 54.5 58.5t64.5 53t82 47
t102.5 30t130.5 12.5z" />
    <glyph glyph-name="Ncommaaccent" unicode="&#x145;" horiz-adv-x="1345" 
d="M27 0l284 1464h82l668 -1372h4l266 1372h66l-285 -1464h-82l-668 1368h-4l-266 -1368h-65zM518 -295q-29 -9 -45.5 6.5t-9.5 52.5q6 30 26 47t46 17q63 0 40 -111q-34 -176 -153 -209l12 58q61 27 84 139z" />
    <glyph glyph-name="ncommaaccent" unicode="&#x146;" horiz-adv-x="980" 
d="M670 1067q131 0 207.5 -82.5t48.5 -230.5l-148 -754h-61l139 713q14 59 9.5 113t-24.5 96t-73.5 67t-136.5 25t-161 -29t-131.5 -73.5t-89 -93.5t-44.5 -93l-142 -725h-61l205 1053h61l-37 -187h5q30 35 54.5 58.5t64.5 53t82 47t102.5 30t130.5 12.5zM356 -172
q64 0 41 -111q-34 -176 -153 -209l12 58q61 27 84 139q-29 -9 -45.5 6.5t-9.5 52.5q6 30 25.5 47t45.5 17z" />
    <glyph glyph-name="Ncaron" unicode="&#x147;" horiz-adv-x="1345" 
d="M924 1683h-76l-137 213h82l102 -165h2l168 165h80zM27 0l284 1464h82l668 -1372h4l266 1372h66l-285 -1464h-82l-668 1368h-4l-266 -1368h-65z" />
    <glyph glyph-name="ncaron" unicode="&#x148;" horiz-adv-x="980" 
d="M686 1272h-76l-137 213h82l102 -166h2l168 166h80zM670 1067q131 0 207.5 -82.5t48.5 -230.5l-148 -754h-61l139 713q14 59 9.5 113t-24.5 96t-73.5 67t-136.5 25t-161 -29t-131.5 -73.5t-89 -93.5t-44.5 -93l-142 -725h-61l205 1053h61l-37 -187h5q30 35 54.5 58.5
t64.5 53t82 47t102.5 30t130.5 12.5z" />
    <glyph glyph-name="Eng" unicode="&#x14a;" horiz-adv-x="1345" 
d="M27 0l284 1464h82l668 -1372h4l266 1372h66l-277 -1423q-21 -107 -65 -187t-103 -126t-124.5 -68t-137.5 -22q-80 0 -141 20l10 53q205 -38 320 34.5t151 254.5l-668 1368h-4l-266 -1368h-65z" />
    <glyph glyph-name="eng" unicode="&#x14b;" horiz-adv-x="980" 
d="M856 713q14 59 9.5 113t-24.5 96t-73.5 67t-136.5 25t-161 -29t-131.5 -73.5t-89 -93.5t-44.5 -93l-142 -725h-61l205 1053h61l-37 -187h5q30 35 54.5 58.5t64.5 53t82 47t102.5 30t130.5 12.5q131 0 207.5 -82.5t48.5 -230.5l-170 -846q-24 -124 -72.5 -175.5
t-128.5 -51.5q-47 0 -84 6l10 53q105 -20 147 12.5t62 132.5z" />
    <glyph glyph-name="Omacron" unicode="&#x14c;" horiz-adv-x="1468" 
d="M731 1802h467l-10 -53h-467zM627 -23q-198 0 -333.5 97t-186 269t-7.5 390q42 218 159 389.5t289.5 268t371.5 96.5q198 0 333.5 -96.5t186 -268t8.5 -389.5q-43 -218 -160 -390t-290 -269t-371 -97zM637 35q172 0 327.5 86.5t266.5 246.5t151 365q31 157 8.5 285.5
t-85 220t-165 141.5t-231.5 50q-172 0 -327 -86t-266 -246t-150 -365q-32 -157 -9.5 -285.5t84.5 -220t164.5 -142t231.5 -50.5z" />
    <glyph glyph-name="omacron" unicode="&#x14d;" horiz-adv-x="1064" 
d="M451 1391h467l-11 -54h-467zM426 -23q-222 0 -322.5 149t-52.5 396t206 396t380 149t323.5 -149t53.5 -396t-207 -396t-381 -149zM436 31q197 0 335.5 136t180.5 355q28 143 0.5 253.5t-111 174.5t-214.5 64q-197 0 -334.5 -136.5t-179.5 -355.5q-23 -107 -10.5 -197
t51 -155.5t111 -102t171.5 -36.5z" />
    <glyph glyph-name="Ohungarumlaut" unicode="&#x150;" horiz-adv-x="1468" 
d="M967 1888h84l-215 -254h-60zM1227 1888h84l-215 -254h-60zM627 -23q-198 0 -333.5 97t-186 269t-7.5 390q42 218 159 389.5t289.5 268t371.5 96.5q198 0 333.5 -96.5t186 -268t8.5 -389.5q-43 -218 -160 -390t-290 -269t-371 -97zM637 35q172 0 327.5 86.5t266.5 246.5
t151 365q31 157 8.5 285.5t-85 220t-165 141.5t-231.5 50q-172 0 -327 -86t-266 -246t-150 -365q-32 -157 -9.5 -285.5t84.5 -220t164.5 -142t231.5 -50.5z" />
    <glyph glyph-name="ohungarumlaut" unicode="&#x151;" horiz-adv-x="1064" 
d="M686 1477h84l-215 -254h-59zM946 1477h84l-215 -254h-59zM426 -23q-222 0 -322.5 149t-52.5 396t206 396t380 149t323.5 -149t53.5 -396t-207 -396t-381 -149zM436 31q197 0 335.5 136t180.5 355q28 143 0.5 253.5t-111 174.5t-214.5 64q-197 0 -334.5 -136.5
t-179.5 -355.5q-23 -107 -10.5 -197t51 -155.5t111 -102t171.5 -36.5z" />
    <glyph glyph-name="OE" unicode="&#x152;" horiz-adv-x="2150" 
d="M1155 57h838l-11 -57h-903l72 367q-107 -181 -264 -285.5t-332 -104.5q-126 0 -225 56.5t-155.5 156.5t-75 239t15.5 304q31 163 102 303t167.5 239t216.5 155.5t247 56.5q175 0 291.5 -103.5t152.5 -283.5l72 364h883l-11 -57h-817l-116 -600h745l-12 -57h-746zM565 35
q106 0 211.5 51t193.5 141t155.5 221.5t97.5 284.5q39 204 -0.5 364.5t-141 246.5t-243.5 86q-106 0 -211.5 -50.5t-194 -140.5t-156 -221.5t-96.5 -284.5q-31 -157 -14.5 -285.5t69 -220t138.5 -142t192 -50.5z" />
    <glyph glyph-name="oe" unicode="&#x153;" horiz-adv-x="1918" 
d="M1026 532l-4 -12q-14 -81 -13 -153.5t24.5 -134t62.5 -106.5t102.5 -70t144.5 -25q84 0 158 28t125 72.5t85.5 90.5t53.5 93h62q-65 -153 -191.5 -245.5t-302.5 -92.5q-164 0 -263.5 95.5t-117.5 255.5q-76 -163 -213.5 -257t-310.5 -94q-222 0 -322.5 149t-52.5 396
t206 396t380 149q169 0 269.5 -89t119.5 -247q75 164 209.5 250t304.5 86q112 0 190.5 -40.5t117 -112t49 -169.5t-14.5 -213h-858zM438 31q197 0 335.5 136t180.5 355q28 143 0.5 253.5t-111 174.5t-214.5 64q-197 0 -334.5 -136.5t-179.5 -355.5q-23 -107 -10.5 -197
t51 -155.5t111 -102t171.5 -36.5zM1532 1014q-186 0 -321.5 -125.5t-174.5 -302.5h797q10 64 9.5 125.5t-22 116.5t-56.5 96t-95 65.5t-137 24.5z" />
    <glyph glyph-name="Racute" unicode="&#x154;" horiz-adv-x="1198" 
d="M965 1888h84l-215 -254h-60zM27 0l284 1464h574q206 0 304 -102.5t58 -306.5q-30 -155 -135.5 -253t-263.5 -126v-4q74 -9 122 -48.5t67 -97t25.5 -124.5t2 -133.5t-9 -122t-2 -92.5t17.5 -42l-2 -12h-72q-13 12 -13 55t5.5 100t9.5 124t-5.5 131.5t-34 117t-81.5 85
t-143 32.5h-518l-125 -645h-65zM367 1407l-138 -705h469q186 0 318.5 91.5t165.5 261.5q36 182 -51.5 267t-294.5 85h-469z" />
    <glyph glyph-name="racute" unicode="&#x155;" horiz-adv-x="598" 
d="M733 1477l-215 -254h-59l190 254h84zM592 1067q46 0 76 -6l-11 -53h-4q-97 15 -195.5 -26t-172 -129t-95.5 -200l-127 -653h-61l205 1053h61l-43 -205h4q56 92 157 155.5t206 63.5z" />
    <glyph glyph-name="Rcommaaccent" unicode="&#x156;" horiz-adv-x="1198" 
d="M27 0l284 1464h574q206 0 304 -102.5t58 -306.5q-30 -155 -135.5 -253t-263.5 -126v-4q74 -9 122 -48.5t67 -97t25.5 -124.5t2 -133.5t-9 -122t-2 -92.5t17.5 -42l-2 -12h-72q-13 12 -13 55t5.5 100t9.5 124t-5.5 131.5t-34 117t-81.5 85t-143 32.5h-518l-125 -645h-65z
M367 1407l-138 -705h469q186 0 318.5 91.5t165.5 261.5q36 182 -51.5 267t-294.5 85h-469zM477 -295q-29 -9 -45.5 6.5t-9.5 52.5q6 30 26 47t46 17q64 0 41 -111q-34 -175 -154 -209l12 58q61 27 84 139z" />
    <glyph glyph-name="rcommaaccent" unicode="&#x157;" horiz-adv-x="587" 
d="M582 1067q45 0 75 -6l-10 -53h-4q-97 15 -195.5 -26t-172 -129t-95.5 -200l-127 -653h-61l205 1053h61l-43 -205h4q56 92 157 155.5t206 63.5zM-8 -172q64 0 41 -111q-34 -175 -154 -209l12 58q61 27 84 139q-29 -9 -45.5 6.5t-9.5 52.5q6 30 26 47t46 17z" />
    <glyph glyph-name="Rcaron" unicode="&#x158;" horiz-adv-x="1198" 
d="M842 1683h-76l-137 213h82l102 -165h2l168 165h80zM27 0l284 1464h574q206 0 304 -102.5t58 -306.5q-30 -155 -135.5 -253t-263.5 -126v-4q74 -9 122 -48.5t67 -97t25.5 -124.5t2 -133.5t-9 -122t-2 -92.5t17.5 -42l-2 -12h-72q-13 12 -13 55t5.5 100t9.5 124t-5.5 131.5
t-34 117t-81.5 85t-143 32.5h-518l-125 -645h-65zM367 1407l-138 -705h469q186 0 318.5 91.5t165.5 261.5q36 182 -51.5 267t-294.5 85h-469z" />
    <glyph glyph-name="rcaron" unicode="&#x159;" horiz-adv-x="575" 
d="M504 1272h-76l-137 213h82l102 -166h2l168 166h80zM569 1067q46 0 76 -6l-10 -53h-4q-97 15 -195.5 -26t-172 -129t-95.5 -200l-127 -653h-61l204 1053h62l-43 -205h4q57 92 157 155.5t205 63.5z" />
    <glyph glyph-name="Sacute" unicode="&#x15a;" horiz-adv-x="1167" 
d="M944 1888h84l-215 -254h-59zM664 797q124 -53 200 -96.5t134 -100t78 -126t9 -161.5q-20 -166 -157.5 -251t-374.5 -85q-123 0 -225 31t-176.5 90.5t-110.5 155t-23 217.5h66q-19 -211 107 -323.5t372 -112.5q209 0 327.5 78t129.5 209q5 59 -1 104t-33.5 84.5t-54 66
t-91.5 61.5t-114.5 58t-152.5 68q-105 46 -173.5 86.5t-121 93t-70 116.5t-3.5 144q13 77 57 133t112 88t148 47t176 15q137 0 246.5 -47.5t171 -144t45.5 -224.5h-65q10 116 -40 198t-144 121.5t-224 39.5q-114 0 -200.5 -23t-145.5 -76.5t-72 -134.5q-13 -78 4 -134
t80 -103.5t118 -75t178 -80.5q9 -4 14 -6z" />
    <glyph glyph-name="sacute" unicode="&#x15b;" horiz-adv-x="905" 
d="M748 1477h83l-215 -254h-59zM465 588q224 -76 299.5 -159t46.5 -228q-21 -104 -123.5 -164t-243.5 -60q-193 0 -317.5 95t-124.5 256h61q0 -93 53.5 -162t139 -102t190.5 -33t196.5 47.5t109.5 128.5q7 33 7 62t-4 52t-18 44.5t-27.5 37.5t-41 33.5t-50 29.5t-62 28
t-70 27t-80.5 28q-57 19 -92.5 33.5t-79 40.5t-66 54t-35 70.5t-4.5 94.5q17 112 113 168.5t241 56.5q160 0 264.5 -85.5t104.5 -209.5h-61q0 108 -91.5 175t-226.5 67q-44 0 -88 -9.5t-88 -29.5t-74.5 -58.5t-36.5 -89.5q-5 -40 9.5 -74t32.5 -54t65 -43.5t70 -32t85 -29.5
q11 -4 17 -6z" />
    <glyph glyph-name="Scedilla" unicode="&#x15e;" horiz-adv-x="1167" 
d="M698 1487q137 0 246.5 -47.5t171 -144t45.5 -224.5h-65q10 116 -40 198t-144 121.5t-224 39.5q-114 0 -200.5 -23t-145.5 -76.5t-72 -134.5q-13 -78 4 -134t80 -103.5t118 -75t178 -80.5q9 -4 14 -6q124 -53 200 -96.5t134 -100t78 -126t9 -161.5q-20 -166 -157.5 -251
t-374.5 -85h-37l-115 -86l-2 -4q94 20 140 -14.5t34 -101.5q-13 -68 -74 -105t-147 -37q-105 0 -182 54l27 34q68 -41 155 -41q65 0 108 23.5t52 67.5q7 41 -17 60t-79 19q-52 0 -101 -22l-18 31l156 129q-214 25 -335.5 148.5t-99.5 338.5h66q-19 -211 107 -323.5
t372 -112.5q209 0 327.5 78t129.5 209q5 59 -1 104t-33.5 84.5t-54 66t-91.5 61.5t-114.5 58t-152.5 68q-105 46 -173.5 86.5t-121 93t-70 116.5t-3.5 144q13 77 57 133t112 88t148 47t176 15z" />
    <glyph glyph-name="scedilla" unicode="&#x15f;" horiz-adv-x="905" 
d="M465 588q224 -76 299.5 -159t46.5 -228q-21 -104 -123.5 -164t-243.5 -60h-32l-113 -86l-2 -4q94 20 140 -14.5t34 -101.5q-13 -68 -74 -105t-147 -37q-105 0 -182 54l26 34q68 -41 156 -41q65 0 108 23.5t52 67.5q7 41 -17.5 60t-79.5 19q-51 0 -100 -22l-18 31l157 129
q-158 22 -254 113.5t-96 230.5h61q0 -93 53.5 -162t139 -102t190.5 -33t196.5 47.5t109.5 128.5q7 33 7 62t-4 52t-18 44.5t-27.5 37.5t-41 33.5t-50 29.5t-62 28t-70 27t-80.5 28q-57 19 -92.5 33.5t-79 40.5t-66 54t-35 70.5t-4.5 94.5q17 112 113 168.5t241 56.5
q160 0 264.5 -85.5t104.5 -209.5h-61q0 108 -91.5 175t-226.5 67q-44 0 -88 -9.5t-88 -29.5t-74.5 -58.5t-36.5 -89.5q-5 -40 9.5 -74t32.5 -54t65 -43.5t70 -32t85 -29.5q11 -4 17 -6z" />
    <glyph glyph-name="Scaron" unicode="&#x160;" horiz-adv-x="1167" 
d="M821 1683h-76l-137 213h82l103 -165h2l168 165h79zM664 797q124 -53 200 -96.5t134 -100t78 -126t9 -161.5q-20 -166 -157.5 -251t-374.5 -85q-123 0 -225 31t-176.5 90.5t-110.5 155t-23 217.5h66q-19 -211 107 -323.5t372 -112.5q209 0 327.5 78t129.5 209q5 59 -1 104
t-33.5 84.5t-54 66t-91.5 61.5t-114.5 58t-152.5 68q-105 46 -173.5 86.5t-121 93t-70 116.5t-3.5 144q13 77 57 133t112 88t148 47t176 15q137 0 246.5 -47.5t171 -144t45.5 -224.5h-65q10 116 -40 198t-144 121.5t-224 39.5q-114 0 -200.5 -23t-145.5 -76.5t-72 -134.5
q-13 -78 4 -134t80 -103.5t118 -75t178 -80.5q9 -4 14 -6z" />
    <glyph glyph-name="scaron" unicode="&#x161;" horiz-adv-x="905" 
d="M625 1272h-76l-137 213h82l102 -166h2l168 166h80zM465 588q224 -76 299.5 -159t46.5 -228q-21 -104 -123.5 -164t-243.5 -60q-193 0 -317.5 95t-124.5 256h61q0 -93 53.5 -162t139 -102t190.5 -33t196.5 47.5t109.5 128.5q7 33 7 62t-4 52t-18 44.5t-27.5 37.5t-41 33.5
t-50 29.5t-62 28t-70 27t-80.5 28q-57 19 -92.5 33.5t-79 40.5t-66 54t-35 70.5t-4.5 94.5q17 112 113 168.5t241 56.5q160 0 264.5 -85.5t104.5 -209.5h-61q0 108 -91.5 175t-226.5 67q-44 0 -88 -9.5t-88 -29.5t-74.5 -58.5t-36.5 -89.5q-5 -40 9.5 -74t32.5 -54t65 -43.5
t70 -32t85 -29.5q11 -4 17 -6z" />
    <glyph glyph-name="uni0162" unicode="&#x162;" horiz-adv-x="1191" 
d="M520 0l-139 -102v-4q92 20 139 -15t35 -102q-13 -68 -74.5 -105t-148.5 -37q-105 0 -182 54l28 35q65 -41 156 -41q65 0 108 23t50 67q9 41 -15.5 60.5t-79.5 19.5q-48 0 -100 -23l-18 31l176 139h6l274 1407h-522l10 57h1110l-10 -57h-522l-275 -1407h-6z" />
    <glyph glyph-name="uni0163" unicode="&#x163;" horiz-adv-x="540" 
d="M578 999h-232l-141 -727q-6 -30 -8.5 -46t-6 -42.5t-2 -40t5.5 -33t14 -29t25.5 -19.5t37.5 -12t53.5 -0.5t70.5 9.5l-10 -53q-49 -10 -90 -12l-133 -98v-5q92 20 139 -14.5t35 -101.5q-13 -68 -74.5 -105t-148.5 -37q-106 0 -183 54l29 34q64 -40 156 -40
q65 0 106.5 22.5t50.5 67.5q9 41 -15 60t-79 19q-50 0 -100 -22l-19 31l174 137q-139 25 -94 260l146 743h-154l10 54h154l65 340h62l-66 -340h232z" />
    <glyph glyph-name="Tcaron" unicode="&#x164;" horiz-adv-x="1167" 
d="M823 1683h-75l-138 213h82l103 -165h2l168 165h79zM436 0l275 1407h-523l11 57h1110l-11 -57h-522l-274 -1407h-66z" />
    <glyph glyph-name="tcaron" unicode="&#x165;" horiz-adv-x="575" 
d="M629 1370q-29 -9 -46 7t-10 53q6 30 26 46.5t46 16.5q64 0 41 -111q-34 -174 -154 -208l13 57q61 27 84 139zM424 1393l-66 -340h232l-10 -54h-232l-141 -727q-6 -30 -8.5 -46t-6 -42.5t-2 -40t5.5 -33t14 -29t25.5 -19.5t37.5 -12t53.5 -0.5t70.5 9.5l-10 -53
q-59 -12 -115 -12q-31 0 -55 7t-45.5 24t-30.5 46.5t-11.5 75.5t11.5 109l146 743h-154l10 54h154l65 340h62z" />
    <glyph glyph-name="Tbar" unicode="&#x166;" horiz-adv-x="1142" 
d="M1298 1407h-522l-121 -621h396l-13 -57h-395l-141 -729h-66l142 729h-375l12 57h375l121 621h-523l11 57h1110z" />
    <glyph glyph-name="tbar" unicode="&#x167;" horiz-adv-x="565" 
d="M535 649h-254l-74 -377q-6 -30 -8.5 -46t-6 -42.5t-2 -40t5.5 -33t14 -29t25.5 -19.5t37.5 -12t53.5 -0.5t70.5 9.5l-10 -53q-59 -12 -115 -12q-31 0 -55 7t-45.5 24t-30.5 46.5t-11.5 75.5t11.5 109l78 393h-131l10 53h131l58 297h-154l10 54h154l65 340h62l-66 -340
h232l-10 -54h-232l-57 -297h254z" />
    <glyph glyph-name="Umacron" unicode="&#x16a;" horiz-adv-x="1275" 
d="M633 1802h467l-10 -53h-467zM1157 508q-103 -531 -629 -531q-527 0 -424 531l187 956h65l-186 -956q-46 -239 45.5 -356t323.5 -117q463 0 553 473l186 956h65z" />
    <glyph glyph-name="umacron" unicode="&#x16b;" horiz-adv-x="985" 
d="M868 1391l-10 -54h-467l10 54h467zM913 1053h62l-205 -1053h-61l36 186h-4q-38 -44 -71 -73t-85 -61.5t-122 -49t-156 -16.5q-131 0 -207.5 82.5t-48.5 230.5l148 754h61l-139 -713q-14 -58 -9.5 -112.5t24.5 -96.5t73.5 -67t136.5 -25t161 29t131.5 73.5t89 93.5
t44.5 93z" />
    <glyph glyph-name="Uring" unicode="&#x16e;" horiz-adv-x="1275" 
d="M827 1599q-70 0 -108 45.5t-25 118.5q15 72 71.5 120t125.5 48q71 0 110.5 -48.5t24.5 -119.5q-13 -72 -70 -118t-129 -46zM838 1649q55 0 90.5 31t44.5 83q11 52 -13.5 84.5t-78.5 32.5t-89.5 -32t-46.5 -85q-9 -52 15 -83t78 -31zM1157 508q-103 -531 -629 -531
q-527 0 -424 531l187 956h65l-186 -956q-46 -239 45.5 -356t323.5 -117q463 0 553 473l186 956h65z" />
    <glyph glyph-name="uring" unicode="&#x16f;" horiz-adv-x="985" 
d="M596 1188q-70 0 -108 45.5t-25 118.5q13 72 70 120t126 48q71 0 110 -48t26 -120t-70 -118t-129 -46zM649 1468q-54 0 -89 -31.5t-46 -84.5q-9 -53 13.5 -84t76.5 -31q55 0 91.5 31.5t45.5 83.5q11 52 -13.5 84t-78.5 32zM913 1053h62l-205 -1053h-61l36 186h-4
q-38 -44 -71 -73t-85 -61.5t-122 -49t-156 -16.5q-131 0 -207.5 82.5t-48.5 230.5l148 754h61l-139 -713q-14 -58 -9.5 -112.5t24.5 -96.5t73.5 -67t136.5 -25t161 29t131.5 73.5t89 93.5t44.5 93z" />
    <glyph glyph-name="Uhungarumlaut" unicode="&#x170;" horiz-adv-x="1275" 
d="M868 1888h84l-215 -254h-59zM1128 1888h84l-215 -254h-59zM1157 508q-103 -531 -629 -531q-527 0 -424 531l187 956h65l-186 -956q-46 -239 45.5 -356t323.5 -117q463 0 553 473l186 956h65z" />
    <glyph glyph-name="uhungarumlaut" unicode="&#x171;" horiz-adv-x="985" 
d="M721 1477l-215 -254h-60l191 254h84zM981 1477l-215 -254h-59l190 254h84zM913 1053h62l-205 -1053h-61l36 186h-4q-38 -44 -71 -73t-85 -61.5t-122 -49t-156 -16.5q-131 0 -207.5 82.5t-48.5 230.5l148 754h61l-139 -713q-14 -58 -9.5 -112.5t24.5 -96.5t73.5 -67
t136.5 -25t161 29t131.5 73.5t89 93.5t44.5 93z" />
    <glyph glyph-name="Uogonek" unicode="&#x172;" horiz-adv-x="1271" 
d="M1278 1464h65l-186 -956q-82 -423 -430 -508h2q-99 -49 -151 -96.5t-62 -102.5q-8 -47 18 -75.5t89 -28.5q57 0 104 20h6l-8 -49q-53 -22 -117 -22q-91 0 -129.5 41.5t-25.5 111.5q19 103 178 185q-58 -7 -103 -7q-527 0 -424 531l187 956h65l-186 -956
q-46 -239 45.5 -356t323.5 -117q463 0 553 473z" />
    <glyph glyph-name="uogonek" unicode="&#x173;" horiz-adv-x="985" 
d="M766 -283h6l-8 -49q-53 -22 -117 -22q-91 0 -129.5 41.5t-25.5 111.5q11 61 72 113.5t143 87.5h2l36 186h-4q-38 -44 -71 -73t-85 -61.5t-122 -49t-156 -16.5q-131 0 -207.5 82.5t-48.5 230.5l148 754h61l-139 -713q-14 -58 -9.5 -112.5t24.5 -96.5t73.5 -67t136.5 -25
t161 29t131.5 73.5t89 93.5t44.5 93l141 725h62l-205 -1053h-2q-99 -49 -151 -96.5t-62 -102.5q-8 -47 18 -75.5t89 -28.5q57 0 104 20z" />
    <glyph glyph-name="Wcircumflex" unicode="&#x174;" horiz-adv-x="1769" 
d="M1159 1898l139 -212h-79l-103 165h-2l-168 -165h-82l219 212h76zM190 1464h68l96 -1358h2l656 1358h82l127 -1358h2l624 1358h68l-674 -1464h-76l-131 1358h-4l-659 -1358h-76z" />
    <glyph glyph-name="wcircumflex" unicode="&#x175;" horiz-adv-x="1423" 
d="M913 1487l140 -213h-80l-103 166h-2l-168 -166h-82l220 213h75zM113 1053h63l117 -977h2l469 977h84l90 -977h2l498 977h63l-536 -1053h-82l-92 973h-5l-464 -973h-82z" />
    <glyph glyph-name="Ycircumflex" unicode="&#x176;" horiz-adv-x="1140" 
d="M846 1898l139 -212h-80l-102 165h-2l-168 -165h-82l219 212h76zM166 1464h76l340 -792h4l651 792h76l-711 -864l-117 -600h-65l117 600z" />
    <glyph glyph-name="ycircumflex" unicode="&#x177;" horiz-adv-x="907" 
d="M651 1487l140 -213h-80l-103 166h-2l-168 -166h-82l219 213h76zM985 1053l-625 -1088q-35 -60 -55 -93t-48.5 -75t-50 -63.5t-49 -42.5t-57 -29t-63.5 -8q-61 0 -119 20l10 54h4q38 -8 55.5 -10.5t50 -4.5t57.5 6.5t46 26.5q38 32 88.5 106.5t85.5 151.5l-211 1049h66
l192 -965h3l555 965h65z" />
    <glyph glyph-name="Ydieresis" unicode="&#x178;" horiz-adv-x="1140" 
d="M561 1788q5 28 26 46.5t52 18.5t45.5 -18.5t9.5 -46.5q-6 -28 -27.5 -47t-52.5 -19t-45 19.5t-8 46.5zM879 1788q5 28 25.5 46.5t51.5 18.5t46 -19t10 -46q-6 -28 -27.5 -47t-52.5 -19t-45 19.5t-8 46.5zM166 1464h76l340 -792h4l651 792h76l-711 -864l-117 -600h-65
l117 600z" />
    <glyph glyph-name="Zacute" unicode="&#x179;" horiz-adv-x="1196" 
d="M995 1888h84l-215 -254h-59zM281 1464h1024l-11 -57l-1243 -1346l-2 -4h1000l-11 -57h-1081l10 57l1241 1346l2 4h-940z" />
    <glyph glyph-name="zacute" unicode="&#x17a;" horiz-adv-x="899" 
d="M750 1477h84l-216 -254h-59zM-33 53l877 942v4h-660l11 54h737l-10 -54l-877 -942v-4h713l-10 -53h-791z" />
    <glyph glyph-name="Zdotaccent" unicode="&#x17b;" horiz-adv-x="1196" 
d="M784 1788q5 28 26 46.5t52 18.5t46 -19t10 -46q-6 -28 -27.5 -47t-52.5 -19t-45.5 19.5t-8.5 46.5zM281 1464h1024l-11 -57l-1243 -1346l-2 -4h1000l-11 -57h-1081l10 57l1241 1346l2 4h-940z" />
    <glyph glyph-name="zdotaccent" unicode="&#x17c;" horiz-adv-x="899" 
d="M539 1376q5 28 25.5 47t51.5 19t46 -19t10 -47q-6 -27 -28.5 -46t-53.5 -19t-44 18.5t-7 46.5zM-33 53l877 942v4h-660l11 54h737l-10 -54l-877 -942v-4h713l-10 -53h-791z" />
    <glyph glyph-name="Zcaron" unicode="&#x17d;" horiz-adv-x="1196" 
d="M872 1683h-75l-138 213h82l103 -165h2l168 165h80zM281 1464h1024l-11 -57l-1243 -1346l-2 -4h1000l-11 -57h-1081l10 57l1241 1346l2 4h-940z" />
    <glyph glyph-name="zcaron" unicode="&#x17e;" horiz-adv-x="899" 
d="M627 1272h-76l-137 213h82l102 -166h2l168 166h80zM-33 53l877 942v4h-660l11 54h737l-10 -54l-877 -942v-4h713l-10 -53h-791z" />
    <glyph glyph-name="Scommaaccent" unicode="&#x218;" horiz-adv-x="1167" 
d="M664 797q124 -53 200 -96.5t134 -100t78 -126t9 -161.5q-20 -166 -157.5 -251t-374.5 -85q-123 0 -225 31t-176.5 90.5t-110.5 155t-23 217.5h66q-19 -211 107 -323.5t372 -112.5q209 0 327.5 78t129.5 209q5 59 -1 104t-33.5 84.5t-54 66t-91.5 61.5t-114.5 58
t-152.5 68q-105 46 -173.5 86.5t-121 93t-70 116.5t-3.5 144q13 77 57 133t112 88t148 47t176 15q137 0 246.5 -47.5t171 -144t45.5 -224.5h-65q10 116 -40 198t-144 121.5t-224 39.5q-114 0 -200.5 -23t-145.5 -76.5t-72 -134.5q-13 -78 4 -134t80 -103.5t118 -75
t178 -80.5q9 -4 14 -6zM463 -295q-29 -9 -45.5 6.5t-9.5 52.5q6 30 25.5 47t45.5 17q64 0 41 -111q-34 -176 -153 -209l12 58q61 27 84 139z" />
    <glyph glyph-name="scommaaccent" unicode="&#x219;" horiz-adv-x="905" 
d="M465 588q224 -76 299.5 -159t46.5 -228q-21 -104 -123.5 -164t-243.5 -60q-193 0 -317.5 95t-124.5 256h61q0 -93 53.5 -162t139 -102t190.5 -33t196.5 47.5t109.5 128.5q7 33 7 62t-4 52t-18 44.5t-27.5 37.5t-41 33.5t-50 29.5t-62 28t-70 27t-80.5 28
q-57 19 -92.5 33.5t-79 40.5t-66 54t-35 70.5t-4.5 94.5q17 112 113 168.5t241 56.5q160 0 264.5 -85.5t104.5 -209.5h-61q0 108 -91.5 175t-226.5 67q-44 0 -88 -9.5t-88 -29.5t-74.5 -58.5t-36.5 -89.5q-5 -40 9.5 -74t32.5 -54t65 -43.5t70 -32t85 -29.5q11 -4 17 -6z
M360 -295q-29 -9 -45.5 6.5t-9.5 52.5q6 30 26 47t46 17q64 0 41 -111q-34 -175 -154 -209l12 58q61 27 84 139z" />
    <glyph glyph-name="uni021A" unicode="&#x21a;" horiz-adv-x="1167" 
d="M436 0l275 1407h-523l11 57h1110l-11 -57h-522l-274 -1407h-66zM420 -289q-30 -9 -47.5 7t-10.5 53q6 30 26 46.5t46 16.5q33 0 43 -26t0 -84q-34 -175 -153 -209l10 57q63 27 86 139z" />
    <glyph glyph-name="uni021B" unicode="&#x21b;" horiz-adv-x="540" 
d="M578 999h-232l-141 -727q-6 -30 -8.5 -46t-6 -42.5t-2 -40t5.5 -33t14 -29t25.5 -19.5t37.5 -12t53.5 -0.5t70.5 9.5l-10 -53q-58 -12 -115 -12q-31 0 -55 7t-45.5 24t-30.5 46.5t-11.5 75.5t11.5 109l146 743h-154l10 54h154l65 340h62l-66 -340h232zM240 -168
q63 0 43 -111q-5 -24 -12 -47t-24 -58.5t-47.5 -63.5t-70.5 -39l10 57q69 30 84 139q-29 -9 -45.5 7t-9.5 53q6 30 26 46.5t46 16.5z" />
    <glyph glyph-name="circumflex" unicode="&#x2c6;" horiz-adv-x="937" 
d="M684 1487l139 -213h-80l-102 166h-2l-168 -166h-82l219 213h76z" />
    <glyph glyph-name="caron" unicode="&#x2c7;" horiz-adv-x="935" 
d="M647 1272h-76l-137 213h82l102 -166h3l167 166h80z" />
    <glyph glyph-name="breve" unicode="&#x2d8;" horiz-adv-x="989" 
d="M645 1266q-101 0 -153 64t-41 155h57q-2 -68 34.5 -117t112.5 -49q77 0 133 49t82 117h58q-24 -91 -102 -155t-181 -64z" />
    <glyph glyph-name="dotaccent" unicode="&#x2d9;" horiz-adv-x="1015" 
d="M604 1376q5 28 26 47t52 19t45.5 -19t9.5 -47q-6 -27 -28.5 -46t-53.5 -19t-44 18.5t-7 46.5z" />
    <glyph glyph-name="ring" unicode="&#x2da;" horiz-adv-x="995" 
d="M621 1188q-70 0 -108.5 46t-25.5 118t70.5 120t126.5 48q71 0 109.5 -48t25.5 -120t-69.5 -118t-128.5 -46zM629 1237q55 0 91.5 31.5t45.5 83.5q11 52 -13.5 84t-78.5 32t-89 -31.5t-46 -84.5q-9 -53 13.5 -84t76.5 -31z" />
    <glyph glyph-name="ogonek" unicode="&#x2db;" horiz-adv-x="999" 
d="M414 0q-99 -49 -151 -96.5t-62 -102.5q-8 -47 17.5 -75.5t88.5 -28.5q58 0 105 20h6l-8 -49q-53 -22 -117 -22q-92 0 -130.5 42t-25.5 111q11 61 72 113.5t143 87.5h62z" />
    <glyph glyph-name="tilde" unicode="&#x2dc;" horiz-adv-x="1005" 
d="M547 1446q38 0 74.5 -17t60 -37.5t53.5 -37.5t56 -17q67 0 96 109h61q-20 -80 -63.5 -121t-104.5 -41q-37 0 -73 17t-59.5 37.5t-54 37.5t-56.5 17q-68 0 -97 -109h-61q20 79 63.5 120.5t104.5 41.5z" />
    <glyph glyph-name="hungarumlaut" unicode="&#x2dd;" horiz-adv-x="1038" 
d="M612 1477h84l-215 -254h-59zM872 1477h84l-215 -254h-59z" />
    <glyph glyph-name="gravecomb" unicode="&#x300;" 
d="M-18 1477l92 -254h-60l-116 254h84z" />
    <glyph glyph-name="acutecomb" unicode="&#x301;" 
d="M39 1477h84l-215 -254h-60z" />
    <glyph glyph-name="uni0302" unicode="&#x302;" 
d="M-248 1487l139 -213h-79l-103 166h-2l-168 -166h-82l219 213h76z" />
    <glyph glyph-name="tildecomb" unicode="&#x303;" 
d="M-285 1446q38 0 74.5 -17t60 -37.5t53.5 -37.5t56 -17q67 0 96 109h62q-20 -80 -63.5 -121t-104.5 -41q-37 0 -73 17t-60 37.5t-54.5 37.5t-56.5 17q-67 0 -96 -109h-62q20 79 63.5 120.5t104.5 41.5z" />
    <glyph glyph-name="uni0304" unicode="&#x304;" 
d="M-360 1391h466l-10 -54h-467z" />
    <glyph glyph-name="uni0306" unicode="&#x306;" 
d="M-158 1266q-101 0 -153 64t-41 155h57q-2 -68 35 -117t113 -49q77 0 133 49t82 117h57q-24 -91 -102 -155t-181 -64z" />
    <glyph glyph-name="uni0307" unicode="&#x307;" 
d="M-29 1376q5 28 26 47t52 19t45.5 -19t9.5 -47q-6 -28 -28 -46.5t-53 -18.5t-44.5 18.5t-7.5 46.5z" />
    <glyph glyph-name="uni0308" unicode="&#x308;" 
d="M-346 1376q5 28 26 47t52 19t45.5 -19t9.5 -47q-6 -27 -28.5 -46t-53.5 -19t-44 18.5t-7 46.5zM-29 1376q5 28 26 47t52 19t45.5 -19t9.5 -47q-6 -28 -28 -46.5t-53 -18.5t-44.5 18.5t-7.5 46.5z" />
    <glyph glyph-name="uni030A" unicode="&#x30a;" 
d="M-100 1188q-70 0 -108 45.5t-25 118.5q13 72 70 120t126 48q71 0 109.5 -48t25.5 -120t-69.5 -118t-128.5 -46zM-92 1237q55 0 91.5 31.5t45.5 83.5q11 52 -13.5 84t-78.5 32t-89 -31.5t-46 -84.5q-9 -53 13.5 -84t76.5 -31z" />
    <glyph glyph-name="uni030B" unicode="&#x30b;" 
d="M-221 1477h84l-215 -254h-60zM39 1477h84l-215 -254h-60z" />
    <glyph glyph-name="uni030C" unicode="&#x30c;" 
d="M-96 1272h-76l-137 213h82l102 -166h2l168 166h80z" />
    <glyph glyph-name="uni0312" unicode="&#x312;" 
d="M35 1364q29 9 45.5 -6.5t9.5 -52.5q-6 -30 -26 -47t-46 -17q-63 0 -43 111q5 24 12 47t24 59t47.5 64t70.5 39l-10 -58q-69 -30 -84 -139z" />
    <glyph glyph-name="uni0326" unicode="&#x326;" 
d="M-276 -295q-29 -9 -46 6.5t-10 52.5q6 30 26 47t46 17q64 0 41 -111q-34 -175 -154 -209l13 58q61 27 84 139z" />
    <glyph glyph-name="uni0327" unicode="&#x327;" 
d="M-244 -6l-137 -103l-2 -4q94 20 140 -14.5t34 -101.5q-13 -68 -74 -105t-147 -37q-105 0 -182 54l26 34q68 -41 156 -41q65 0 108 23.5t52 67.5q7 41 -17.5 60t-79.5 19q-51 0 -100 -22l-18 31l176 139h65z" />
    <glyph glyph-name="uni0328" unicode="&#x328;" 
d="M-223 0q-99 -49 -151 -96.5t-62 -102.5q-8 -47 17.5 -75.5t88.5 -28.5q58 0 105 20h6l-8 -49q-53 -22 -117 -22q-92 0 -130.5 42t-25.5 111q11 61 72 113.5t143 87.5h62z" />
    <glyph glyph-name="uni0335" unicode="&#x335;" 
d="M-10 786l-13 -57h-835l12 57h836z" />
    <glyph glyph-name="uni0336" unicode="&#x336;" 
d="M-14 766l-13 -57h-1024l13 57h1024z" />
    <glyph glyph-name="uni0337" unicode="&#x337;" 
d="M-1217 25l1184 1042l35 -43l-1186 -1042z" />
    <glyph glyph-name="uni0338" unicode="&#x338;" 
d="M-1217 25l1184 1042l35 -43l-1186 -1042z" />
    <glyph glyph-name="Wgrave" unicode="&#x1e80;" horiz-adv-x="1769" 
d="M995 1888l92 -254h-59l-117 254h84zM190 1464h68l96 -1358h2l656 1358h82l127 -1358h2l624 1358h68l-674 -1464h-76l-131 1358h-4l-659 -1358h-76z" />
    <glyph glyph-name="wgrave" unicode="&#x1e81;" horiz-adv-x="1423" 
d="M750 1477l92 -254h-60l-116 254h84zM113 1053h63l117 -977h2l469 977h84l90 -977h2l498 977h63l-536 -1053h-82l-92 973h-5l-464 -973h-82z" />
    <glyph glyph-name="Wacute" unicode="&#x1e82;" horiz-adv-x="1769" 
d="M1245 1888h84l-215 -254h-59zM190 1464h68l96 -1358h2l656 1358h82l127 -1358h2l624 1358h68l-674 -1464h-76l-131 1358h-4l-659 -1358h-76z" />
    <glyph glyph-name="wacute" unicode="&#x1e83;" horiz-adv-x="1423" 
d="M999 1477h84l-215 -254h-59zM113 1053h63l117 -977h2l469 977h84l90 -977h2l498 977h63l-536 -1053h-82l-92 973h-5l-464 -973h-82z" />
    <glyph glyph-name="Wdieresis" unicode="&#x1e84;" horiz-adv-x="1769" 
d="M874 1788q5 28 26 46.5t52 18.5t46 -19t10 -46q-6 -28 -27.5 -47t-52.5 -19t-45.5 19.5t-8.5 46.5zM1192 1788q5 28 26 46.5t52 18.5t45.5 -18.5t9.5 -46.5q-6 -28 -27.5 -47t-52.5 -19t-45 19.5t-8 46.5zM190 1464h68l96 -1358h2l656 1358h82l127 -1358h2l624 1358h68
l-674 -1464h-76l-131 1358h-4l-659 -1358h-76z" />
    <glyph glyph-name="wdieresis" unicode="&#x1e85;" horiz-adv-x="1423" 
d="M629 1376q5 28 26 47t52 19t45.5 -19t9.5 -47q-6 -27 -28.5 -46t-53.5 -19t-44 18.5t-7 46.5zM946 1376q5 28 26 47t52 19t45.5 -19t9.5 -47q-6 -27 -28.5 -46t-53.5 -19t-44 18.5t-7 46.5zM113 1053h63l117 -977h2l469 977h84l90 -977h2l498 977h63l-536 -1053h-82
l-92 973h-5l-464 -973h-82z" />
    <glyph glyph-name="Ygrave" unicode="&#x1ef2;" horiz-adv-x="1140" 
d="M682 1888l92 -254h-59l-117 254h84zM166 1464h76l340 -792h4l651 792h76l-711 -864l-117 -600h-65l117 600z" />
    <glyph glyph-name="ygrave" unicode="&#x1ef3;" horiz-adv-x="907" 
d="M487 1477l93 -254h-60l-117 254h84zM985 1053l-625 -1088q-35 -60 -55 -93t-48.5 -75t-50 -63.5t-49 -42.5t-57 -29t-63.5 -8q-61 0 -119 20l10 54h4q38 -8 55.5 -10.5t50 -4.5t57.5 6.5t46 26.5q38 32 88.5 106.5t85.5 151.5l-211 1049h66l192 -965h3l555 965h65z" />
    <glyph glyph-name="endash" unicode="&#x2013;" horiz-adv-x="1187" 
d="M84 551h1024l-10 -57h-1024z" />
    <glyph glyph-name="emdash" unicode="&#x2014;" horiz-adv-x="2045" 
d="M207 551h1638l-10 -57h-1638z" />
    <glyph glyph-name="quoteleft" unicode="&#x2018;" horiz-adv-x="266" 
d="M287 1276q29 9 46 -6.5t11 -52.5q-6 -30 -27 -47t-47 -17q-32 0 -42 26.5t1 84.5q5 24 12 47t24 59t47.5 64t70.5 39l-12 -58q-61 -27 -84 -139z" />
    <glyph glyph-name="quoteright" unicode="&#x2019;" horiz-adv-x="262" 
d="M281 1350q-29 -9 -46 6.5t-10 52.5q6 30 26 47t46 17q64 0 41 -111q-34 -175 -154 -209l13 57q61 27 84 140z" />
    <glyph glyph-name="quotesinglbase" unicode="&#x201a;" horiz-adv-x="280" 
d="M45 -8q-29 -9 -45.5 6.5t-9.5 52.5q6 30 25.5 47t45.5 17q64 0 41 -111q-3 -22 -10.5 -46.5t-23.5 -59.5t-46.5 -63t-70.5 -40l10 58q69 30 84 139z" />
    <glyph glyph-name="quotedblleft" unicode="&#x201c;" horiz-adv-x="524" 
d="M307 1276q29 9 46.5 -6.5t11.5 -52.5q-6 -30 -27 -47t-47 -17q-32 0 -42 26.5t1 84.5q34 175 153 209l-12 -58q-61 -27 -84 -139zM557 1276q29 9 46 -6.5t11 -52.5q-6 -30 -26.5 -47t-46.5 -17q-32 0 -42 26.5t1 84.5q34 175 153 209l-12 -58q-61 -27 -84 -139z" />
    <glyph glyph-name="quotedblright" unicode="&#x201d;" horiz-adv-x="503" 
d="M272 1350q-29 -9 -45.5 6.5t-9.5 52.5q6 30 26 47t46 17q64 0 41 -111q-34 -175 -154 -209l12 57q61 27 84 140zM522 1350q-29 -9 -45.5 6.5t-9.5 52.5q6 30 26 47t46 17q64 0 41 -111q-34 -175 -154 -209l12 57q61 27 84 140z" />
    <glyph glyph-name="quotedblbase" unicode="&#x201e;" horiz-adv-x="530" 
d="M45 -8q-29 -9 -45.5 6.5t-9.5 52.5q6 30 25.5 47t45.5 17q64 0 41 -111q-3 -22 -10.5 -46.5t-23.5 -59.5t-46.5 -63t-70.5 -40l10 58q69 30 84 139zM295 -8q-29 -9 -45.5 6.5t-9.5 52.5q6 30 25.5 47t45.5 17q64 0 41 -111q-3 -22 -10.5 -46.5t-23.5 -59.5t-46.5 -63
t-70.5 -40l10 58q69 30 84 139z" />
    <glyph glyph-name="dagger" unicode="&#x2020;" horiz-adv-x="1030" 
d="M563 938h-418l13 57h417l91 469h65l-90 -469h416l-13 -57h-415l-252 -1300h-66z" />
    <glyph glyph-name="daggerdbl" unicode="&#x2021;" horiz-adv-x="1038" 
d="M141 938l13 57h417l91 469h65l-90 -469h416l-13 -57h-415l-117 -598h428l-10 -57h-428l-125 -645h-66l125 645h-409l10 57h409l117 598h-418z" />
    <glyph glyph-name="bullet" unicode="&#x2022;" horiz-adv-x="417" 
d="M205 512q-64 0 -96 41.5t-21 101.5q12 62 59.5 103t112.5 41t96 -41.5t19 -102.5q-11 -60 -58.5 -101.5t-111.5 -41.5z" />
    <glyph glyph-name="ellipsis" unicode="&#x2026;" horiz-adv-x="854" 
d="M37 -8q-24 0 -39.5 16t-9.5 45t27.5 45.5t45.5 16.5t40 -16.5t10 -45.5t-28 -45t-46 -16zM324 -8q-24 0 -40 16t-10 45t28 45.5t46 16.5t39.5 -16.5t9.5 -45.5t-27.5 -45t-45.5 -16zM610 -8q-24 0 -39.5 16t-9.5 45t28 45.5t46 16.5t39.5 -16.5t9.5 -45.5t-28 -45
t-46 -16z" />
    <glyph glyph-name="perthousand" unicode="&#x2030;" horiz-adv-x="2140" 
d="M367 657q-72 0 -122.5 30t-73.5 81t-29.5 119.5t10.5 146.5q33 165 127 271t235 106q72 0 122.5 -30t73.5 -81t28.5 -119.5t-11.5 -146.5q-31 -165 -125 -271t-235 -106zM1350 1403l-1110 -1403h-72l1110 1403h72zM379 715q61 0 111 27t83 74.5t55 101t34 116.5
q14 58 12 115.5t-16 103t-53.5 73.5t-100.5 28q-62 0 -112.5 -27.5t-84.5 -75t-56 -101t-34 -116.5q-14 -58 -12 -115.5t16.5 -102.5t55 -73t102.5 -28zM1004 -23q-141 0 -195 106.5t-21 270.5q31 165 125.5 271t235.5 106q72 0 122.5 -30t73.5 -81t29.5 -119.5
t-10.5 -146.5q-33 -165 -126 -271t-234 -106zM1688 -23q-72 0 -122.5 30t-74 81t-29.5 119.5t11 146.5q31 165 125 271t235 106q72 0 122.5 -30t73.5 -81t29.5 -119.5t-10.5 -146.5q-33 -165 -126 -271t-234 -106zM1014 35q61 0 111 27t83.5 74.5t55.5 101t34 116.5
q14 58 11.5 115.5t-16.5 103t-53.5 73.5t-100.5 28q-62 0 -112.5 -27.5t-84 -74.5t-55 -101.5t-33.5 -116.5q-14 -58 -12 -115.5t16 -102.5t54 -73t102 -28zM1698 35q61 0 111 27t83.5 74.5t55.5 101t34 116.5q14 58 11.5 115.5t-16.5 103t-53.5 73.5t-100.5 28
q-62 0 -112.5 -27.5t-84 -74.5t-55 -101.5t-33.5 -116.5q-14 -58 -12 -115.5t16 -102.5t54 -73t102 -28z" />
    <glyph glyph-name="guilsinglleft" unicode="&#x2039;" horiz-adv-x="489" 
d="M98 514l17 82l329 246l-16 -82l-276 -203v-4l196 -203l-14 -82z" />
    <glyph glyph-name="guilsinglright" unicode="&#x203a;" horiz-adv-x="499" 
d="M393 514l-330 -246l15 82l278 203v4l-198 203l16 82l236 -246z" />
    <glyph glyph-name="fraction" unicode="&#x2044;" horiz-adv-x="405" 
d="M856 1464h74l-1303 -1464h-73z" />
    <glyph glyph-name="Euro" unicode="&#x20ac;" horiz-adv-x="1234" 
d="M602 35q93 0 176.5 36t146 98.5t108 144t67.5 173.5h65q-68 -236 -214 -373t-353 -137q-210 0 -314.5 153t-84.5 419h-133l12 57h129q2 29 14 96q5 27 23 97h-129l10 57h133q84 266 247.5 417.5t373.5 151.5q103 0 181 -35.5t122.5 -97.5t64.5 -141t15 -170h-66
q4 59 -4.5 113.5t-31.5 105t-60 87.5t-95 59t-131 22q-186 0 -330.5 -137.5t-219.5 -374.5h503l-10 -57h-508q-15 -57 -22 -97q-14 -75 -15 -96h508l-12 -57h-504q-19 -240 67 -377t271 -137z" />
    <glyph glyph-name="trademark" unicode="&#x2122;" horiz-adv-x="1308" 
d="M430 1407h-209l10 57h484l-10 -57h-209l-101 -508h-65zM811 1464h102l95 -495h2l286 495h103l-111 -565h-65l94 481h-4l-279 -481h-80l-90 481h-4l-94 -481h-66z" />
    <glyph glyph-name="arrowleft" unicode="&#x2190;" horiz-adv-x="1538" 
d="M492 104l-406 553l621 553l34 -43l-530 -477h1298l-14 -65h-1298l346 -478z" />
    <glyph glyph-name="arrowup" unicode="&#x2191;" horiz-adv-x="1228" 
d="M1241 903l-51 -43l-393 438l-252 -1298h-66l252 1298l-561 -438l-35 43l651 512z" />
    <glyph glyph-name="arrowright" unicode="&#x2192;" horiz-adv-x="1538" 
d="M883 104l-35 43l530 478h-1298l14 65h1299l-346 477l51 43l403 -553z" />
    <glyph glyph-name="arrowdown" unicode="&#x2193;" horiz-adv-x="1228" 
d="M1149 430l-653 -512l-453 512l51 43l391 -438l254 1298h66l-254 -1298l563 438z" />
    <glyph glyph-name="arrowboth" unicode="&#x2194;" horiz-adv-x="2234" 
d="M1794 1210l404 -553l-619 -553l-35 43l531 478h-1878l346 -478l-51 -43l-406 553l621 553l34 -43l-530 -477h1878l-346 477z" />
    <glyph glyph-name="arrowupdn" unicode="&#x2195;" horiz-adv-x="1228" 
d="M498 -246l561 439l35 -43l-652 -512l-454 512l51 43l393 -439l338 1739l-563 -438l-35 43l653 512l453 -512l-51 -43l-391 438z" />
    <glyph glyph-name="uni2196" unicode="&#x2196;" horiz-adv-x="1228" 
d="M74 479l174 754l760 29l-7 -64l-657 -29l737 -913l-55 -47l-737 915l-154 -651z" />
    <glyph glyph-name="uni2197" unicode="&#x2197;" horiz-adv-x="1175" 
d="M1106 479l-66 -6l101 651l-1094 -915l-39 47l1094 913l-645 29l18 64l748 -29z" />
    <glyph glyph-name="uni2198" unicode="&#x2198;" horiz-adv-x="1175" 
d="M1176 840l-177 -754l-759 -29l8 64l655 29l-737 913l55 47l740 -915l151 651z" />
    <glyph glyph-name="uni2199" unicode="&#x2199;" horiz-adv-x="1228" 
d="M143 840l64 6l-98 -651l1091 915l39 -47l-1094 -913l648 -29l-21 -64l-747 29z" />
    <glyph glyph-name="partialdiff" unicode="&#x2202;" horiz-adv-x="1036" 
d="M616 954q129 0 209 -68t99 -184q13 84 10 164.5t-17 152t-50 135t-89 114.5t-134.5 88.5t-186.5 58.5l12 58q648 -114 500 -869q-34 -174 -113 -313.5t-205 -225t-276 -85.5q-182 0 -268.5 124t-49.5 316q45 229 203 381.5t356 152.5zM387 37q81 0 156 31t130 81t99 114
t70.5 128t38.5 125q20 103 -3 188t-94 139t-180 54q-170 0 -305.5 -135.5t-175.5 -339.5q-20 -105 1.5 -191t89 -140t173.5 -54z" />
    <glyph glyph-name="emptyset" unicode="&#x2205;" horiz-adv-x="1619" 
d="M1499 1217q73 -98 98 -225t-4 -285q-41 -214 -172 -382t-318.5 -258t-397.5 -90q-148 0 -270 46.5t-206 132.5l-159 -133l-35 43l160 133q-75 96 -101.5 223t2.5 285q42 215 174 382.5t319.5 258t397.5 90.5q297 0 475 -178l160 135l35 -45zM162 707q-55 -280 84 -465
l1161 972q-75 79 -185 122.5t-245 43.5q-195 0 -367 -85t-291 -239t-157 -349zM715 35q194 0 365.5 83.5t290.5 237.5t157 351q26 141 4 257.5t-88 206.5l-1163 -972q158 -164 434 -164z" />
    <glyph glyph-name="product" unicode="&#x220f;" horiz-adv-x="1038" 
d="M190 1464h1061l-323 -1669h-66l314 1612h-930l-314 -1612h-65z" />
    <glyph glyph-name="summation" unicode="&#x2211;" horiz-adv-x="917" 
d="M225 1407l-2 -2l482 -719l-9 -41l-778 -790v-2h956l-10 -58h-1034l10 60l797 809v2l-496 739l13 59h1024l-11 -57h-942z" />
    <glyph glyph-name="minus" unicode="&#x2212;" horiz-adv-x="1058" 
d="M135 696h852l-10 -57h-852z" />
    <glyph glyph-name="radical" unicode="&#x221a;" horiz-adv-x="1259" 
d="M66 610h213l143 -725h2l823 1579h66l-871 -1669h-65l-152 758h-170z" />
    <glyph glyph-name="infinity" unicode="&#x221e;" horiz-adv-x="1431" 
d="M74 623q13 66 42 125.5t73.5 109t109.5 78.5t141 29q60 0 109 -22t85 -64t61.5 -89t49.5 -110q105 141 195.5 213t200.5 72q145 0 202.5 -97t28.5 -245q-28 -145 -122.5 -243.5t-237.5 -98.5q-58 0 -104.5 22t-81 64.5t-58.5 88.5t-47 109q-110 -145 -203.5 -214.5
t-208.5 -69.5q-76 0 -130.5 30t-78.5 78t-32.5 109.5t6.5 124.5zM139 623q-13 -53 -7.5 -104t23.5 -91.5t60.5 -65t103.5 -24.5q52 0 99 18.5t94.5 59t87.5 86.5t96 119q-24 67 -46.5 114t-54.5 88.5t-73.5 62.5t-93.5 21q-61 0 -112 -24t-85.5 -65t-57.5 -90t-34 -105z
M1128 907q-50 0 -94.5 -19t-91 -62t-82.5 -85.5t-92 -117.5q25 -68 45.5 -112.5t50.5 -87.5t69.5 -64t88.5 -21q116 0 189 83.5t96 201.5q25 124 -17 204t-162 80z" />
    <glyph glyph-name="integral" unicode="&#x222b;" horiz-adv-x="980" 
d="M410 -10q-15 -80 -34.5 -137t-51 -106t-80 -74t-113.5 -25q-75 0 -129 20l10 58q96 -23 159.5 -16.5t104 71t70.5 215.5l227 1169q15 80 34.5 137t51 106t80 74t113.5 25q75 0 129 -20l-10 -57q-96 22 -160 16t-104.5 -71t-69.5 -216z" />
    <glyph glyph-name="approxequal" unicode="&#x2248;" horiz-adv-x="1071" 
d="M795 702q-88 0 -247.5 47.5t-213.5 47.5q-64 0 -100.5 -27.5t-53.5 -89.5h-65q46 174 229 174q80 0 235.5 -47t225.5 -47q69 0 105.5 24.5t54.5 89.5h65q-26 -92 -83 -132t-152 -40zM739 420q-88 0 -247 47t-213 47q-64 0 -99.5 -27t-54.5 -90h-66q26 91 83 132.5
t147 41.5q80 0 235.5 -47t225.5 -47q69 0 105 25.5t54 91.5h66q-24 -91 -82.5 -132.5t-153.5 -41.5z" />
    <glyph glyph-name="notequal" unicode="&#x2260;" horiz-adv-x="1032" 
d="M975 752h-338l-156 -232h449l-10 -57h-478l-172 -256h-67l172 256h-303l10 57h332l155 232h-442l12 57h471l162 240h68l-162 -240h309z" />
    <glyph glyph-name="lessequal" unicode="&#x2264;" horiz-adv-x="997" 
d="M862 326l-12 -66l-731 346l12 66l866 348l-12 -66l-784 -313v-2zM0 0l10 57h799l-10 -57h-799z" />
    <glyph glyph-name="greaterequal" unicode="&#x2265;" horiz-adv-x="997" 
d="M68 326l784 313v2l-662 313l13 66l731 -348l-12 -66l-867 -346zM803 0h-799l10 57h799z" />
    <glyph glyph-name="lozenge" unicode="&#x25ca;" horiz-adv-x="1024" 
d="M647 1464h78l270 -731l-551 -733h-77l-273 733zM160 733l256 -674h2l512 674l-256 672h-2z" />
    <glyph glyph-name="i.loclTRK" horiz-adv-x="333" 
d="M258 1376q5 28 26 47t52 19t45.5 -19t9.5 -47q-6 -27 -28.5 -46t-53.5 -19t-44 18.5t-7 46.5zM246 1053h61l-205 -1053h-61z" />
    <glyph glyph-name="logo" horiz-adv-x="1839" 
d="M49 465q13 69 45.5 122t74 83t84 44.5t83.5 14.5q-90 0 -149.5 66t-34.5 198q20 105 101.5 177.5t178.5 72.5q98 0 160 -59q-46 70 -27 170q20 101 100.5 167t204.5 66q113 0 169.5 -75t39.5 -160q17 85 101.5 160t197.5 75q124 0 179.5 -66t35.5 -167q-18 -96 -92 -170
q86 59 180 59q98 0 153.5 -72.5t33.5 -177.5q-27 -132 -112 -198t-175 -66q41 0 77.5 -14t67.5 -45.5t41 -82t-2 -122.5q-22 -106 -103.5 -178t-178.5 -72q-96 0 -158 59q44 -71 25 -170q-20 -101 -101 -167t-205 -66q-77 0 -129 38t-69.5 91t-7.5 106q-17 -85 -102.5 -160
t-198.5 -75q-124 0 -179.5 66t-35.5 167q19 98 94 170q-86 -59 -183 -59t-150.5 72.5t-33.5 177.5zM213 993q-23 -115 41.5 -174t202.5 -59h334q80 0 117.5 32t52.5 111l69 354q25 130 -24.5 199.5t-147.5 69.5q-90 0 -151.5 -46.5t-81.5 -140.5q-13 -64 20.5 -135
t77.5 -119q20 5 25 5q35 0 54 -23.5t13 -56.5q-6 -35 -35.5 -59.5t-64.5 -24.5q-33 0 -53 24t-11 60q1 4 11 24q-38 53 -100 100.5t-126 47.5q-89 0 -149 -58.5t-74 -130.5zM1022 903q-15 -79 11 -111t106 -32h334q137 0 223.5 59t109.5 174q14 72 -23 130.5t-126 58.5
q-64 0 -144 -47.5t-139 -100.5q0 -16 -2 -24q-9 -37 -36.5 -60.5t-59.5 -23.5q-35 0 -54.5 24.5t-13.5 59.5q6 32 36 56t65 24q4 0 24 -5q63 51 124 121t73 133q18 93 -27.5 140t-136.5 47q-98 0 -173.5 -69.5t-100.5 -199.5zM111 465q-14 -72 23 -130.5t126 -58.5
q64 0 144 47.5t139 100.5v25q9 36 36 59.5t60 23.5q35 0 54.5 -24t13.5 -59q-6 -32 -36 -56t-65 -24q-6 0 -22 4q-62 -48 -123.5 -119t-73.5 -135q-18 -93 27 -140t135 -47q98 0 174.5 69.5t101.5 199.5l68 354q15 80 -10.5 111.5t-104.5 31.5h-334q-137 0 -223.5 -59
t-109.5 -174zM887 201q-25 -130 23.5 -199.5t146.5 -69.5q90 0 153.5 47t81.5 140q12 64 -21.5 134.5t-76.5 119.5q-16 -4 -27 -4q-35 0 -55 24t-12 56q8 35 36.5 59t63.5 24q33 0 53 -23.5t11 -59.5q-4 -14 -9 -25q38 -53 100 -100.5t126 -47.5q89 0 149 58.5t74 130.5
q23 115 -41.5 174t-202.5 59h-334q-80 0 -118.5 -32t-53.5 -111z" />
    </font>
</defs>
</svg>
