<?xml version="1.0" standalone="no"?>
<!DOCTYPE svg PUBLIC "-//W3C//DTD SVG 1.1//EN" "http://www.w3.org/Graphics/SVG/1.1/DTD/svg11.dtd" >
<svg xmlns="http://www.w3.org/2000/svg" xmlns:xlink="http://www.w3.org/1999/xlink" version="1.1">
<metadata>
Created by FontForge 20170731 at Sat Jan 23 16:04:35 2021
 By Aleksey,,,
Pangram Pangram Foundry
</metadata>
<defs>
<font id="NeueMontreal-MediumItalic" horiz-adv-x="0" >
  <font-face 
    font-family="Neue Montreal Medium"
    font-weight="500"
    font-style="italic"
    font-stretch="normal"
    units-per-em="2048"
    panose-1="0 0 6 0 0 0 0 0 0 0"
    ascent="1583"
    descent="-465"
    x-height="1047"
    cap-height="1464"
    bbox="-1243 -541 2398.67 1978"
    underline-thickness="102"
    underline-position="-307"
    slope="-11"
    unicode-range="U+0020-25CA"
  />
<missing-glyph horiz-adv-x="1024" 
d="M840 1583v-2048h-650v2048h650zM682 1446h-338v-68h133v-75h-135v-68h340v68h-135v75h135v68zM547 1182h-205v-213h340v69h-135v144zM477 1112v-74h-67v74h67zM682 913h-340v-67h135v-76h-135v-68h205v144h135v67zM682 791h-68v-136h-272v-69h340v205zM682 541h-205v-115
h70v47h67v-96h-204v164h-68v-232h340v232zM682 186h-340v-231h340v231zM614 119v-96h-204v96h204zM682 -92h-340v-68h143l-143 -96v-68h340v68h-209l143 96h66v68z" />
    <glyph glyph-name=".notdef" horiz-adv-x="1024" 
d="M840 1583v-2048h-650v2048h650zM682 1446h-338v-68h133v-75h-135v-68h340v68h-135v75h135v68zM547 1182h-205v-213h340v69h-135v144zM477 1112v-74h-67v74h67zM682 913h-340v-67h135v-76h-135v-68h205v144h135v67zM682 791h-68v-136h-272v-69h340v205zM682 541h-205v-115
h70v47h67v-96h-204v164h-68v-232h340v232zM682 186h-340v-231h340v231zM614 119v-96h-204v96h204zM682 -92h-340v-68h143l-143 -96v-68h340v68h-209l143 96h66v68z" />
    <glyph glyph-name=".null" 
 />
    <glyph glyph-name="nonmarkingreturn" horiz-adv-x="682" 
 />
    <glyph glyph-name="space" unicode=" " horiz-adv-x="389" 
 />
    <glyph glyph-name="exclam" unicode="!" horiz-adv-x="512" 
d="M319 1464h238l-74 -387l-188 -667h-123l74 667zM160 -16q-62 0 -95 41t-20 106q9 53 49 86t92 33q61 0 95 -42t22 -106q-10 -54 -50.5 -86t-92.5 -32z" />
    <glyph glyph-name="quotedbl" unicode="&#x22;" horiz-adv-x="702" 
d="M262 1464h203l-121 -475h-149zM594 1464h203l-119 -475h-150z" />
    <glyph glyph-name="numbersign" unicode="#" horiz-adv-x="1196" 
d="M1167 858h-192l-117 -297h209l-66 -176h-215l-151 -385h-180l151 385h-221l-154 -385h-178l154 385h-184l69 176h187l114 297h-200l67 176h205l149 381h181l-152 -381h221l152 381h180l-152 -381h193zM678 561l117 297h-222l-116 -297h221z" />
    <glyph glyph-name="dollar" unicode="$" horiz-adv-x="1175" 
d="M1098 307q-15 -83 -66 -147.5t-127.5 -104t-166 -61t-189.5 -25.5l-27 -155h-123l29 159q-209 22 -327 151.5t-101 336.5h231q-5 -129 51.5 -197.5t180.5 -85.5l84 436q-39 16 -72.5 31.5t-70.5 35t-65.5 39.5t-58 44.5t-49 50.5t-38.5 57t-25 64t-9.5 72.5t7.5 81.5
q21 109 97 186t186.5 115t250.5 43l27 118h123l-29 -127q183 -25 280.5 -142t80.5 -304h-234q14 197 -162 244l-79 -404q49 -22 83 -38.5t75 -38.5t69 -41.5t58.5 -45.5t49 -52t35 -58.5t23 -68t7 -78.5t-8.5 -91zM401 1077q-14 -74 34 -123.5t155 -97.5l76 375
q-235 -11 -265 -154zM586 172q245 13 278 156q18 85 -30 141t-170 109z" />
    <glyph glyph-name="percent" unicode="%" horiz-adv-x="1695" 
d="M420 631q-70 0 -125 22t-89 61t-54 92.5t-20.5 115.5t11.5 131q33 170 139.5 281.5t270.5 111.5q88 0 151 -34t93 -92t39.5 -134.5t-9.5 -161.5q-33 -171 -138 -282t-269 -111zM1475 1415l-1020 -1415h-166l1018 1415h168zM430 786q168 0 219 258q45 244 -108 244
q-168 0 -219 -258q-45 -244 108 -244zM1210 -31q-70 0 -125 22t-88.5 61t-53 92.5t-20 115.5t10.5 131q35 171 140.5 282t268.5 111q88 0 151 -34t93.5 -92t40 -134.5t-9.5 -161.5q-16 -82 -49 -151.5t-83 -124.5t-121 -86t-155 -31zM1223 127q166 0 217 258
q24 117 -3 180.5t-104 63.5q-170 0 -221 -260q-22 -117 5.5 -179.5t105.5 -62.5z" />
    <glyph glyph-name="ampersand" unicode="&#x26;" horiz-adv-x="1245" 
d="M1161 0h-260l-76 119q-194 -150 -411 -150q-222 0 -325.5 113.5t-68.5 292.5q14 76 50 139.5t93.5 115t112 87.5t132.5 78q-21 35 -34.5 59t-29.5 56t-24 58.5t-14 58t-5 64.5t8 68q12 64 46 122.5t86.5 106.5t129 77t164.5 30t157 -30.5t107 -83.5t52.5 -117.5
t1.5 -133.5q-22 -112 -110 -194.5t-263 -173.5l203 -313q91 110 129 249h205q-66 -242 -230 -426zM723 1292q-81 0 -139.5 -49t-71.5 -113q-11 -60 9 -114.5t69 -130.5q118 65 179 122.5t77 137.5q13 63 -18.5 105t-104.5 42zM440 172q150 0 285 109l-238 381
q-106 -64 -167 -135.5t-78 -159.5q-16 -82 34 -138.5t164 -56.5z" />
    <glyph glyph-name="quotesingle" unicode="'" horiz-adv-x="368" 
d="M266 1464h203l-121 -475h-149z" />
    <glyph glyph-name="parenleft" unicode="(" horiz-adv-x="622" 
d="M604 1561l195 -11q-154 -214 -259 -431t-157 -484q-33 -173 -33 -338.5t23 -292t67 -262.5l-180 10q-58 110 -92.5 244.5t-43 308.5t29.5 359q51 264 173 495t277 402z" />
    <glyph glyph-name="parenright" unicode=")" horiz-adv-x="634" 
d="M428 1550q43 -82 73.5 -177t49 -210t15 -251t-30.5 -277q-51 -256 -174.5 -490.5t-276.5 -402.5l-195 10q152 212 257.5 430.5t156.5 481.5q34 177 34.5 343.5t-22.5 292t-67 261.5z" />
    <glyph glyph-name="asterisk" unicode="*" horiz-adv-x="788" 
d="M840 1178l-219 -64l96 -184l-123 -82l-92 194l-168 -194l-103 82l164 184l-190 64l67 127l191 -72l45 231h141l-45 -231l213 72z" />
    <glyph glyph-name="plus" unicode="+" horiz-adv-x="1146" 
d="M479 569h-375l39 201h375l76 387h203l-78 -387h375l-39 -201h-373l-76 -387h-200z" />
    <glyph glyph-name="comma" unicode="," horiz-adv-x="432" 
d="M127 -8q-65 -15 -102.5 22t-22.5 113q10 58 50.5 90.5t94.5 32.5q71 0 100 -55.5t11 -147.5q-11 -56 -35 -108.5t-61 -101t-92 -82.5t-121 -44l10 121q58 10 104 55t64 105z" />
    <glyph glyph-name="hyphen" unicode="-" horiz-adv-x="694" 
d="M90 621h551l-41 -201h-551z" />
    <glyph glyph-name="period" unicode="." horiz-adv-x="423" 
d="M119 -16q-62 0 -95.5 41t-21.5 106q10 53 50.5 86t92.5 33q61 0 95 -42t22 -106q-10 -54 -50.5 -86t-92.5 -32z" />
    <glyph glyph-name="slash" unicode="/" horiz-adv-x="829" 
d="M1004 1464l-852 -1464h-201l852 1464h201z" />
    <glyph glyph-name="zero" unicode="0" horiz-adv-x="1275" 
d="M541 -31q-99 0 -177.5 27t-132 77t-89 118t-49 152.5t-10.5 179t23 198.5q29 152 86.5 280t142.5 229t205 158.5t263 57.5q99 0 178.5 -27t133 -77.5t88.5 -119t49 -153t10.5 -179t-23.5 -198.5q-30 -152 -87.5 -279.5t-142.5 -228.5t-205 -158t-263 -57zM555 172
q75 0 139.5 28.5t113.5 78t88.5 119.5t66.5 150t45 173q18 91 23.5 165t-3 142.5t-34.5 114t-77 73t-126 27.5q-94 0 -171 -43t-131.5 -120.5t-92 -173.5t-60.5 -214q-18 -92 -23.5 -165t3 -141.5t35 -114t78 -72.5t126.5 -27z" />
    <glyph glyph-name="one" unicode="1" horiz-adv-x="722" 
d="M545 1421h190l-276 -1421h-238l203 1022q-29 -24 -61 -39.5t-53.5 -23.5t-64 -11.5t-58 -3.5h-70.5l18 170q92 0 164 23t119.5 66t77.5 96t49 122z" />
    <glyph glyph-name="two" unicode="2" horiz-adv-x="1163" 
d="M764 1446q209 0 329.5 -120t82.5 -320q-18 -90 -66 -167.5t-114.5 -135t-144 -108t-159.5 -96.5t-155 -89.5t-137 -97.5t-99 -111h717l-39 -201l-1028 6q63 335 467 572q38 21 105.5 57.5t98 53.5t81.5 47.5t75 49.5t57.5 49t50.5 56t32.5 60.5t23.5 72.5q10 41 1 80.5
t-30 70t-66 49.5t-108 19q-282 0 -348 -323h-229q23 117 70.5 211t120 165.5t177 110.5t234.5 39z" />
    <glyph glyph-name="three" unicode="3" horiz-adv-x="1163" 
d="M393 987l-227 8q40 206 188 328.5t394 122.5q99 0 185 -27.5t148 -78t90 -128.5t9 -172q-41 -201 -262 -292l-15 -3q254 -77 193 -391q-36 -188 -185.5 -286.5t-380.5 -98.5q-275 0 -411.5 139t-89.5 379l227 -8q-28 -146 43.5 -226.5t235.5 -80.5q278 0 323 201
q15 75 5 126t-45.5 82.5t-81.5 45.5t-103 14h-133l37 188h112q114 0 193 53t100 154q19 91 -39 149t-176 58q-281 0 -334 -256z" />
    <glyph glyph-name="four" unicode="4" horiz-adv-x="1196" 
d="M850 0h-236l64 322h-670l41 221l838 872h239l-174 -893h199l-37 -200h-201zM834 1108l-562 -586h443z" />
    <glyph glyph-name="five" unicode="5" horiz-adv-x="1142" 
d="M1161 1214h-635l-145 -370q131 110 330 110q137 0 232.5 -64t133 -176.5t10.5 -252.5q-29 -151 -118.5 -264t-216 -170.5t-271.5 -57.5q-128 0 -226.5 36.5t-154.5 98.5t-78.5 140.5t-7.5 165.5h234q-8 -104 49 -171t192 -67q136 0 234.5 80.5t130.5 226.5
q29 135 -31.5 211t-191.5 76q-90 0 -170 -33t-137 -96h-242l303 778h817z" />
    <glyph glyph-name="six" unicode="6" horiz-adv-x="1198" 
d="M1198 1063h-231q5 88 -41.5 138t-149.5 50q-320 0 -426 -483q70 81 169.5 124.5t213.5 43.5q215 0 322.5 -134.5t66.5 -348.5q-41 -209 -203.5 -346.5t-390.5 -137.5q-123 0 -213.5 36.5t-143 102t-77 160t-21.5 205.5t29 244q69 356 247 542.5t442 186.5
q196 0 307 -112.5t100 -270.5zM676 741q-139 0 -244 -80.5t-131 -205.5q-27 -125 37.5 -208t202.5 -83q135 0 230.5 80.5t121.5 214.5q26 130 -33.5 206t-183.5 76z" />
    <glyph glyph-name="seven" unicode="7" horiz-adv-x="1071" 
d="M205 1415h999l-30 -186q-184 -130 -349 -336t-278.5 -439.5t-157.5 -453.5h-248q33 171 115.5 357t188.5 345.5t225 293.5t231 218h-737z" />
    <glyph glyph-name="eight" unicode="8" horiz-adv-x="1196" 
d="M31 414q13 68 44.5 124t77.5 96.5t94 69t107 52.5l15 4q-181 107 -140 313q33 174 182 273.5t357 99.5q217 0 334 -108.5t82 -293.5q-37 -184 -246 -288l-14 -4q246 -118 198 -367q-26 -135 -116 -230.5t-217.5 -140.5t-282.5 -45q-119 0 -215 29t-161.5 83.5t-92 140
t-6.5 192.5zM672 842q120 0 193.5 52.5t92.5 147.5q21 106 -41 160.5t-180 54.5q-121 0 -195 -53.5t-93 -146.5q-22 -109 40 -162t183 -53zM539 164q145 0 237.5 66.5t114.5 177.5q24 121 -51.5 187.5t-218.5 66.5q-145 0 -237.5 -66.5t-113.5 -175.5q-25 -122 50.5 -189
t218.5 -67z" />
    <glyph glyph-name="nine" unicode="9" horiz-adv-x="1212" 
d="M741 1446q123 0 213.5 -36.5t143 -102t77 -160t21.5 -205.5t-29 -244q-69 -356 -246.5 -542.5t-441.5 -186.5q-196 0 -307 112.5t-100 270.5h231q-5 -88 41.5 -138t149.5 -50q320 0 426 483q-70 -81 -169.5 -124.5t-213.5 -43.5q-213 0 -321.5 135t-68.5 349
q42 210 204 346.5t390 136.5zM969 961q27 125 -37.5 207.5t-202.5 82.5q-135 0 -230.5 -80.5t-121.5 -214.5q-25 -130 34 -206t183 -76q140 0 244.5 81t130.5 206z" />
    <glyph glyph-name="colon" unicode=":" horiz-adv-x="432" 
d="M244 612q-61 0 -95 41t-22 107q10 53 50 85t93 32q61 0 95 -41t22 -105q-10 -55 -50 -87t-93 -32zM123 -16q-63 0 -96.5 41t-20.5 106q10 53 49.5 86t91.5 33q61 0 95.5 -42.5t21.5 -105.5q-10 -54 -50 -86t-91 -32z" />
    <glyph glyph-name="semicolon" unicode=";" horiz-adv-x="440" 
d="M248 612q-62 0 -96 41t-21 107q10 53 49.5 85t91.5 32q61 0 95 -41t24 -105q-12 -56 -51.5 -87.5t-91.5 -31.5zM131 -8q-66 -15 -104 22t-23 113q12 58 52 90.5t94 32.5q72 0 100.5 -55t9.5 -148q-11 -56 -35 -108.5t-61 -101t-92 -82.5t-121 -44l10 121q59 10 105.5 55
t64.5 105z" />
    <glyph glyph-name="less" unicode="&#x3c;" horiz-adv-x="1036" 
d="M868 176l-770 348l43 224l906 350l-39 -203l-709 -258v-4l608 -256z" />
    <glyph glyph-name="equal" unicode="=" horiz-adv-x="1142" 
d="M178 920h940l-39 -201h-940zM109 559h940l-41 -201h-938z" />
    <glyph glyph-name="greater" unicode="&#x3e;" horiz-adv-x="1036" 
d="M37 176l37 201l706 256v4l-606 258l39 203l768 -350l-43 -224z" />
    <glyph glyph-name="question" unicode="?" horiz-adv-x="1054" 
d="M352 1004h-233q35 225 183 358t398 133q133 0 234.5 -52t149.5 -145t28 -206q-7 -41 -21.5 -76.5t-40 -66.5t-47.5 -53t-62 -48.5t-63.5 -40.5t-70.5 -41q-117 -65 -172 -138t-84 -212h-207q24 165 76.5 261t171.5 177q28 19 72 44t74 43t62 43t52.5 57.5t28.5 72.5
q13 78 -45.5 128t-161.5 50q-265 0 -322 -288zM401 -16q-62 0 -95 41t-21 106q10 54 50 86.5t93 32.5q61 0 95 -42t22 -106q-10 -54 -50.5 -86t-93.5 -32z" />
    <glyph glyph-name="at" unicode="@" horiz-adv-x="1792" 
d="M1298 162q-100 0 -166.5 46t-91.5 126l-8 -12q-114 -152 -297 -152q-150 0 -226.5 118.5t-37.5 319.5q39 202 168 326.5t283 124.5q102 0 166.5 -49.5t80.5 -122.5l7 6l49 151h188l-166 -520q-70 -207 72 -207q98 0 172.5 91t107.5 262q19 109 11.5 205t-49 175
t-106.5 135.5t-162.5 88t-217.5 31.5q-154 0 -299 -59t-255 -157t-186.5 -226.5t-103.5 -266.5q-38 -195 17 -345t189.5 -231t326.5 -81q212 0 383 65l45 -137q-179 -86 -432 -86q-188 0 -335.5 59.5t-237.5 169.5t-124 266t5 349q44 227 188 418t362 305t461 114
q111 0 208 -22t172 -62t135.5 -97t98.5 -127t60.5 -151.5t21.5 -170.5t-18 -185q-21 -109 -59 -194.5t-83.5 -139t-101 -88.5t-108 -49t-107.5 -14zM784 340q120 0 202 89.5t108 229.5q24 113 -15.5 171.5t-122.5 58.5q-114 0 -196 -89t-111 -231q-20 -105 11.5 -167
t123.5 -62z" />
    <glyph glyph-name="A" unicode="A" horiz-adv-x="1355" 
d="M946 346h-598l-186 -346h-250l821 1464h258l250 -1464h-244zM455 549h463l-95 692h-4z" />
    <glyph glyph-name="B" unicode="B" horiz-adv-x="1325" 
d="M1333 1081q-42 -217 -276 -293l-15 -4q121 -22 185.5 -116t34.5 -254q-39 -203 -189.5 -308.5t-382.5 -105.5h-672l285 1464h623q226 0 334 -101t73 -282zM430 858h371q127 0 196 53.5t90 159.5q19 91 -27.5 138.5t-156.5 47.5h-395zM395 676l-92 -469h395q278 0 328 250
q20 107 -30.5 163t-166.5 56h-434z" />
    <glyph glyph-name="C" unicode="C" horiz-adv-x="1413" 
d="M1219 954q0 332 -320 332q-117 0 -215 -46.5t-166.5 -127t-114 -180t-67.5 -213.5q-17 -87 -17.5 -165t18.5 -147.5t58 -119.5t106 -79.5t156 -29.5q100 0 184 31t140.5 83.5t94 111t57.5 124.5h241q-74 -254 -265.5 -406.5t-461.5 -152.5q-126 0 -229 37.5t-173 106.5
t-113.5 166t-50.5 215t17 254q42 216 156.5 385t287.5 265.5t376 96.5q138 0 246.5 -42.5t174 -116t96 -171.5t21.5 -211h-237z" />
    <glyph glyph-name="D" unicode="D" horiz-adv-x="1398" 
d="M18 0l285 1464h563q306 0 444 -196t70 -551q-67 -345 -270.5 -531t-507.5 -186h-584zM508 1257l-205 -1050h307q96 0 176 29t137 77.5t101.5 118.5t72 146.5t44.5 166.5q17 86 20 158t-13 139t-53 113.5t-105 74t-163 27.5h-319z" />
    <glyph glyph-name="E" unicode="E" horiz-adv-x="1271" 
d="M430 860h715l-39 -209h-717l-86 -444h836l-41 -207h-1080l285 1464h1059l-39 -207h-815z" />
    <glyph glyph-name="F" unicode="F" horiz-adv-x="1200" 
d="M424 831h633l-41 -208h-631l-123 -623h-244l285 1464h1024l-39 -207h-780z" />
    <glyph glyph-name="G" unicode="G" horiz-adv-x="1499" 
d="M1229 1016q-3 131 -83 200.5t-228 69.5q-120 0 -222.5 -48t-173 -130t-117 -180.5t-67.5 -208.5q-17 -84 -18 -159.5t17.5 -146.5t57 -122t107.5 -82t162 -31q174 0 319 114.5t180 285.5l-415 -7l38 197h660l-150 -768h-166l-12 201l-6 -6q-96 -113 -212.5 -169.5
t-268.5 -56.5q-208 0 -344.5 101t-183.5 276.5t-3 401.5q41 216 155.5 384.5t291 265.5t387.5 97q137 0 242 -37.5t168.5 -105t94 -156.5t27.5 -195z" />
    <glyph glyph-name="H" unicode="H" horiz-adv-x="1423" 
d="M303 1464h244l-117 -606h692l117 606h244l-285 -1464h-244l127 649h-692l-127 -649h-244z" />
    <glyph glyph-name="I" unicode="I" horiz-adv-x="495" 
d="M307 1464h244l-285 -1464h-243z" />
    <glyph glyph-name="J" unicode="J" horiz-adv-x="1036" 
d="M915 453q-15 -80 -40 -147.5t-68 -131t-100.5 -108t-140 -71t-183.5 -26.5q-87 0 -154.5 19t-110.5 54.5t-70.5 81t-37 102.5t-8 116t13.5 125l13 59h231l-16 -73q-10 -55 -13.5 -92.5t1.5 -74.5t22.5 -59t52 -35.5t86.5 -13.5q68 0 118.5 21t82.5 62t50.5 90t31.5 116
l192 997h244z" />
    <glyph glyph-name="K" unicode="K" horiz-adv-x="1345" 
d="M303 1464h244l-144 -723l805 723h295l-692 -620l438 -844h-280l-344 674l-277 -242l-86 -432h-244z" />
    <glyph glyph-name="L" unicode="L" horiz-adv-x="1140" 
d="M303 1464h244l-244 -1257h731l-41 -207h-975z" />
    <glyph glyph-name="M" unicode="M" horiz-adv-x="1697" 
d="M18 0l285 1464h315l189 -1126h4l629 1126h315l-285 -1464h-237l217 1110h-2l-604 -1110h-193l-174 1110h-4l-217 -1110h-238z" />
    <glyph glyph-name="N" unicode="N" horiz-adv-x="1423" 
d="M18 0l285 1464h270l447 -1099h8l211 1099h244l-285 -1464h-268l-449 1096h-4l-215 -1096h-244z" />
    <glyph glyph-name="O" unicode="O" horiz-adv-x="1542" 
d="M674 -31q-132 0 -240 38t-181.5 107t-120 166t-54 214.5t15.5 253.5q31 161 107.5 298.5t186 237t253 155.5t303.5 56q220 0 368.5 -100.5t203.5 -276t12 -399.5q-42 -216 -160.5 -386t-299.5 -267t-394 -97zM690 178q124 0 229 46t178 126t121.5 180.5t71.5 217.5
q14 88 15.5 167t-22.5 147t-66.5 118t-115.5 78t-169 28q-125 0 -230 -45.5t-178.5 -125t-121.5 -179.5t-70 -217q-14 -88 -15.5 -167.5t22.5 -148t66.5 -118.5t115.5 -78.5t169 -28.5z" />
    <glyph glyph-name="P" unicode="P" horiz-adv-x="1259" 
d="M18 0l285 1464h617q107 0 189.5 -26.5t139 -82t75 -141t-2.5 -202.5q-43 -217 -189.5 -321.5t-367.5 -104.5h-387l-115 -586h-244zM508 1257l-90 -462h362q255 0 303 245q22 113 -27 165t-173 52h-375z" />
    <glyph glyph-name="Q" unicode="Q" horiz-adv-x="1519" 
d="M1397 55l-166 -143l-146 176q-194 -119 -430 -119q-219 0 -366.5 101t-202 277.5t-10.5 400.5q31 161 107 299t185.5 237t253.5 155t304 56q133 0 241.5 -37.5t182.5 -106t120.5 -165t54 -214t-15.5 -253.5q-58 -298 -254 -494zM672 178q154 0 280 76l-149 184l166 144
l151 -181q109 138 152 347q14 88 15.5 167t-23 147t-67 118t-116 78t-170.5 28q-124 0 -229 -45.5t-178 -125t-121 -179.5t-70 -217q-14 -88 -15.5 -167.5t23 -148t67 -118.5t115.5 -78.5t169 -28.5z" />
    <glyph glyph-name="R" unicode="R" horiz-adv-x="1280" 
d="M18 0l285 1464h619q228 0 342.5 -115.5t76.5 -318.5q-60 -288 -333 -352l-17 -4q66 -13 107.5 -55t55 -99.5t15.5 -124.5t-6 -132t-15 -119.5t-6.5 -90.5t15.5 -41l2 -12l-250 4q-8 11 -9 41.5t8.5 72t15.5 91t11.5 99t-2.5 96t-26.5 82.5t-61.5 57.5t-106 21.5h-366
l-111 -565h-244zM508 1257l-94 -483h321q65 0 116 9.5t104 35t90 79t53 132.5q6 33 6 61t-5 49.5t-16.5 38.5t-25 29t-33 21t-39 14.5t-44.5 8.5t-47.5 4t-49.5 1h-336z" />
    <glyph glyph-name="S" unicode="S" horiz-adv-x="1265" 
d="M715 868q54 -21 90 -35.5t82 -35t75.5 -37t65 -39t57 -44.5t45 -50t35 -58t20 -66t8 -78t-8.5 -89q-26 -173 -175 -270t-397 -97q-183 0 -323 60.5t-214.5 178t-60.5 273.5h240q-9 -141 88.5 -222t284.5 -81q143 0 221.5 43t95.5 135q4 24 4.5 44.5t-4 39t-12 34.5
t-22 31.5t-29.5 28.5t-39 27t-47.5 26t-58 26.5t-66 27t-76.5 29.5q-82 31 -133 53t-117 64t-100 87t-52.5 113.5t-3.5 151.5q16 90 65.5 159t125.5 111.5t169.5 64t203.5 21.5q249 0 391 -124t125 -337h-240q7 125 -67.5 188.5t-223.5 63.5q-81 0 -144 -14t-108 -49.5
t-55 -89.5q-7 -43 2 -77t28.5 -57.5t57.5 -45.5t75.5 -37.5t94.5 -37.5q18 -6 27 -10z" />
    <glyph glyph-name="T" unicode="T" horiz-adv-x="1243" 
d="M397 0l246 1257h-469l39 207h1180l-41 -207h-467l-244 -1257h-244z" />
    <glyph glyph-name="U" unicode="U" horiz-adv-x="1361" 
d="M1251 494q-48 -249 -212 -387t-455 -138q-152 0 -259 39t-162 110t-73 170t8 220l185 956h243l-186 -970q-32 -166 31 -241t229 -75q346 0 410 330l186 956h242z" />
    <glyph glyph-name="V" unicode="V" horiz-adv-x="1271" 
d="M184 1464h260l134 -1202l602 1202h266l-784 -1464h-263z" />
    <glyph glyph-name="W" unicode="W" horiz-adv-x="1878" 
d="M190 1464h248l29 -1134h4l516 1134h250l76 -1134h4l471 1134h252l-651 -1464h-256l-78 1147h-4l-523 -1147h-258z" />
    <glyph glyph-name="X" unicode="X" horiz-adv-x="1265" 
d="M541 748l-318 716h260l226 -540l442 540h266l-598 -712l346 -752h-278l-238 571l-463 -571h-288z" />
    <glyph glyph-name="Y" unicode="Y" horiz-adv-x="1271" 
d="M172 1464h256l246 -680h2l516 680h264l-694 -882l-115 -582h-244l117 582z" />
    <glyph glyph-name="Z" unicode="Z" horiz-adv-x="1245" 
d="M279 1464h1077l-37 -207l-1024 -1046l-4 -4h844l-43 -207h-1139l39 207l1024 1046l4 4h-780z" />
    <glyph glyph-name="bracketleft" unicode="[" horiz-adv-x="665" 
d="M342 1556h465l-39 -200h-227l-275 -1407h228l-39 -201h-463z" />
    <glyph glyph-name="backslash" unicode="\" horiz-adv-x="778" 
d="M190 1464h193l283 -1464h-193z" />
    <glyph glyph-name="bracketright" unicode="]" horiz-adv-x="669" 
d="M729 1556l-352 -1808h-463l37 201h227l275 1407h-228l39 200h465z" />
    <glyph glyph-name="asciicircum" unicode="^" horiz-adv-x="935" 
d="M549 1464h190l244 -563h-217l-156 371h-2l-295 -371h-229z" />
    <glyph glyph-name="underscore" unicode="_" horiz-adv-x="851" 
d="M-135 -156h858l-39 -200h-860z" />
    <glyph glyph-name="grave" unicode="`" horiz-adv-x="960" 
d="M666 1481l34 -269h-163l-119 269h248z" />
    <glyph glyph-name="a" unicode="a" horiz-adv-x="1067" 
d="M983 702l-98 -499q-11 -60 2 -81.5t74 -15.5l-21 -100q-52 -24 -115 -24q-163 0 -166 141q-67 -71 -163 -112.5t-207 -41.5q-163 0 -242 89t-51 239q12 61 41.5 108t68 79t100.5 58.5t122.5 43.5t150.5 37q49 11 71.5 16.5t60 15.5t55 17.5t42.5 19.5t36.5 25t22.5 30.5
t15 38.5q10 56 -23.5 87.5t-129.5 31.5q-131 0 -198 -45.5t-97 -148.5h-207q39 171 164 267.5t348 96.5q92 0 161 -19.5t119.5 -63.5t65.5 -115t-2 -175zM709 403l34 152q-48 -36 -225 -72q-149 -30 -221.5 -73.5t-85.5 -116.5q-13 -71 26 -112.5t113 -41.5q138 0 234 70
t125 194z" />
    <glyph glyph-name="b" unicode="b" horiz-adv-x="1155" 
d="M735 1075q210 0 314.5 -154t54.5 -413q-49 -248 -204 -393.5t-355 -145.5q-114 0 -187 46t-110 112l-8 -6l-27 -121h-215l285 1464h215l-105 -544l2 6q58 66 144 107.5t196 41.5zM516 145q141 0 243 113t134 279q31 157 -21.5 259.5t-183.5 102.5q-137 0 -237.5 -105
t-135.5 -286q-32 -169 21 -266t180 -97z" />
    <glyph glyph-name="c" unicode="c" horiz-adv-x="1069" 
d="M852 657q4 48 -4 88.5t-29.5 76.5t-66.5 56.5t-109 20.5q-154 0 -253.5 -109.5t-131.5 -275.5q-10 -57 -11.5 -110.5t13.5 -100.5t41 -82t71 -55.5t105 -20.5q69 0 126.5 22.5t95 59t61 75t35.5 79.5h215q-48 -182 -197 -297t-346 -115q-238 0 -354 158t-66 410
q48 241 213.5 389.5t392.5 148.5q206 0 314.5 -117.5t93.5 -300.5h-209z" />
    <glyph glyph-name="d" unicode="d" horiz-adv-x="1155" 
d="M1020 1464h217l-285 -1464h-217l23 115q-142 -146 -338 -146q-102 0 -183 39.5t-130.5 113t-66 179t10.5 236.5q49 249 203.5 393.5t355.5 144.5q115 0 188 -46t109 -114l8 5zM840 537q32 169 -21 265.5t-180 96.5q-141 0 -243 -112t-134 -279q-17 -101 -4.5 -181.5
t67 -131t142.5 -50.5q135 0 236.5 106t136.5 286z" />
    <glyph glyph-name="e" unicode="e" horiz-adv-x="1099" 
d="M481 145q65 0 121 19t92.5 48.5t59.5 58.5t34 57h224q-70 -166 -209 -262.5t-330 -96.5q-247 0 -363.5 164t-64.5 422q51 247 211.5 383.5t392.5 136.5q253 0 355 -164t45 -448h-803q-27 -137 36.5 -227.5t198.5 -90.5zM639 905q-134 0 -236 -81.5t-127 -202.5h590
q23 132 -36.5 208t-190.5 76z" />
    <glyph glyph-name="f" unicode="f" horiz-adv-x="636" 
d="M750 1288q-111 5 -161.5 -21.5t-66.5 -113.5l-20 -106h194l-34 -177h-195l-170 -870h-215l170 870h-150l35 177h150l26 141q31 159 106 225t204 66q56 0 147 -17z" />
    <glyph glyph-name="g" unicode="g" horiz-adv-x="1136" 
d="M924 1047h215l-193 -981q-81 -428 -536 -428q-111 0 -199 28t-140.5 75t-80 103.5t-27.5 118.5h211q6 -73 59.5 -113t169.5 -40q140 0 222.5 68.5t111.5 209.5l23 119l-2 -4q-137 -152 -338 -152q-206 0 -311.5 140.5t-57.5 386.5q46 236 195.5 366.5t347.5 130.5
q207 0 295 -155l10 4zM469 227q138 0 232.5 90.5t127.5 260.5q30 159 -22 240t-180 81q-144 0 -239.5 -90t-125.5 -244q-29 -146 24 -242t183 -96z" />
    <glyph glyph-name="h" unicode="h" horiz-adv-x="1101" 
d="M752 1075q162 0 245.5 -93t49.5 -267l-140 -715h-217l131 668q21 112 -13 168.5t-138 56.5q-125 0 -218 -72.5t-116 -189.5l-125 -631h-215l285 1464h215l-107 -553l4 7q59 69 150.5 113t208.5 44z" />
    <glyph glyph-name="i" unicode="i" horiz-adv-x="442" 
d="M371 1223q-54 0 -88.5 35t-24.5 94q10 47 48 72.5t81 25.5q54 0 88 -35t23 -92q-8 -48 -45.5 -74t-81.5 -26zM215 1047h215l-205 -1047h-215z" />
    <glyph glyph-name="j" unicode="j" horiz-adv-x="440" 
d="M367 1223q-54 0 -88 35t-23 94q8 47 46 72.5t83 25.5q54 0 87.5 -35t23.5 -92q-10 -48 -47 -74t-82 -26zM211 1047h217l-215 -1102q-29 -154 -89.5 -227.5t-178.5 -73.5q-76 0 -170 24l16 162q108 -6 149 16.5t58 108.5z" />
    <glyph glyph-name="k" unicode="k" horiz-adv-x="1036" 
d="M281 1464h215l-164 -837l506 420h268l-473 -390l309 -657h-252l-229 516l-172 -137l-78 -379h-215z" />
    <glyph glyph-name="l" unicode="l" horiz-adv-x="423" 
d="M285 1464h217l-285 -1464h-217z" />
    <glyph glyph-name="m" unicode="m" horiz-adv-x="1667" 
d="M1348 1075q161 0 229 -94t35 -266l-142 -715h-217l131 668q13 72 12.5 122t-32 76.5t-100.5 26.5q-113 0 -194.5 -72t-104.5 -190l-123 -631h-217l129 668q14 72 14 122t-32 76.5t-101 26.5q-113 0 -194.5 -72t-104.5 -190l-125 -631h-215l205 1047h215l-27 -136l4 7
q134 157 332 157q217 0 250 -188l4 12q172 176 369 176z" />
    <glyph glyph-name="n" unicode="n" horiz-adv-x="1101" 
d="M758 1075q158 0 240.5 -93.5t48.5 -266.5l-140 -715h-217l131 668q21 111 -13.5 168t-135.5 57q-128 0 -220.5 -72.5t-115.5 -189.5l-125 -631h-215l205 1047h215l-27 -136l4 7q59 69 151.5 113t213.5 44z" />
    <glyph glyph-name="o" unicode="o" horiz-adv-x="1138" 
d="M449 -31q-239 0 -348 148.5t-62 390.5q48 253 225 410t426 157q238 0 346 -147.5t62 -390.5q-48 -252 -225 -410t-424 -158zM492 145q144 0 243.5 99.5t141.5 263.5q41 174 -17.5 282.5t-210.5 108.5q-146 0 -246.5 -99.5t-140.5 -262.5q-43 -173 16 -282.5t214 -109.5z
" />
    <glyph glyph-name="p" unicode="p" horiz-adv-x="1157" 
d="M739 1075q207 0 312 -154t55 -413q-49 -248 -203.5 -393.5t-353.5 -145.5q-117 0 -190 46t-109 116l-10 -6l-93 -481h-217l275 1403h215l-25 -123l2 6q141 145 342 145zM516 145q142 0 243.5 112.5t135.5 279.5q29 157 -23 259.5t-184 102.5q-135 0 -235.5 -105
t-135.5 -286q-34 -169 19.5 -266t179.5 -97z" />
    <glyph glyph-name="q" unicode="q" horiz-adv-x="1157" 
d="M940 1047h217l-272 -1403h-217l94 481l-2 -4q-133 -152 -344 -152q-207 0 -311.5 155.5t-53.5 412.5q48 248 202.5 393t352.5 145q117 0 190.5 -45t110.5 -110l8 4zM467 145q135 0 236.5 106t136.5 286q32 169 -21 265.5t-180 96.5q-141 0 -243 -112t-134 -279
q-17 -101 -4.5 -181.5t67 -131t142.5 -50.5z" />
    <glyph glyph-name="r" unicode="r" horiz-adv-x="727" 
d="M690 1071q59 0 98 -8l-32 -201q-151 25 -280 -72t-161 -262l-104 -528h-215l205 1047h215l-39 -197l4 6q131 215 309 215z" />
    <glyph glyph-name="s" unicode="s" horiz-adv-x="991" 
d="M551 627q66 -20 113.5 -38t100 -49.5t83 -67.5t46 -90t5.5 -120q-13 -100 -74 -167.5t-149.5 -96.5t-202.5 -29q-237 0 -359 103.5t-122 269.5h209q-3 -91 65 -147t211 -56q94 0 147.5 34t61.5 91q7 45 -5 75.5t-51.5 53t-73 34.5t-105.5 32q-59 17 -101 33t-95 46
t-84.5 65t-49 89.5t-8.5 120.5q13 122 124 192t287 70q107 0 190.5 -27.5t133.5 -74.5t75 -105t25 -123h-205q2 68 -54.5 114t-170.5 46q-86 0 -137 -26.5t-57 -73.5q-5 -39 6.5 -66t42 -45.5t65.5 -31.5t91 -29q7 -2 12 -3.5t10 -2.5z" />
    <glyph glyph-name="t" unicode="t" horiz-adv-x="641" 
d="M668 870h-197l-113 -573q-9 -44 -3 -69.5t26.5 -37.5t57 -13.5t89.5 1.5l-22 -178q-66 -14 -146 -14q-138 0 -194 72.5t-25 232.5l113 579h-152l35 177h152l65 329h215l-63 -329h196z" />
    <glyph glyph-name="u" unicode="u" horiz-adv-x="1099" 
d="M887 1047h215l-205 -1047h-215l27 133l-2 -4q-140 -160 -367 -160q-158 0 -240.5 94t-48.5 267l139 717h218l-132 -670q-21 -110 14.5 -166.5t137.5 -56.5q127 0 219.5 72.5t114.5 189.5z" />
    <glyph glyph-name="v" unicode="v" horiz-adv-x="987" 
d="M98 1047h224l106 -820h2l424 820h229l-573 -1047h-244z" />
    <glyph glyph-name="w" unicode="w" horiz-adv-x="1538" 
d="M104 1047h224l59 -795h4l367 795h211l61 -795h4l367 795h229l-524 -1047h-217l-68 799h-4l-379 -799h-217z" />
    <glyph glyph-name="x" unicode="x" horiz-adv-x="1056" 
d="M141 1047h240l166 -369h4l309 369h248l-455 -512l287 -535h-248l-190 393h-4l-346 -393h-254l495 535z" />
    <glyph glyph-name="y" unicode="y" horiz-adv-x="1032" 
d="M1124 1047l-632 -1119q-40 -71 -71 -114.5t-75.5 -86.5t-100 -63t-126.5 -20q-72 0 -158 22l27 162l10 -2q140 -19 219 65q42 35 67.5 95t14.5 129l-201 932h228l137 -801h4l424 801h233z" />
    <glyph glyph-name="z" unicode="z" horiz-adv-x="964" 
d="M-23 160l703 706l2 4h-526l34 177h816l-27 -144l-717 -723l-2 -4h598l-35 -176h-874z" />
    <glyph glyph-name="braceleft" unicode="{" horiz-adv-x="667" 
d="M86 754q133 -3 168 180l43 231q20 102 50 172.5t66 113.5t91 66.5t112 31t142 7.5h51l-39 -200h-39q-158 0 -199 -199l-55 -289q-16 -84 -55.5 -133t-106.5 -82l-14 -4q120 -70 90 -225l-55 -283q-22 -112 5.5 -152t102.5 -40h52l-39 -201h-37q-69 0 -119.5 6.5t-94 23.5
t-69.5 47t-40.5 75.5t-13 110t18.5 149.5l45 223q9 53 9 90.5t-23.5 58.5t-73.5 21z" />
    <glyph glyph-name="bar" unicode="|" horiz-adv-x="120" 
d="M188 1530h170l-348 -1798h-170z" />
    <glyph glyph-name="braceright" unicode="}" horiz-adv-x="669" 
d="M659 754l-26 -201q-73 0 -111 -48t-55 -134l-43 -226q-20 -103 -50 -173.5t-66.5 -114.5t-91 -68t-112.5 -32.5t-143 -8.5h-49l37 201h39q160 0 200 205l56 282q17 86 55.5 135.5t106.5 81.5l14 4q-121 69 -90 224l55 290q21 106 -7.5 145.5t-103.5 39.5h-51l39 200h39
q59 0 103.5 -4.5t85 -16t67 -31t46.5 -50t27.5 -73t4.5 -100t-17 -130.5l-45 -229q-9 -53 -9.5 -90.5t22.5 -58t73 -19.5z" />
    <glyph glyph-name="asciitilde" unicode="~" horiz-adv-x="854" 
d="M72 539q25 131 86.5 201.5t154.5 70.5q57 0 104.5 -22t82 -44t61.5 -22q48 0 77 30.5t34 65.5l162 -14q-27 -131 -89 -202t-153 -71q-57 0 -104.5 23t-83 45.5t-62.5 22.5q-47 0 -75 -30.5t-36 -66.5z" />
    <glyph glyph-name="exclamdown" unicode="&#xa1;" horiz-adv-x="505" 
d="M367 1214q61 0 95 -41t21 -106q-10 -53 -49.5 -86t-91.5 -33q-61 0 -95.5 42.5t-21.5 105.5q10 54 50 86t92 32zM-23 -266l76 387l187 667h120l-71 -667l-76 -387h-236z" />
    <glyph glyph-name="cent" unicode="&#xa2;" horiz-adv-x="1069" 
d="M1059 657h-209q4 43 -2 81.5t-24 72.5t-53.5 57t-86.5 29l-145 -745q54 9 99.5 33.5t75.5 58t49.5 67.5t29.5 70h215q-45 -172 -182.5 -286t-321.5 -124l-31 -159h-123l33 163q-199 28 -290.5 181t-47.5 381q44 225 193.5 371t357.5 165l27 139h122l-26 -141
q174 -20 264 -134t76 -280zM256 514q-14 -87 -8 -161.5t49.5 -130t118.5 -70.5l143 739q-120 -28 -197.5 -131t-105.5 -246z" />
    <glyph glyph-name="sterling" unicode="&#xa3;" horiz-adv-x="1128" 
d="M1180 944h-234q54 287 -211 287q-122 0 -196.5 -64.5t-96.5 -167.5q-7 -37 -7.5 -71t5.5 -65.5t11.5 -50.5t15.5 -48h319l-18 -182h-274q0 -27 -5 -56q-36 -180 -188 -290q81 34 148 34q59 0 108 -22t93.5 -44t92.5 -22q42 0 86.5 16t73.5 33t76 50l68 -191
q-90 -62 -159 -91.5t-155 -29.5q-63 0 -117.5 20t-87 43.5t-76.5 43.5t-87 20q-65 0 -123.5 -22.5t-153.5 -77.5l-98 180q98 50 172 143.5t100 204.5q11 25 8 58h-180l35 182h111l-6 20q-6 20 -6.5 22.5t-5.5 22t-6 25t-4.5 24t-3.5 28.5t-1 28t0.5 32t3.5 32t6 36
q11 54 33.5 106.5t66.5 106.5t102 94.5t145.5 66.5t191.5 26q106 0 188 -25t134 -69.5t83 -105.5t34 -134.5t-11 -155.5z" />
    <glyph glyph-name="currency" unicode="&#xa4;" horiz-adv-x="856" 
d="M862 694q-24 -124 -102 -217l104 -125l-135 -114l-100 122q-106 -63 -236 -63q-132 0 -219 74l-158 -133l-96 114l158 135q-43 98 -21 236q29 129 105 219l-103 123l131 115l105 -125q106 63 233 63q133 0 217 -71l158 131l101 -113l-162 -135q46 -97 20 -236zM244 700
q-23 -123 19.5 -185t142.5 -62q99 0 173 70t97 192q24 122 -18.5 185t-141.5 63t-173.5 -70.5t-98.5 -192.5z" />
    <glyph glyph-name="yen" unicode="&#xa5;" horiz-adv-x="1202" 
d="M1354 1405l-588 -780h317l-24 -123h-352l-23 -117h352l-24 -123h-353l-51 -262h-235l51 262h-352l24 123h353l22 117h-352l24 123h322l-285 780h254l203 -637h4l449 637h264z" />
    <glyph glyph-name="brokenbar" unicode="&#xa6;" horiz-adv-x="108" 
d="M143 1530h168l-143 -744h-170zM-57 502h170l-150 -770h-170z" />
    <glyph glyph-name="section" unicode="&#xa7;" horiz-adv-x="1214" 
d="M1151 467q-44 -211 -285 -274q70 -110 45 -248q-26 -136 -143.5 -220.5t-312.5 -84.5q-110 0 -190 29.5t-121.5 80.5t-56 113.5t-3.5 134.5l213 -12q-1 -27 -3 -52t6.5 -47.5t25 -39.5t51.5 -27t86 -10q205 0 233 145q6 29 -3.5 58.5t-24 51.5t-46.5 50t-52.5 43
t-61.5 42.5t-55 37.5q-24 14 -70 40q-38 21 -56.5 31.5t-51.5 30.5t-49 32l-42 31.5t-38 35t-29 36.5t-23.5 41.5t-12.5 44.5t-5.5 51t6.5 56q41 207 287 274q-72 110 -47 248q28 136 145.5 220.5t310.5 84.5q111 0 190.5 -29.5t120.5 -80.5t56 -113t4 -135l-213 12
q6 33 2.5 64.5t-16 56.5t-51.5 40t-103 15q-203 0 -231 -145q-7 -38 7.5 -74.5t51 -70.5t68 -57.5t80.5 -55.5q26 -17 38 -25q14 -8 43 -25q79 -46 117 -69.5t93 -66t77.5 -77.5t36 -85t2.5 -107zM727 295q182 41 207 172q7 36 -8 66t-58 62.5t-90 61.5t-131 81t-155 102
q-95 -19 -141.5 -62t-57.5 -110q-6 -30 7.5 -59.5t38 -54.5t70.5 -57t88.5 -58t110.5 -68t119 -76z" />
    <glyph glyph-name="dieresis" unicode="&#xa8;" horiz-adv-x="1021" 
d="M381 1378q8 45 42.5 76t84.5 31q61 0 89 -39t17 -96q-8 -43 -42 -73t-83 -30q-62 0 -90.5 38t-17.5 93zM731 1378q8 45 42 76t83 31q61 0 90.5 -39.5t18.5 -95.5q-8 -43 -42.5 -73t-84.5 -30q-61 0 -89.5 38t-17.5 93z" />
    <glyph glyph-name="copyright" unicode="&#xa9;" horiz-adv-x="1619" 
d="M727 -33q-230 0 -389 107.5t-220.5 295.5t-15.5 423q29 151 105 280t187.5 223t261 147.5t317.5 53.5q230 0 388.5 -108t219 -296t14.5 -423q-39 -202 -156.5 -360.5t-302.5 -250.5t-409 -92zM739 55q148 0 278.5 50.5t225.5 138t159.5 204t90.5 250.5
q38 197 -11.5 358.5t-181.5 257t-323 95.5q-150 0 -283 -50.5t-231 -138t-164 -204.5t-92 -252q-39 -195 14 -357t189 -257t329 -95zM1092 862q2 25 -4 50.5t-22.5 53.5t-54.5 46t-93 18q-246 0 -306 -313q-14 -58 -10.5 -109.5t20.5 -90t59 -61t105 -22.5q60 0 108.5 18.5
t77.5 48.5t44.5 54t25.5 49h181q-38 -145 -158 -238.5t-287 -93.5q-205 0 -296 129.5t-50 343.5q39 199 173 323t325 124q117 0 199 -47t115.5 -120.5t25.5 -162.5h-178z" />
    <glyph glyph-name="guillemotleft" unicode="&#xab;" horiz-adv-x="800" 
d="M39 403l41 226l342 252l-39 -209l-213 -154l-2 -4l151 -154l-36 -208zM426 403l39 226l342 252l-39 -209l-213 -154l-2 -4l152 -154l-37 -208z" />
    <glyph glyph-name="logicalnot" unicode="&#xac;" horiz-adv-x="1118" 
d="M758 635h-629l41 201h858l-108 -547h-230z" />
    <glyph glyph-name="registered" unicode="&#xae;" horiz-adv-x="1046" 
d="M553 506q-103 0 -191.5 42t-146 112.5t-81.5 169.5t-3 206q40 208 189.5 334.5t359.5 126.5q103 0 191.5 -42t146 -112.5t81.5 -169.5t3 -206q-40 -208 -189.5 -334.5t-359.5 -126.5zM557 594q183 0 301.5 106.5t155.5 294.5q16 84 -4 161.5t-67 132.5t-117.5 87.5
t-151.5 32.5q-182 0 -300.5 -107t-154.5 -294q-33 -170 69.5 -292t268.5 -122zM377 741l104 529h219q83 0 125 -45t27 -121q-18 -97 -113 -119l-16 -2q33 -6 49.5 -32.5t15.5 -59t-3.5 -66t-7 -55t4.5 -25.5l6 -4l-100 4q-7 8 -1.5 29.5t7.5 51t1 56.5t-21 45.5t-60 18.5
h-96l-39 -205h-102zM563 1182l-26 -148h84q117 0 133 86q3 18 -1 30.5t-10.5 18.5t-22.5 9t-25.5 3.5t-32.5 0.5h-99z" />
    <glyph glyph-name="macron" unicode="&#xaf;" horiz-adv-x="1013" 
d="M410 1434h546l-30 -164h-547z" />
    <glyph glyph-name="degree" unicode="&#xb0;" horiz-adv-x="737" 
d="M449 874q-62 0 -112.5 19t-82 51t-52 74t-23 88t4.5 94q11 54 40 105t73 94t108 69.5t136 26.5q100 0 166.5 -49.5t88.5 -122t7 -152.5q-11 -54 -40.5 -105.5t-73 -95t-106.5 -70t-134 -26.5zM467 1012q76 0 128.5 47.5t66.5 120.5q17 86 -24 132t-118 46
q-75 0 -127.5 -47t-66.5 -119q-17 -86 23.5 -133t117.5 -47z" />
    <glyph glyph-name="plusminus" unicode="&#xb1;" horiz-adv-x="1144" 
d="M117 627l39 200h374l64 330h203l-66 -330h375l-39 -200h-373l-65 -330h-203l66 330h-375zM29 176h952l-37 -176h-950z" />
    <glyph glyph-name="acute" unicode="&#xb4;" horiz-adv-x="1003" 
d="M670 1481h254l-222 -269h-172z" />
    <glyph glyph-name="paragraph" unicode="&#xb6;" horiz-adv-x="1146" 
d="M575 686h-86q-197 0 -282.5 103t-48.5 294q36 182 155.5 281.5t315.5 99.5h575l-284 -1464h-164l254 1294h-154l-252 -1294h-164z" />
    <glyph glyph-name="periodcentered" unicode="&#xb7;" horiz-adv-x="421" 
d="M221 502q-62 0 -95.5 41t-21.5 106q10 53 50 86t92 33q62 0 96.5 -41.5t22.5 -105.5q-10 -54 -51 -86.5t-93 -32.5z" />
    <glyph glyph-name="cedilla" unicode="&#xb8;" horiz-adv-x="1030" 
d="M475 -16l-100 -101l-13 -4q50 6 95.5 -5t74 -46.5t19.5 -89.5q-13 -65 -84.5 -103t-161.5 -38q-133 0 -221 63l49 51q65 -26 137 -26q51 0 90.5 23.5t45.5 60.5q4 23 -13 32t-59 9q-48 0 -86 -17l-29 45l141 146h115z" />
    <glyph glyph-name="guillemotright" unicode="&#xbb;" horiz-adv-x="800" 
d="M332 403l-342 -251l37 208l213 154l4 4l-152 154l37 209l242 -252zM717 403l-340 -251l37 208l213 154l4 4l-152 154l35 209l242 -252z" />
    <glyph glyph-name="questiondown" unicode="&#xbf;" horiz-adv-x="1060" 
d="M686 1214q62 0 95.5 -41t21.5 -106q-10 -53 -50.5 -86t-93.5 -33q-61 0 -94.5 42t-21.5 106q10 54 50.5 86t92.5 32zM735 195h234q-35 -225 -183.5 -358.5t-398.5 -133.5q-133 0 -234.5 52t-149.5 145t-28 206q8 49 31 92.5t47 72t69.5 62t73.5 50t85 49.5
q117 65 172 138t84 212h206q-24 -166 -76 -261.5t-171 -176.5q-28 -19 -72 -44t-74 -43t-62 -43t-52.5 -57.5t-28.5 -72.5q-13 -78 45.5 -128t161.5 -50q264 0 321 289z" />
    <glyph glyph-name="Agrave" unicode="&#xc0;" horiz-adv-x="1355" 
d="M926 1901l37 -269h-166l-117 269h246zM946 346h-598l-186 -346h-250l821 1464h258l250 -1464h-244zM455 549h463l-95 692h-4z" />
    <glyph glyph-name="Aacute" unicode="&#xc1;" horiz-adv-x="1355" 
d="M938 1901h256l-223 -269h-172zM946 346h-598l-186 -346h-250l821 1464h258l250 -1464h-244zM455 549h463l-95 692h-4z" />
    <glyph glyph-name="Acircumflex" unicode="&#xc2;" horiz-adv-x="1355" 
d="M571 1632l250 269h228l147 -269h-199l-75 162h-4l-140 -162h-207zM946 346h-598l-186 -346h-250l821 1464h258l250 -1464h-244zM455 549h463l-95 692h-4z" />
    <glyph glyph-name="Atilde" unicode="&#xc3;" horiz-adv-x="1355" 
d="M600 1681q22 112 72.5 162.5t118.5 50.5q45 0 92.5 -18t85 -36.5t59.5 -18.5q36 0 57 24t27 53l135 -12q-43 -213 -188 -213q-46 0 -94.5 18.5t-86.5 37t-59 18.5q-37 0 -57.5 -24.5t-26.5 -53.5zM946 346h-598l-186 -346h-250l821 1464h258l250 -1464h-244zM455 549h463
l-95 692h-4z" />
    <glyph glyph-name="Adieresis" unicode="&#xc4;" horiz-adv-x="1355" 
d="M627 1798q10 44 44.5 74.5t84.5 30.5q60 0 87.5 -38.5t18.5 -95.5q-8 -44 -42.5 -74t-84.5 -30q-61 0 -89 38t-19 95zM977 1798q10 44 44 74.5t83 30.5q61 0 89 -39t17 -95q-8 -44 -41.5 -74t-83.5 -30q-61 0 -89 38t-19 95zM946 346h-598l-186 -346h-250l821 1464h258
l250 -1464h-244zM455 549h463l-95 692h-4z" />
    <glyph glyph-name="Aring" unicode="&#xc5;" horiz-adv-x="1355" 
d="M887 1604q-84 0 -131.5 55.5t-30.5 144.5q15 76 75 125t134 49q84 0 133 -57.5t31 -144.5q-17 -77 -77 -124.5t-134 -47.5zM891 1696q46 0 76.5 27.5t36.5 68.5q9 47 -12.5 70.5t-61.5 23.5q-47 0 -76 -27t-37 -69q-9 -47 12.5 -70.5t61.5 -23.5zM946 346h-598l-186 -346
h-250l821 1464h258l250 -1464h-244zM455 549h463l-95 692h-4z" />
    <glyph glyph-name="AE" unicode="&#xc6;" horiz-adv-x="2029" 
d="M1063 207h835l-40 -207h-1080l68 346h-494l-186 -348h-250l829 1466h1377l-41 -207h-813l-78 -397h715l-41 -209h-713zM459 547h426l137 706h-188z" />
    <glyph glyph-name="Ccedilla" unicode="&#xc7;" horiz-adv-x="1413" 
d="M899 1286q-117 0 -215 -46.5t-166.5 -127t-114 -180t-67.5 -213.5q-17 -87 -17.5 -165t18.5 -147.5t58 -119.5t106 -79.5t156 -29.5q100 0 184 31t140.5 83.5t94 111t57.5 124.5h241q-71 -242 -248 -393t-428 -164l-94 -88l-12 -4q81 10 142.5 -26t45.5 -115
q-8 -43 -45 -76t-88.5 -49t-109.5 -16q-137 0 -222 63l50 51q62 -26 137 -26q51 0 90 23.5t45 60.5q4 23 -13 32t-61 9q-43 0 -86 -17l-26 45l135 133q-189 15 -314.5 119t-170 274.5t-3.5 383.5q42 216 156.5 385t287.5 265.5t376 96.5q138 0 246.5 -42.5t174 -116
t96 -171.5t21.5 -211h-237q0 332 -320 332z" />
    <glyph glyph-name="Egrave" unicode="&#xc8;" horiz-adv-x="1271" 
d="M907 1901l37 -269h-166l-116 269h245zM430 860h715l-39 -209h-717l-86 -444h836l-41 -207h-1080l285 1464h1059l-39 -207h-815z" />
    <glyph glyph-name="Eacute" unicode="&#xc9;" horiz-adv-x="1271" 
d="M920 1901h256l-224 -269h-172zM430 860h715l-39 -209h-717l-86 -444h836l-41 -207h-1080l285 1464h1059l-39 -207h-815z" />
    <glyph glyph-name="Ecircumflex" unicode="&#xca;" horiz-adv-x="1271" 
d="M553 1632l250 269h227l148 -269h-199l-76 162h-4l-139 -162h-207zM430 860h715l-39 -209h-717l-86 -444h836l-41 -207h-1080l285 1464h1059l-39 -207h-815z" />
    <glyph glyph-name="Edieresis" unicode="&#xcb;" horiz-adv-x="1271" 
d="M608 1798q10 44 44.5 74.5t84.5 30.5q61 0 88.5 -38.5t18.5 -95.5q-8 -44 -42.5 -74t-84.5 -30q-61 0 -89.5 38.5t-19.5 94.5zM958 1798q10 44 44 74.5t83 30.5q61 0 89.5 -39t17.5 -95q-8 -44 -41.5 -74t-83.5 -30q-61 0 -89.5 38.5t-19.5 94.5zM430 860h715l-39 -209
h-717l-86 -444h836l-41 -207h-1080l285 1464h1059l-39 -207h-815z" />
    <glyph glyph-name="Igrave" unicode="&#xcc;" horiz-adv-x="477" 
d="M475 1901l35 -269h-166l-117 269h248zM289 1464h243l-284 -1464h-244z" />
    <glyph glyph-name="Iacute" unicode="&#xcd;" horiz-adv-x="495" 
d="M506 1901h254l-223 -269h-172zM307 1464h244l-285 -1464h-243z" />
    <glyph glyph-name="Icircumflex" unicode="&#xce;" horiz-adv-x="495" 
d="M135 1632l250 269h227l148 -269h-199l-76 162h-4l-139 -162h-207zM305 1464h242l-285 -1464h-242z" />
    <glyph glyph-name="Idieresis" unicode="&#xcf;" horiz-adv-x="509" 
d="M201 1798q10 44 43.5 74.5t83.5 30.5q61 0 89 -39t17 -95q-8 -44 -41.5 -74t-83.5 -30q-62 0 -89.5 38t-18.5 95zM551 1798q8 44 42.5 74.5t84.5 30.5q61 0 89 -39t17 -95q-8 -43 -42 -73.5t-83 -30.5q-62 0 -90.5 38.5t-17.5 94.5zM313 1464h244l-285 -1464h-243z" />
    <glyph glyph-name="Eth" unicode="&#xd0;" horiz-adv-x="1415" 
d="M883 1464q306 0 444 -196t70 -551q-67 -345 -271 -531t-508 -186h-583l133 680h-129l31 156h129l120 628h564zM627 207q96 0 176 29t137 77.5t101 118.5t71.5 146.5t44.5 166.5q17 86 20 158t-13 139t-53 113.5t-104.5 74t-162.5 27.5h-320l-82 -421h414l-29 -156h-415
l-93 -473h308z" />
    <glyph glyph-name="Ntilde" unicode="&#xd1;" horiz-adv-x="1423" 
d="M633 1681q22 112 71.5 162.5t116.5 50.5q58 0 137.5 -36.5t102.5 -36.5q36 0 56 24t26 53l135 -12q-41 -213 -188 -213q-46 0 -94 18.5t-86.5 37t-59.5 18.5q-35 0 -55.5 -24.5t-26.5 -53.5zM18 0l285 1464h270l447 -1099h8l211 1099h244l-285 -1464h-268l-449 1096h-4
l-215 -1096h-244z" />
    <glyph glyph-name="Ograve" unicode="&#xd2;" horiz-adv-x="1542" 
d="M1016 1901l35 -269h-166l-115 269h246zM674 -31q-132 0 -240 38t-181.5 107t-120 166t-54 214.5t15.5 253.5q31 161 107.5 298.5t186 237t253 155.5t303.5 56q220 0 368.5 -100.5t203.5 -276t12 -399.5q-42 -216 -160.5 -386t-299.5 -267t-394 -97zM690 178q124 0 229 46
t178 126t121.5 180.5t71.5 217.5q14 88 15.5 167t-22.5 147t-66.5 118t-115.5 78t-169 28q-125 0 -230 -45.5t-178.5 -125t-121.5 -179.5t-70 -217q-14 -88 -15.5 -167.5t22.5 -148t66.5 -118.5t115.5 -78.5t169 -28.5z" />
    <glyph glyph-name="Oacute" unicode="&#xd3;" horiz-adv-x="1542" 
d="M1028 1901h254l-221 -269h-172zM674 -31q-132 0 -240 38t-181.5 107t-120 166t-54 214.5t15.5 253.5q31 161 107.5 298.5t186 237t253 155.5t303.5 56q220 0 368.5 -100.5t203.5 -276t12 -399.5q-42 -216 -160.5 -386t-299.5 -267t-394 -97zM690 178q124 0 229 46
t178 126t121.5 180.5t71.5 217.5q14 88 15.5 167t-22.5 147t-66.5 118t-115.5 78t-169 28q-125 0 -230 -45.5t-178.5 -125t-121.5 -179.5t-70 -217q-14 -88 -15.5 -167.5t22.5 -148t66.5 -118.5t115.5 -78.5t169 -28.5z" />
    <glyph glyph-name="Ocircumflex" unicode="&#xd4;" horiz-adv-x="1542" 
d="M662 1632l249 269h228l147 -269h-201l-73 162h-4l-142 -162h-204zM674 -31q-132 0 -240 38t-181.5 107t-120 166t-54 214.5t15.5 253.5q31 161 107.5 298.5t186 237t253 155.5t303.5 56q220 0 368.5 -100.5t203.5 -276t12 -399.5q-42 -216 -160.5 -386t-299.5 -267
t-394 -97zM690 178q124 0 229 46t178 126t121.5 180.5t71.5 217.5q14 88 15.5 167t-22.5 147t-66.5 118t-115.5 78t-169 28q-125 0 -230 -45.5t-178.5 -125t-121.5 -179.5t-70 -217q-14 -88 -15.5 -167.5t22.5 -148t66.5 -118.5t115.5 -78.5t169 -28.5z" />
    <glyph glyph-name="Otilde" unicode="&#xd5;" horiz-adv-x="1542" 
d="M690 1681q22 112 72 162.5t117 50.5q45 0 93 -18t86 -36.5t60 -18.5q36 0 56 24t26 53l137 -12q-43 -213 -190 -213q-45 0 -93 18.5t-86.5 37t-60.5 18.5q-35 0 -55.5 -24.5t-26.5 -53.5zM674 -31q-132 0 -240 38t-181.5 107t-120 166t-54 214.5t15.5 253.5
q31 161 107.5 298.5t186 237t253 155.5t303.5 56q220 0 368.5 -100.5t203.5 -276t12 -399.5q-42 -216 -160.5 -386t-299.5 -267t-394 -97zM690 178q124 0 229 46t178 126t121.5 180.5t71.5 217.5q14 88 15.5 167t-22.5 147t-66.5 118t-115.5 78t-169 28q-125 0 -230 -45.5
t-178.5 -125t-121.5 -179.5t-70 -217q-14 -88 -15.5 -167.5t22.5 -148t66.5 -118.5t115.5 -78.5t169 -28.5z" />
    <glyph glyph-name="Odieresis" unicode="&#xd6;" horiz-adv-x="1542" 
d="M717 1798q10 44 43.5 74.5t83.5 30.5q61 0 89 -39t17 -95q-8 -44 -41.5 -74t-83.5 -30q-61 0 -89 38t-19 95zM1067 1798q8 44 42.5 74.5t84.5 30.5q61 0 89 -39t17 -95q-8 -44 -41 -74t-83 -30q-62 0 -91 38.5t-18 94.5zM674 -31q-132 0 -240 38t-181.5 107t-120 166
t-54 214.5t15.5 253.5q31 161 107.5 298.5t186 237t253 155.5t303.5 56q220 0 368.5 -100.5t203.5 -276t12 -399.5q-42 -216 -160.5 -386t-299.5 -267t-394 -97zM690 178q124 0 229 46t178 126t121.5 180.5t71.5 217.5q14 88 15.5 167t-22.5 147t-66.5 118t-115.5 78
t-169 28q-125 0 -230 -45.5t-178.5 -125t-121.5 -179.5t-70 -217q-14 -88 -15.5 -167.5t22.5 -148t66.5 -118.5t115.5 -78.5t169 -28.5z" />
    <glyph glyph-name="multiply" unicode="&#xd7;" horiz-adv-x="1110" 
d="M1087 973l-364 -305l246 -303l-166 -144l-246 303l-362 -303l-121 144l364 303l-245 305l163 143l246 -305l365 305z" />
    <glyph glyph-name="Oslash" unicode="&#xd8;" horiz-adv-x="1550" 
d="M1665 1384l-203 -174q106 -201 51 -491q-42 -216 -160.5 -386t-299.5 -267t-394 -97q-150 0 -266 49t-190 136l-174 -146l-64 76l178 152q-124 208 -63 512q31 161 107 299t185.5 237t253.5 155t304 56q159 0 279 -53t194 -148l194 164zM317 719q-38 -191 13 -330
l899 756q-96 141 -314 141q-124 0 -229 -45.5t-178 -125t-121 -179.5t-70 -217zM1276 748q33 175 -6 305l-895 -752q96 -123 301 -123q124 0 229 46t178 126t121.5 180.5t71.5 217.5z" />
    <glyph glyph-name="Ugrave" unicode="&#xd9;" horiz-adv-x="1361" 
d="M926 1901l35 -269h-166l-117 269h248zM1251 494q-48 -249 -212 -387t-455 -138q-152 0 -259 39t-162 110t-73 170t8 220l185 956h243l-186 -970q-32 -166 31 -241t229 -75q346 0 410 330l186 956h242z" />
    <glyph glyph-name="Uacute" unicode="&#xda;" horiz-adv-x="1361" 
d="M938 1901h254l-223 -269h-172zM1251 494q-48 -249 -212 -387t-455 -138q-152 0 -259 39t-162 110t-73 170t8 220l185 956h243l-186 -970q-32 -166 31 -241t229 -75q346 0 410 330l186 956h242z" />
    <glyph glyph-name="Ucircumflex" unicode="&#xdb;" horiz-adv-x="1361" 
d="M571 1632l248 269h228l147 -269h-199l-73 162h-4l-142 -162h-205zM1251 494q-48 -249 -212 -387t-455 -138q-152 0 -259 39t-162 110t-73 170t8 220l185 956h243l-186 -970q-32 -166 31 -241t229 -75q346 0 410 330l186 956h242z" />
    <glyph glyph-name="Udieresis" unicode="&#xdc;" horiz-adv-x="1361" 
d="M627 1798q8 44 42.5 74.5t84.5 30.5q61 0 89 -39t17 -95q-8 -43 -42 -73.5t-83 -30.5q-62 0 -90.5 38.5t-17.5 94.5zM975 1798q10 44 44.5 74.5t84.5 30.5q61 0 89 -39t17 -95q-8 -44 -42.5 -74t-84.5 -30q-61 0 -89 38t-19 95zM1251 494q-48 -249 -212 -387t-455 -138
q-152 0 -259 39t-162 110t-73 170t8 220l185 956h243l-186 -970q-32 -166 31 -241t229 -75q346 0 410 330l186 956h242z" />
    <glyph glyph-name="Yacute" unicode="&#xdd;" horiz-adv-x="1271" 
d="M889 1901h254l-221 -269h-174zM172 1464h256l246 -680h2l516 680h264l-694 -882l-115 -582h-244l117 582z" />
    <glyph glyph-name="Thorn" unicode="&#xde;" horiz-adv-x="1269" 
d="M18 0l285 1464h242l-43 -233h372q222 0 333 -113t69 -340q-43 -216 -190.5 -320t-368.5 -104h-387l-70 -354h-242zM461 1024l-90 -463h362q255 0 303 246q23 114 -26 165.5t-174 51.5h-375z" />
    <glyph glyph-name="germandbls" unicode="&#xdf;" horiz-adv-x="1073" 
d="M412 1028l-201 -1028h-215l203 1044q42 212 177 331.5t351 119.5q116 0 204.5 -48t131 -137t20.5 -200q-23 -117 -94.5 -187.5t-179.5 -113.5l-14 -2q129 -43 187.5 -152t27.5 -272q-35 -181 -167 -297.5t-298 -116.5q-97 0 -209 33l20 172q124 -42 218 -12t152 101
t77 169q16 81 0.5 141t-56 92t-90 47t-108.5 15h-64l31 164h45q67 0 130 24t112.5 77t64.5 126q16 85 -21 143t-128 58q-135 0 -207 -76t-100 -215z" />
    <glyph glyph-name="agrave" unicode="&#xe0;" horiz-adv-x="1067" 
d="M745 1212h-163l-119 269h248zM983 702l-98 -499q-11 -60 2 -81.5t74 -15.5l-21 -100q-52 -24 -115 -24q-163 0 -166 141q-67 -71 -163 -112.5t-207 -41.5q-163 0 -242 89t-51 239q12 61 41.5 108t68 79t100.5 58.5t122.5 43.5t150.5 37q49 11 71.5 16.5t60 15.5t55 17.5
t42.5 19.5t36.5 25t22.5 30.5t15 38.5q10 56 -23.5 87.5t-129.5 31.5q-131 0 -198 -45.5t-97 -148.5h-207q39 171 164 267.5t348 96.5q92 0 161 -19.5t119.5 -63.5t65.5 -115t-2 -175zM709 403l34 152q-48 -36 -225 -72q-149 -30 -221.5 -73.5t-85.5 -116.5
q-13 -71 26 -112.5t113 -41.5q138 0 234 70t125 194z" />
    <glyph glyph-name="aacute" unicode="&#xe1;" horiz-adv-x="1067" 
d="M977 1481l-221 -269h-174l141 269h254zM983 702l-98 -499q-11 -60 2 -81.5t74 -15.5l-21 -100q-52 -24 -115 -24q-163 0 -166 141q-67 -71 -163 -112.5t-207 -41.5q-163 0 -242 89t-51 239q12 61 41.5 108t68 79t100.5 58.5t122.5 43.5t150.5 37q49 11 71.5 16.5t60 15.5
t55 17.5t42.5 19.5t36.5 25t22.5 30.5t15 38.5q10 56 -23.5 87.5t-129.5 31.5q-131 0 -198 -45.5t-97 -148.5h-207q39 171 164 267.5t348 96.5q92 0 161 -19.5t119.5 -63.5t65.5 -115t-2 -175zM709 403l34 152q-48 -36 -225 -72q-149 -30 -221.5 -73.5t-85.5 -116.5
q-13 -71 26 -112.5t113 -41.5q138 0 234 70t125 194z" />
    <glyph glyph-name="acircumflex" unicode="&#xe2;" horiz-adv-x="1067" 
d="M705 1374l-142 -162h-209l250 269h227l148 -269h-197zM983 702l-98 -499q-11 -60 2 -81.5t74 -15.5l-21 -100q-52 -24 -115 -24q-163 0 -166 141q-67 -71 -163 -112.5t-207 -41.5q-163 0 -242 89t-51 239q12 61 41.5 108t68 79t100.5 58.5t122.5 43.5t150.5 37
q49 11 71.5 16.5t60 15.5t55 17.5t42.5 19.5t36.5 25t22.5 30.5t15 38.5q10 56 -23.5 87.5t-129.5 31.5q-131 0 -198 -45.5t-97 -148.5h-207q39 171 164 267.5t348 96.5q92 0 161 -19.5t119.5 -63.5t65.5 -115t-2 -175zM709 403l34 152q-48 -36 -225 -72
q-149 -30 -221.5 -73.5t-85.5 -116.5q-13 -71 26 -112.5t113 -41.5q138 0 234 70t125 194z" />
    <glyph glyph-name="atilde" unicode="&#xe3;" horiz-adv-x="1067" 
d="M602 1329q-36 0 -57 -26t-25 -54l-135 15q20 111 70.5 162t117.5 51q58 0 137.5 -38t102.5 -38q36 0 56 24.5t26 55.5l135 -15q-44 -213 -188 -213q-58 0 -137.5 38t-102.5 38zM639 1075q92 0 161 -19.5t119.5 -63.5t65.5 -115t-2 -175l-98 -499q-11 -60 2 -81.5
t74 -15.5l-21 -100q-52 -24 -115 -24q-163 0 -166 141q-67 -71 -163 -112.5t-207 -41.5q-163 0 -242 89t-51 239q12 61 41.5 108t68 79t100.5 58.5t122.5 43.5t150.5 37q49 11 71.5 16.5t60 15.5t55 17.5t42.5 19.5t36.5 25t22.5 30.5t15 38.5q10 56 -23.5 87.5t-129.5 31.5
q-131 0 -198 -45.5t-97 -148.5h-207q39 171 164 267.5t348 96.5zM709 403l34 152q-48 -36 -225 -72q-149 -30 -221.5 -73.5t-85.5 -116.5q-13 -71 26 -112.5t113 -41.5q138 0 234 70t125 194z" />
    <glyph glyph-name="adieresis" unicode="&#xe4;" horiz-adv-x="1067" 
d="M520 1247q-62 0 -90.5 38t-17.5 93q8 45 42.5 76t84.5 31q61 0 89 -39t17 -96q-8 -43 -42 -73t-83 -30zM887 1485q62 0 90.5 -39t17.5 -96q-8 -43 -42.5 -73t-84.5 -30q-61 0 -89 38t-17 93q8 45 42 76t83 31zM639 1075q92 0 161 -19.5t119.5 -63.5t65.5 -115t-2 -175
l-98 -499q-11 -60 2 -81.5t74 -15.5l-21 -100q-52 -24 -115 -24q-163 0 -166 141q-67 -71 -163 -112.5t-207 -41.5q-163 0 -242 89t-51 239q12 61 41.5 108t68 79t100.5 58.5t122.5 43.5t150.5 37q49 11 71.5 16.5t60 15.5t55 17.5t42.5 19.5t36.5 25t22.5 30.5t15 38.5
q10 56 -23.5 87.5t-129.5 31.5q-131 0 -198 -45.5t-97 -148.5h-207q39 171 164 267.5t348 96.5zM709 403l34 152q-48 -36 -225 -72q-149 -30 -221.5 -73.5t-85.5 -116.5q-13 -71 26 -112.5t113 -41.5q138 0 234 70t125 194z" />
    <glyph glyph-name="aring" unicode="&#xe5;" horiz-adv-x="1067" 
d="M672 1186q-84 0 -132 56t-30 144q15 75 75.5 125t133.5 50q84 0 132.5 -57.5t31.5 -145.5q-17 -78 -77 -125t-134 -47zM602 1370q-9 -47 12.5 -70.5t61.5 -23.5q45 0 74.5 28t37.5 70q9 47 -12.5 70.5t-60.5 23.5q-47 0 -75 -27.5t-38 -70.5zM983 702l-98 -499
q-11 -60 2 -81.5t74 -15.5l-21 -100q-52 -24 -115 -24q-163 0 -166 141q-67 -71 -163 -112.5t-207 -41.5q-163 0 -242 89t-51 239q12 61 41.5 108t68 79t100.5 58.5t122.5 43.5t150.5 37q49 11 71.5 16.5t60 15.5t55 17.5t42.5 19.5t36.5 25t22.5 30.5t15 38.5
q10 56 -23.5 87.5t-129.5 31.5q-131 0 -198 -45.5t-97 -148.5h-207q39 171 164 267.5t348 96.5q92 0 161 -19.5t119.5 -63.5t65.5 -115t-2 -175zM709 403l34 152q-48 -36 -225 -72q-149 -30 -221.5 -73.5t-85.5 -116.5q-13 -71 26 -112.5t113 -41.5q138 0 234 70t125 194z
" />
    <glyph glyph-name="ae" unicode="&#xe6;" horiz-adv-x="1796" 
d="M1747 463h-803q-27 -137 37 -227.5t199 -90.5q65 0 121 19t92.5 48.5t59.5 58.5t34 57h223q-70 -166 -209 -262.5t-330 -96.5q-140 0 -240.5 55.5t-152.5 157.5q-175 -213 -477 -213q-168 0 -250.5 89t-54.5 239q12 61 41.5 108t68 79t100.5 58.5t122.5 43.5t150.5 37
q49 11 71.5 16.5t60 15.5t55 17.5t42.5 19.5t36.5 25t22.5 30.5t15 38.5q10 56 -23.5 87.5t-129.5 31.5q-131 0 -198 -45.5t-97 -148.5h-207q39 171 164 267.5t348 96.5q243 0 319 -133q157 133 390 133q253 0 354.5 -164t44.5 -448zM1337 905q-133 0 -235 -81t-127 -203
h590q23 131 -37 207.5t-191 76.5zM350 139q138 0 234 70t125 194l34 152q-48 -36 -225 -72q-149 -30 -221.5 -73.5t-85.5 -116.5q-13 -71 26 -112.5t113 -41.5z" />
    <glyph glyph-name="ccedilla" unicode="&#xe7;" horiz-adv-x="1069" 
d="M1061 657h-209q4 48 -4 88.5t-29.5 76.5t-66.5 56.5t-109 20.5q-154 0 -253.5 -109.5t-131.5 -275.5q-10 -57 -11.5 -110.5t13.5 -100.5t41 -82t71 -55.5t105 -20.5q69 0 126.5 22.5t95 59t61 75t35.5 79.5h215q-46 -174 -185.5 -288t-326.5 -124l-90 -86l-13 -4
q50 6 95.5 -5t74 -46.5t19.5 -89.5q-13 -65 -84.5 -103t-161.5 -38q-133 0 -221 63l49 51q65 -26 139 -26q49 0 88.5 23.5t46.5 60.5q3 23 -14 32t-59 9q-48 0 -86 -17l-29 45l139 135q-201 26 -294.5 180t-49.5 384q48 241 213.5 389.5t392.5 148.5q206 0 314.5 -117.5
t93.5 -300.5z" />
    <glyph glyph-name="egrave" unicode="&#xe8;" horiz-adv-x="1099" 
d="M752 1212h-164l-117 269h246zM481 145q65 0 121 19t92.5 48.5t59.5 58.5t34 57h224q-70 -166 -209 -262.5t-330 -96.5q-247 0 -363.5 164t-64.5 422q51 247 211.5 383.5t392.5 136.5q253 0 355 -164t45 -448h-803q-27 -137 36.5 -227.5t198.5 -90.5zM639 905
q-134 0 -236 -81.5t-127 -202.5h590q23 132 -36.5 208t-190.5 76z" />
    <glyph glyph-name="eacute" unicode="&#xe9;" horiz-adv-x="1099" 
d="M983 1481l-219 -269h-174l139 269h254zM481 145q65 0 121 19t92.5 48.5t59.5 58.5t34 57h224q-70 -166 -209 -262.5t-330 -96.5q-247 0 -363.5 164t-64.5 422q51 247 211.5 383.5t392.5 136.5q253 0 355 -164t45 -448h-803q-27 -137 36.5 -227.5t198.5 -90.5zM639 905
q-134 0 -236 -81.5t-127 -202.5h590q23 132 -36.5 208t-190.5 76z" />
    <glyph glyph-name="ecircumflex" unicode="&#xea;" horiz-adv-x="1099" 
d="M709 1374l-140 -162h-207l248 269h228l147 -269h-197l-75 162h-4zM481 145q65 0 121 19t92.5 48.5t59.5 58.5t34 57h224q-70 -166 -209 -262.5t-330 -96.5q-247 0 -363.5 164t-64.5 422q51 247 211.5 383.5t392.5 136.5q253 0 355 -164t45 -448h-803
q-27 -137 36.5 -227.5t198.5 -90.5zM639 905q-134 0 -236 -81.5t-127 -202.5h590q23 132 -36.5 208t-190.5 76z" />
    <glyph glyph-name="edieresis" unicode="&#xeb;" horiz-adv-x="1099" 
d="M526 1247q-61 0 -90 38t-18 93q8 45 42.5 76t84.5 31q61 0 89 -39t17 -96q-8 -44 -41.5 -73.5t-83.5 -29.5zM877 1247q-62 0 -91 38t-18 93q8 45 42.5 76t84.5 31q61 0 89 -39t17 -96q-8 -44 -41 -73.5t-83 -29.5zM481 145q65 0 121 19t92.5 48.5t59.5 58.5t34 57h224
q-70 -166 -209 -262.5t-330 -96.5q-247 0 -363.5 164t-64.5 422q51 247 211.5 383.5t392.5 136.5q253 0 355 -164t45 -448h-803q-27 -137 36.5 -227.5t198.5 -90.5zM639 905q-134 0 -236 -81.5t-127 -202.5h590q23 132 -36.5 208t-190.5 76z" />
    <glyph glyph-name="igrave" unicode="&#xec;" horiz-adv-x="411" 
d="M369 1481l34 -269h-163l-119 269h248zM197 1047h217l-205 -1047h-217z" />
    <glyph glyph-name="iacute" unicode="&#xed;" horiz-adv-x="428" 
d="M383 1481h254l-219 -269h-174zM201 1047h215l-205 -1047h-215z" />
    <glyph glyph-name="icircumflex" unicode="&#xee;" horiz-adv-x="479" 
d="M47 1212l250 269h227l148 -269h-197l-78 162h-4l-137 -162h-209zM233 1047h216l-205 -1047h-215z" />
    <glyph glyph-name="idieresis" unicode="&#xef;" horiz-adv-x="524" 
d="M133 1378q8 45 41.5 76t83.5 31q61 0 89.5 -39t19.5 -96q-8 -43 -42.5 -73t-84.5 -30q-61 0 -89.5 38t-17.5 93zM481 1378q8 45 42.5 76t84.5 31q61 0 89.5 -39.5t17.5 -95.5q-8 -44 -41.5 -73.5t-83.5 -29.5q-61 0 -90.5 38t-18.5 93zM260 1047h217l-205 -1047h-217z
" />
    <glyph glyph-name="eth" unicode="&#xf0;" horiz-adv-x="1146" 
d="M979 1274q205 -286 133 -670q-19 -97 -53.5 -186t-90 -172.5t-126.5 -144.5t-168 -97.5t-209 -36.5q-250 0 -360 156t-60 418q33 166 123.5 290.5t210 187t250.5 62.5q98 0 171.5 -44.5t108.5 -116.5l11 14q-19 151 -136 295l-325 -86l-8 106l251 68q-69 72 -188 149
l268 -4q62 -36 123 -102l266 74l11 -107zM473 150q148 0 258 111.5t143 279.5q32 156 -29.5 258t-199.5 102q-146 0 -251 -110t-138 -279q-30 -159 25.5 -260.5t191.5 -101.5z" />
    <glyph glyph-name="ntilde" unicode="&#xf1;" horiz-adv-x="1101" 
d="M631 1329q-36 0 -57 -26t-25 -54l-135 15q22 112 71.5 162.5t116.5 50.5q45 0 93 -19t86.5 -38t60.5 -19q36 0 56 24.5t26 55.5l135 -15q-41 -213 -189 -213q-45 0 -92.5 19t-86 38t-60.5 19zM758 1075q158 0 240.5 -93.5t48.5 -266.5l-140 -715h-217l131 668
q21 111 -13.5 168t-135.5 57q-128 0 -220.5 -72.5t-115.5 -189.5l-125 -631h-215l205 1047h215l-27 -136l4 7q59 69 151.5 113t213.5 44z" />
    <glyph glyph-name="ograve" unicode="&#xf2;" horiz-adv-x="1138" 
d="M735 1481l35 -269h-164l-119 269h248zM449 -31q-239 0 -348 148.5t-62 390.5q48 253 225 410t426 157q238 0 346 -147.5t62 -390.5q-48 -252 -225 -410t-424 -158zM492 145q144 0 243.5 99.5t141.5 263.5q41 174 -17.5 282.5t-210.5 108.5q-146 0 -246.5 -99.5
t-140.5 -262.5q-43 -173 16 -282.5t214 -109.5z" />
    <glyph glyph-name="oacute" unicode="&#xf3;" horiz-adv-x="1138" 
d="M748 1481h253l-221 -269h-174zM449 -31q-239 0 -348 148.5t-62 390.5q48 253 225 410t426 157q238 0 346 -147.5t62 -390.5q-48 -252 -225 -410t-424 -158zM492 145q144 0 243.5 99.5t141.5 263.5q41 174 -17.5 282.5t-210.5 108.5q-146 0 -246.5 -99.5t-140.5 -262.5
q-43 -173 16 -282.5t214 -109.5z" />
    <glyph glyph-name="ocircumflex" unicode="&#xf4;" horiz-adv-x="1138" 
d="M379 1212l250 269h227l148 -269h-197l-78 162h-4l-137 -162h-209zM449 -31q-239 0 -348 148.5t-62 390.5q48 253 225 410t426 157q238 0 346 -147.5t62 -390.5q-48 -252 -225 -410t-424 -158zM492 145q144 0 243.5 99.5t141.5 263.5q41 174 -17.5 282.5t-210.5 108.5
q-146 0 -246.5 -99.5t-140.5 -262.5q-43 -173 16 -282.5t214 -109.5z" />
    <glyph glyph-name="otilde" unicode="&#xf5;" horiz-adv-x="1138" 
d="M410 1264q20 111 70.5 162t117.5 51q58 0 137.5 -38t102.5 -38q36 0 56 24.5t26 55.5l135 -15q-44 -213 -189 -213q-45 0 -92.5 19t-86 38t-60.5 19q-36 0 -57 -26t-25 -54zM449 -31q-239 0 -348 148.5t-62 390.5q48 253 225 410t426 157q238 0 346 -147.5t62 -390.5
q-48 -252 -225 -410t-424 -158zM492 145q144 0 243.5 99.5t141.5 263.5q41 174 -17.5 282.5t-210.5 108.5q-146 0 -246.5 -99.5t-140.5 -262.5q-43 -173 16 -282.5t214 -109.5z" />
    <glyph glyph-name="odieresis" unicode="&#xf6;" horiz-adv-x="1138" 
d="M436 1378q8 45 42.5 76t84.5 31q61 0 89.5 -39.5t17.5 -95.5q-8 -43 -42 -73t-83 -30q-62 0 -91 38t-18 93zM786 1378q8 45 42 76t83 31q62 0 91 -39t18 -96q-8 -43 -42.5 -73t-84.5 -30q-61 0 -89.5 38t-17.5 93zM449 -31q-239 0 -348 148.5t-62 390.5q48 253 225 410
t426 157q238 0 346 -147.5t62 -390.5q-48 -252 -225 -410t-424 -158zM492 145q144 0 243.5 99.5t141.5 263.5q41 174 -17.5 282.5t-210.5 108.5q-146 0 -246.5 -99.5t-140.5 -262.5q-43 -173 16 -282.5t214 -109.5z" />
    <glyph glyph-name="divide" unicode="&#xf7;" horiz-adv-x="1146" 
d="M659 903q-69 0 -101.5 37t-20.5 102q22 111 145 111q67 0 100 -37.5t21 -101.5q-9 -53 -47 -82t-97 -29zM104 569l41 201h951l-41 -201h-951zM520 182q-70 0 -103.5 37.5t-19.5 102.5q10 54 47.5 82t96.5 28q69 0 102 -37.5t21 -101.5q-10 -53 -48 -82t-96 -29z" />
    <glyph glyph-name="oslash" unicode="&#xf8;" horiz-adv-x="1177" 
d="M1225 991l-152 -127q63 -135 25 -327q-48 -252 -225 -410t-424 -158q-199 0 -312 107l-117 -99l-65 78l121 103q-78 138 -37 350q48 253 225 410t426 157q220 0 328 -127l141 119zM262 537q-32 -138 -6 -230l594 500q-63 92 -201 92q-146 0 -246.5 -99.5t-140.5 -262.5z
M877 508q27 112 12 201l-584 -492q66 -72 187 -72q144 0 243.5 99.5t141.5 263.5z" />
    <glyph glyph-name="ugrave" unicode="&#xf9;" horiz-adv-x="1097" 
d="M737 1212h-164l-118 269h247zM883 1047h217l-205 -1047h-217l29 133l-5 -4q-59 -70 -151 -115t-213 -45q-158 0 -240.5 94t-48.5 267l139 717h215l-129 -670q-46 -223 150 -223q128 0 220.5 72.5t115.5 189.5z" />
    <glyph glyph-name="uacute" unicode="&#xfa;" horiz-adv-x="1097" 
d="M969 1481l-221 -269h-175l142 269h254zM883 1047h217l-205 -1047h-217l29 133l-5 -4q-59 -70 -151 -115t-213 -45q-158 0 -240.5 94t-48.5 267l139 717h215l-129 -670q-46 -223 150 -223q128 0 220.5 72.5t115.5 189.5z" />
    <glyph glyph-name="ucircumflex" unicode="&#xfb;" horiz-adv-x="1097" 
d="M692 1374l-137 -162h-209l250 269h227l148 -269h-197l-78 162h-4zM883 1047h217l-205 -1047h-217l29 133l-5 -4q-59 -70 -151 -115t-213 -45q-158 0 -240.5 94t-48.5 267l139 717h215l-129 -670q-46 -223 150 -223q128 0 220.5 72.5t115.5 189.5z" />
    <glyph glyph-name="udieresis" unicode="&#xfc;" horiz-adv-x="1097" 
d="M512 1247q-62 0 -91 38t-18 93q8 45 42.5 76t84.5 31q61 0 89.5 -39.5t17.5 -95.5q-8 -43 -42 -73t-83 -30zM860 1247q-61 0 -89 38t-17 93q8 45 42 76t83 31q61 0 90 -39.5t18 -95.5q-8 -43 -42.5 -73t-84.5 -30zM883 1047h217l-205 -1047h-217l29 133l-5 -4
q-59 -70 -151 -115t-213 -45q-158 0 -240.5 94t-48.5 267l139 717h215l-129 -670q-46 -223 150 -223q128 0 220.5 72.5t115.5 189.5z" />
    <glyph glyph-name="yacute" unicode="&#xfd;" horiz-adv-x="1032" 
d="M688 1481h254l-221 -269h-174zM1124 1047l-632 -1119q-40 -71 -71 -114.5t-75.5 -86.5t-100 -63t-126.5 -20q-72 0 -158 22l27 162l10 -2q140 -19 219 65q42 35 67.5 95t14.5 129l-201 932h228l137 -801h4l424 801h233z" />
    <glyph glyph-name="thorn" unicode="&#xfe;" horiz-adv-x="1153" 
d="M735 1075q208 0 312.5 -154t54.5 -413q-49 -247 -203.5 -393t-351.5 -146q-225 0 -299 174l-8 -4l-97 -495h-215l353 1820h215l-109 -553l4 7q135 157 344 157zM514 145q141 0 243 113t134 279q31 157 -21.5 259.5t-183.5 102.5q-137 0 -237.5 -105t-135.5 -286
q-32 -169 21 -266t180 -97z" />
    <glyph glyph-name="ydieresis" unicode="&#xff;" horiz-adv-x="1032" 
d="M377 1378q8 45 42 76t83 31q62 0 90.5 -39t17.5 -96q-8 -43 -42.5 -73t-84.5 -30q-61 0 -89 38t-17 93zM727 1378q8 45 41.5 76t83.5 31q61 0 90.5 -39.5t18.5 -95.5q-8 -43 -42.5 -73t-84.5 -30q-61 0 -89.5 38t-17.5 93zM1124 1047l-632 -1119q-40 -71 -71 -114.5
t-75.5 -86.5t-100 -63t-126.5 -20q-72 0 -158 22l27 162l10 -2q140 -19 219 65q42 35 67.5 95t14.5 129l-201 932h228l137 -801h4l424 801h233z" />
    <glyph glyph-name="Amacron" unicode="&#x100;" horiz-adv-x="1355" 
d="M657 1851h547l-30 -161h-547zM946 346h-598l-186 -346h-250l821 1464h258l250 -1464h-244zM455 549h463l-95 692h-4z" />
    <glyph glyph-name="amacron" unicode="&#x101;" horiz-adv-x="1067" 
d="M987 1434l-31 -164h-546l30 164h547zM983 702l-98 -499q-11 -60 2 -81.5t74 -15.5l-21 -100q-52 -24 -115 -24q-163 0 -166 141q-67 -71 -163 -112.5t-207 -41.5q-163 0 -242 89t-51 239q12 61 41.5 108t68 79t100.5 58.5t122.5 43.5t150.5 37q49 11 71.5 16.5t60 15.5
t55 17.5t42.5 19.5t36.5 25t22.5 30.5t15 38.5q10 56 -23.5 87.5t-129.5 31.5q-131 0 -198 -45.5t-97 -148.5h-207q39 171 164 267.5t348 96.5q92 0 161 -19.5t119.5 -63.5t65.5 -115t-2 -175zM709 403l34 152q-48 -36 -225 -72q-149 -30 -221.5 -73.5t-85.5 -116.5
q-13 -71 26 -112.5t113 -41.5q138 0 234 70t125 194z" />
    <glyph glyph-name="Abreve" unicode="&#x102;" horiz-adv-x="1355" 
d="M893 1622q-128 0 -195.5 76t-44.5 209l140 -15q-8 -65 16.5 -94t85.5 -29q140 0 176 138l143 -15q-32 -130 -117.5 -200t-203.5 -70zM946 346h-598l-186 -346h-250l821 1464h258l250 -1464h-244zM455 549h463l-95 692h-4z" />
    <glyph glyph-name="abreve" unicode="&#x103;" horiz-adv-x="1067" 
d="M676 1204q-127 0 -194 75.5t-46 209.5l142 -14q-9 -66 14.5 -94.5t85.5 -28.5q139 0 178 137l141 -14q-32 -130 -117 -200.5t-204 -70.5zM639 1075q92 0 161 -19.5t119.5 -63.5t65.5 -115t-2 -175l-98 -499q-11 -60 2 -81.5t74 -15.5l-21 -100q-52 -24 -115 -24
q-163 0 -166 141q-67 -71 -163 -112.5t-207 -41.5q-163 0 -242 89t-51 239q12 61 41.5 108t68 79t100.5 58.5t122.5 43.5t150.5 37q49 11 71.5 16.5t60 15.5t55 17.5t42.5 19.5t36.5 25t22.5 30.5t15 38.5q10 56 -23.5 87.5t-129.5 31.5q-131 0 -198 -45.5t-97 -148.5h-207
q39 171 164 267.5t348 96.5zM709 403l34 152q-48 -36 -225 -72q-149 -30 -221.5 -73.5t-85.5 -116.5q-13 -71 26 -112.5t113 -41.5q138 0 234 70t125 194z" />
    <glyph glyph-name="Aogonek" unicode="&#x104;" horiz-adv-x="1355" 
d="M1112 -217q41 0 107 20l-17 -147q-68 -18 -139 -18q-104 0 -150.5 46t-31.5 126q11 63 64.5 114.5t117.5 77.5l-66 -2l-51 346h-598l-186 -346h-250l821 1464h258l248 -1464l-25 -4q-140 -97 -151 -170q-6 -22 7.5 -32.5t41.5 -10.5zM455 549h463l-95 692h-4z" />
    <glyph glyph-name="aogonek" unicode="&#x105;" horiz-adv-x="1067" 
d="M983 702l-98 -499q-11 -60 2 -81.5t74 -15.5l-21 -100q-82 -55 -118 -95t-36 -77q0 -49 56 -49q54 0 106 20l-16 -147q-65 -18 -139 -18q-104 0 -151.5 46.5t-29.5 125.5q10 53 52.5 100t101.5 76q-104 21 -107 135q-67 -71 -163 -112.5t-207 -41.5q-163 0 -242 89
t-51 239q12 61 41.5 108t68 79t100.5 58.5t122.5 43.5t150.5 37q49 11 71.5 16.5t60 15.5t55 17.5t42.5 19.5t36.5 25t22.5 30.5t15 38.5q10 56 -23.5 87.5t-129.5 31.5q-131 0 -198 -45.5t-97 -148.5h-207q39 171 164 267.5t348 96.5q92 0 161 -19.5t119.5 -63.5t65.5 -115
t-2 -175zM709 403l34 152q-48 -36 -225 -72q-149 -30 -221.5 -73.5t-85.5 -116.5q-13 -71 26 -112.5t113 -41.5q138 0 234 70t125 194z" />
    <glyph glyph-name="Cacute" unicode="&#x106;" horiz-adv-x="1413" 
d="M1004 1901h253l-221 -269h-174zM1219 954q0 332 -320 332q-117 0 -215 -46.5t-166.5 -127t-114 -180t-67.5 -213.5q-17 -87 -17.5 -165t18.5 -147.5t58 -119.5t106 -79.5t156 -29.5q100 0 184 31t140.5 83.5t94 111t57.5 124.5h241q-74 -254 -265.5 -406.5t-461.5 -152.5
q-126 0 -229 37.5t-173 106.5t-113.5 166t-50.5 215t17 254q42 216 156.5 385t287.5 265.5t376 96.5q138 0 246.5 -42.5t174 -116t96 -171.5t21.5 -211h-237z" />
    <glyph glyph-name="cacute" unicode="&#x107;" horiz-adv-x="1069" 
d="M721 1481h254l-221 -269h-172zM852 657q4 48 -4 88.5t-29.5 76.5t-66.5 56.5t-109 20.5q-154 0 -253.5 -109.5t-131.5 -275.5q-10 -57 -11.5 -110.5t13.5 -100.5t41 -82t71 -55.5t105 -20.5q69 0 126.5 22.5t95 59t61 75t35.5 79.5h215q-48 -182 -197 -297t-346 -115
q-238 0 -354 158t-66 410q48 241 213.5 389.5t392.5 148.5q206 0 314.5 -117.5t93.5 -300.5h-209z" />
    <glyph glyph-name="Cdotaccent" unicode="&#x10a;" horiz-adv-x="1413" 
d="M864 1798q8 44 42.5 74.5t84.5 30.5q61 0 89.5 -39t17.5 -95q-8 -43 -42 -73.5t-83 -30.5q-62 0 -91 38.5t-18 94.5zM1219 954q0 332 -320 332q-117 0 -215 -46.5t-166.5 -127t-114 -180t-67.5 -213.5q-17 -87 -17.5 -165t18.5 -147.5t58 -119.5t106 -79.5t156 -29.5
q100 0 184 31t140.5 83.5t94 111t57.5 124.5h241q-74 -254 -265.5 -406.5t-461.5 -152.5q-126 0 -229 37.5t-173 106.5t-113.5 166t-50.5 215t17 254q42 216 156.5 385t287.5 265.5t376 96.5q138 0 246.5 -42.5t174 -116t96 -171.5t21.5 -211h-237z" />
    <glyph glyph-name="cdotaccent" unicode="&#x10b;" horiz-adv-x="1069" 
d="M582 1378q8 45 42.5 76t84.5 31q61 0 89 -39t17 -96q-8 -44 -41.5 -73.5t-83.5 -29.5q-62 0 -90.5 38t-17.5 93zM852 657q4 48 -4 88.5t-29.5 76.5t-66.5 56.5t-109 20.5q-154 0 -253.5 -109.5t-131.5 -275.5q-10 -57 -11.5 -110.5t13.5 -100.5t41 -82t71 -55.5
t105 -20.5q69 0 126.5 22.5t95 59t61 75t35.5 79.5h215q-48 -182 -197 -297t-346 -115q-238 0 -354 158t-66 410q48 241 213.5 389.5t392.5 148.5q206 0 314.5 -117.5t93.5 -300.5h-209z" />
    <glyph glyph-name="Ccaron" unicode="&#x10c;" horiz-adv-x="1413" 
d="M696 1901h197l76 -162h4l139 162h209l-252 -269h-227zM1219 954q0 332 -320 332q-117 0 -215 -46.5t-166.5 -127t-114 -180t-67.5 -213.5q-17 -87 -17.5 -165t18.5 -147.5t58 -119.5t106 -79.5t156 -29.5q100 0 184 31t140.5 83.5t94 111t57.5 124.5h241
q-74 -254 -265.5 -406.5t-461.5 -152.5q-126 0 -229 37.5t-173 106.5t-113.5 166t-50.5 215t17 254q42 216 156.5 385t287.5 265.5t376 96.5q138 0 246.5 -42.5t174 -116t96 -171.5t21.5 -211h-237z" />
    <glyph glyph-name="ccaron" unicode="&#x10d;" horiz-adv-x="1069" 
d="M414 1481h196l76 -162h4l139 162h209l-250 -269h-227zM852 657q4 48 -4 88.5t-29.5 76.5t-66.5 56.5t-109 20.5q-154 0 -253.5 -109.5t-131.5 -275.5q-10 -57 -11.5 -110.5t13.5 -100.5t41 -82t71 -55.5t105 -20.5q69 0 126.5 22.5t95 59t61 75t35.5 79.5h215
q-48 -182 -197 -297t-346 -115q-238 0 -354 158t-66 410q48 241 213.5 389.5t392.5 148.5q206 0 314.5 -117.5t93.5 -300.5h-209z" />
    <glyph glyph-name="Dcaron" unicode="&#x10e;" horiz-adv-x="1398" 
d="M526 1901h197l76 -162h4l139 162h207l-250 -269h-229zM18 0l285 1464h563q306 0 444 -196t70 -551q-67 -345 -270.5 -531t-507.5 -186h-584zM508 1257l-205 -1050h307q96 0 176 29t137 77.5t101.5 118.5t72 146.5t44.5 166.5q17 86 20 158t-13 139t-53 113.5t-105 74
t-163 27.5h-319z" />
    <glyph glyph-name="dcaron" unicode="&#x10f;" horiz-adv-x="1234" 
d="M1460 1475q68 0 96.5 -53t12.5 -138q-11 -53 -42 -101t-94 -88t-147 -48l2 79q53 8 105.5 43t64.5 74q-69 -20 -107 18.5t-26 104.5q9 48 45 78.5t90 30.5zM915 920l107 544h217l-285 -1464h-217l25 121l-2 -4q-59 -64 -144.5 -106t-193.5 -42q-210 0 -315.5 155
t-55.5 413q32 165 115.5 288.5t198 186.5t245.5 63q117 0 190 -46t107 -114zM469 145q135 0 235.5 106t135.5 286q34 169 -19.5 265.5t-179.5 96.5q-141 0 -243 -112t-136 -279q-16 -101 -3.5 -181.5t67.5 -131t143 -50.5z" />
    <glyph glyph-name="Dcroat" unicode="&#x110;" horiz-adv-x="1415" 
d="M883 1464q306 0 444 -196t70 -551q-67 -345 -271 -531t-508 -186h-583l133 680h-129l31 156h129l120 628h564zM627 207q96 0 176 29t137 77.5t101 118.5t71.5 146.5t44.5 166.5q17 86 20 158t-13 139t-53 113.5t-104.5 74t-162.5 27.5h-320l-82 -421h414l-29 -156h-415
l-93 -473h308z" />
    <glyph glyph-name="dcroat" unicode="&#x111;" horiz-adv-x="1167" 
d="M1346 1348l-33 -156h-127l-232 -1192h-217l25 121l-2 -4q-59 -64 -144.5 -106t-193.5 -42q-210 0 -315.5 155t-55.5 413q32 165 115.5 288.5t198 186.5t245.5 63q117 0 190 -46t107 -114l11 5l51 272h-299l32 156h299l21 116h217l-22 -116h129zM469 145q135 0 235.5 106
t135.5 286q34 169 -19.5 265.5t-179.5 96.5q-141 0 -243 -112t-136 -279q-16 -101 -3.5 -181.5t67.5 -131t143 -50.5z" />
    <glyph glyph-name="Emacron" unicode="&#x112;" horiz-adv-x="1271" 
d="M639 1851h547l-31 -161h-547zM430 860h715l-39 -209h-717l-86 -444h836l-41 -207h-1080l285 1464h1059l-39 -207h-815z" />
    <glyph glyph-name="emacron" unicode="&#x113;" horiz-adv-x="1099" 
d="M995 1434l-30 -164h-547l31 164h546zM481 145q65 0 121 19t92.5 48.5t59.5 58.5t34 57h224q-70 -166 -209 -262.5t-330 -96.5q-247 0 -363.5 164t-64.5 422q51 247 211.5 383.5t392.5 136.5q253 0 355 -164t45 -448h-803q-27 -137 36.5 -227.5t198.5 -90.5zM639 905
q-134 0 -236 -81.5t-127 -202.5h590q23 132 -36.5 208t-190.5 76z" />
    <glyph glyph-name="Edotaccent" unicode="&#x116;" horiz-adv-x="1271" 
d="M780 1798q10 44 44 74.5t83 30.5q62 0 90 -38.5t17 -95.5q-8 -44 -41.5 -74t-83.5 -30q-61 0 -89.5 38.5t-19.5 94.5zM430 860h715l-39 -209h-717l-86 -444h836l-41 -207h-1080l285 1464h1059l-39 -207h-815z" />
    <glyph glyph-name="edotaccent" unicode="&#x117;" horiz-adv-x="1099" 
d="M698 1247q-61 0 -90 38t-18 93q8 45 42.5 76t84.5 31q61 0 89 -39t17 -96q-8 -44 -41.5 -73.5t-83.5 -29.5zM481 145q65 0 121 19t92.5 48.5t59.5 58.5t34 57h224q-70 -166 -209 -262.5t-330 -96.5q-247 0 -363.5 164t-64.5 422q51 247 211.5 383.5t392.5 136.5
q253 0 355 -164t45 -448h-803q-27 -137 36.5 -227.5t198.5 -90.5zM639 905q-134 0 -236 -81.5t-127 -202.5h590q23 132 -36.5 208t-190.5 76z" />
    <glyph glyph-name="Eogonek" unicode="&#x118;" horiz-adv-x="1271" 
d="M993 -217q45 0 107 20l-17 -147q-65 -18 -139 -18q-104 0 -150.5 46t-31.5 126q11 63 64.5 114.5t117.5 77.5l-926 -2l285 1464h1059l-39 -207h-815l-78 -397h715l-39 -209h-717l-86 -444h836l-39 -207l-17 -2q-141 -101 -147 -166q-4 -26 12 -37.5t45 -11.5z" />
    <glyph glyph-name="eogonek" unicode="&#x119;" horiz-adv-x="1097" 
d="M45 555q51 247 211.5 383.5t392.5 136.5q253 0 355 -164t45 -448h-803q-27 -137 36.5 -227.5t198.5 -90.5q65 0 121 19t92.5 48.5t59.5 58.5t34 57h224q-52 -124 -142.5 -210t-214.5 -122q-144 -93 -149 -162q-4 -26 11.5 -38.5t43.5 -12.5q45 0 107 20l-17 -147
q-65 -18 -139 -18q-103 0 -150 46.5t-30 125.5q15 92 123 159q-158 5 -263 81t-142.5 206.5t-4.5 298.5zM276 621h590q23 132 -36.5 208t-190.5 76q-134 0 -236 -81.5t-127 -202.5z" />
    <glyph glyph-name="Ecaron" unicode="&#x11a;" horiz-adv-x="1271" 
d="M612 1901h199l76 -162h4l139 162h207l-252 -269h-227zM430 860h715l-39 -209h-717l-86 -444h836l-41 -207h-1080l285 1464h1059l-39 -207h-815z" />
    <glyph glyph-name="ecaron" unicode="&#x11b;" horiz-adv-x="1099" 
d="M797 1212h-228l-147 269h196l78 -162h4l138 162h209zM481 145q65 0 121 19t92.5 48.5t59.5 58.5t34 57h224q-70 -166 -209 -262.5t-330 -96.5q-247 0 -363.5 164t-64.5 422q51 247 211.5 383.5t392.5 136.5q253 0 355 -164t45 -448h-803q-27 -137 36.5 -227.5
t198.5 -90.5zM639 905q-134 0 -236 -81.5t-127 -202.5h590q23 132 -36.5 208t-190.5 76z" />
    <glyph glyph-name="Gbreve" unicode="&#x11e;" horiz-adv-x="1499" 
d="M950 1622q-128 0 -195 76t-44 209l139 -15q-8 -65 16.5 -94t85.5 -29q140 0 176 138l144 -15q-32 -130 -118 -200t-204 -70zM1229 1016q-3 131 -83 200.5t-228 69.5q-120 0 -222.5 -48t-173 -130t-117 -180.5t-67.5 -208.5q-17 -84 -18 -159.5t17.5 -146.5t57 -122
t107.5 -82t162 -31q174 0 319 114.5t180 285.5l-415 -7l38 197h660l-150 -768h-166l-12 201l-6 -6q-96 -113 -212.5 -169.5t-268.5 -56.5q-208 0 -344.5 101t-183.5 276.5t-3 401.5q41 216 155.5 384.5t291 265.5t387.5 97q137 0 242 -37.5t168.5 -105t94 -156.5t27.5 -195z
" />
    <glyph glyph-name="gbreve" unicode="&#x11f;" horiz-adv-x="1136" 
d="M664 1204q-127 0 -194 75.5t-46 209.5l141 -14q-9 -66 15 -94.5t86 -28.5q139 0 178 137l141 -14q-32 -130 -117 -200.5t-204 -70.5zM924 1047h215l-193 -981q-81 -428 -536 -428q-111 0 -199 28t-140.5 75t-80 103.5t-27.5 118.5h211q6 -73 59.5 -113t169.5 -40
q140 0 222.5 68.5t111.5 209.5l23 119l-2 -4q-137 -152 -338 -152q-206 0 -311.5 140.5t-57.5 386.5q46 236 195.5 366.5t347.5 130.5q207 0 295 -155l10 4zM469 227q138 0 232.5 90.5t127.5 260.5q30 159 -22 240t-180 81q-144 0 -239.5 -90t-125.5 -244q-29 -146 24 -242
t183 -96z" />
    <glyph glyph-name="Gdotaccent" unicode="&#x120;" horiz-adv-x="1499" 
d="M856 1798q10 44 44 74.5t83 30.5q61 0 89.5 -39t17.5 -95q-8 -44 -41.5 -74t-83.5 -30q-61 0 -89.5 38.5t-19.5 94.5zM1229 1016q-3 131 -83 200.5t-228 69.5q-120 0 -222.5 -48t-173 -130t-117 -180.5t-67.5 -208.5q-17 -84 -18 -159.5t17.5 -146.5t57 -122t107.5 -82
t162 -31q174 0 319 114.5t180 285.5l-415 -7l38 197h660l-150 -768h-166l-12 201l-6 -6q-96 -113 -212.5 -169.5t-268.5 -56.5q-208 0 -344.5 101t-183.5 276.5t-3 401.5q41 216 155.5 384.5t291 265.5t387.5 97q137 0 242 -37.5t168.5 -105t94 -156.5t27.5 -195z" />
    <glyph glyph-name="gdotaccent" unicode="&#x121;" horiz-adv-x="1136" 
d="M678 1247q-61 0 -89.5 38t-17.5 93q8 45 42 76t83 31q61 0 90.5 -39.5t18.5 -95.5q-8 -43 -42.5 -73t-84.5 -30zM924 1047h215l-193 -981q-81 -428 -536 -428q-111 0 -199 28t-140.5 75t-80 103.5t-27.5 118.5h211q6 -73 59.5 -113t169.5 -40q140 0 222.5 68.5
t111.5 209.5l23 119l-2 -4q-137 -152 -338 -152q-206 0 -311.5 140.5t-57.5 386.5q46 236 195.5 366.5t347.5 130.5q207 0 295 -155l10 4zM469 227q138 0 232.5 90.5t127.5 260.5q30 159 -22 240t-180 81q-144 0 -239.5 -90t-125.5 -244q-29 -146 24 -242t183 -96z" />
    <glyph glyph-name="Gcommaaccent" unicode="&#x122;" horiz-adv-x="1499" 
d="M1229 1016q-3 131 -83 200.5t-228 69.5q-120 0 -222.5 -48t-173 -130t-117 -180.5t-67.5 -208.5q-17 -84 -18 -159.5t17.5 -146.5t57 -122t107.5 -82t162 -31q174 0 319 114.5t180 285.5l-415 -7l38 197h660l-150 -768h-166l-12 201l-6 -6q-96 -113 -212.5 -169.5
t-268.5 -56.5q-208 0 -344.5 101t-183.5 276.5t-3 401.5q41 216 155.5 384.5t291 265.5t387.5 97q137 0 242 -37.5t168.5 -105t94 -156.5t27.5 -195zM602 -332q-58 -21 -93.5 12t-23.5 101q9 46 46 76t81 30q67 0 94 -53t9 -137q-16 -84 -80 -151.5t-184 -86.5l4 90
q55 9 94.5 39.5t52.5 79.5z" />
    <glyph glyph-name="gcommaaccent" unicode="&#x123;" horiz-adv-x="1136" 
d="M674 1167q-69 0 -97 53.5t-12 139.5q8 38 26.5 75.5t49.5 74t81 63.5t112 37l-5 -90q-54 -9 -95 -46t-56 -88q60 21 95 -12t22 -102q-9 -47 -42.5 -76t-78.5 -29zM924 1047h215l-193 -981q-81 -428 -536 -428q-111 0 -199 28t-140.5 75t-80 103.5t-27.5 118.5h211
q6 -73 59.5 -113t169.5 -40q140 0 222.5 68.5t111.5 209.5l23 119l-2 -4q-137 -152 -338 -152q-206 0 -311.5 140.5t-57.5 386.5q46 236 195.5 366.5t347.5 130.5q207 0 295 -155l10 4zM469 227q138 0 232.5 90.5t127.5 260.5q30 159 -22 240t-180 81q-144 0 -239.5 -90
t-125.5 -244q-29 -146 24 -242t183 -96z" />
    <glyph glyph-name="Hbar" unicode="&#x126;" horiz-adv-x="1429" 
d="M1577 1247l-31 -157h-137l-213 -1090h-242l127 649h-694l-127 -649h-242l211 1090h-129l31 157h129l43 217h242l-41 -217h692l43 217h242l-41 -217h137zM1120 858l45 232h-692l-45 -232h692z" />
    <glyph glyph-name="hbar" unicode="&#x127;" horiz-adv-x="1110" 
d="M760 1075q162 0 245.5 -93t49.5 -267l-140 -715h-217l129 668q23 111 -12 168t-139 57q-124 0 -217 -73t-115 -189l-125 -631h-215l232 1192h-127l32 156h125l23 116h215l-21 -116h305l-30 -156h-305l-56 -281l2 7q138 157 361 157z" />
    <glyph glyph-name="Imacron" unicode="&#x12a;" horiz-adv-x="555" 
d="M256 1851h545l-31 -161h-547zM338 1464h244l-285 -1464h-244z" />
    <glyph glyph-name="imacron" unicode="&#x12b;" horiz-adv-x="522" 
d="M160 1434h547l-31 -164h-547zM258 1047h217l-205 -1047h-217z" />
    <glyph glyph-name="Iogonek" unicode="&#x12e;" horiz-adv-x="522" 
d="M172 -217q41 0 107 20l-17 -147q-67 -18 -141 -18q-102 0 -148.5 46t-31.5 126q11 63 64.5 114.5t117.5 77.5l-107 -2l285 1464h244l-285 -1464h-6q-71 -53 -104 -91.5t-33 -76.5q0 -49 55 -49z" />
    <glyph glyph-name="iogonek" unicode="&#x12f;" horiz-adv-x="442" 
d="M342 1247q-61 0 -90.5 38t-18.5 93q8 45 42.5 76t84.5 31q61 0 89.5 -39.5t17.5 -95.5q-8 -44 -41.5 -73.5t-83.5 -29.5zM119 -217q50 0 102 20l-16 -147q-67 -18 -142 -18q-103 0 -150 46.5t-30 125.5q11 63 65 114.5t118 77.5l-80 -2l204 1047h216l-205 -1047h-2
q-130 -90 -140 -164q-3 -26 13 -39.5t47 -13.5z" />
    <glyph glyph-name="Idotaccent" unicode="&#x130;" horiz-adv-x="507" 
d="M379 1798q8 44 42.5 74.5t84.5 30.5q61 0 89 -39t17 -95q-8 -43 -42 -73.5t-83 -30.5q-62 0 -90.5 38.5t-17.5 94.5zM319 1464h244l-284 -1464h-244z" />
    <glyph glyph-name="dotlessi" unicode="&#x131;" horiz-adv-x="339" 
d="M164 1047h217l-205 -1047h-217z" />
    <glyph glyph-name="Kcommaaccent" unicode="&#x136;" horiz-adv-x="1345" 
d="M303 1464h244l-144 -723l805 723h295l-692 -620l438 -844h-280l-344 674l-277 -242l-86 -432h-244zM573 -332q-58 -21 -92.5 12t-21.5 101q9 46 45 76t80 30q67 0 93.5 -53t8.5 -137q-14 -83 -78.5 -151t-183.5 -87l2 90q56 9 95 39.5t52 79.5z" />
    <glyph glyph-name="kcommaaccent" unicode="&#x137;" horiz-adv-x="1036" 
d="M281 1464h215l-164 -837l506 420h268l-473 -390l309 -657h-252l-229 516l-172 -137l-78 -379h-215zM408 -332q-58 -21 -93 12t-22 101q9 46 45 76t80 30q67 0 93.5 -53t8.5 -137q-14 -83 -78.5 -151t-183.5 -87l2 90q56 9 95.5 39.5t52.5 79.5z" />
    <glyph glyph-name="Lacute" unicode="&#x139;" horiz-adv-x="1140" 
d="M504 1901h254l-221 -269h-175zM303 1464h244l-244 -1257h731l-41 -207h-975z" />
    <glyph glyph-name="lacute" unicode="&#x13a;" horiz-adv-x="436" 
d="M469 1845h256l-223 -268h-174zM285 1464h217l-285 -1464h-217z" />
    <glyph glyph-name="Lcommaaccent" unicode="&#x13b;" horiz-adv-x="1140" 
d="M303 1464h244l-244 -1257h731l-41 -207h-975zM457 -332q-58 -21 -93 12t-22 101q9 46 45 76t80 30q68 0 94 -52.5t8 -137.5q-14 -83 -78.5 -151t-183.5 -87l2 90q56 9 95.5 39.5t52.5 79.5z" />
    <glyph glyph-name="lcommaaccent" unicode="&#x13c;" horiz-adv-x="460" 
d="M301 1464h217l-285 -1464h-217zM76 -332q-58 -21 -93 12t-22 101q9 46 45 76t80 30q67 0 93.5 -53t8.5 -137q-14 -83 -78.5 -151t-183.5 -87l2 90q56 9 95.5 39.5t52.5 79.5z" />
    <glyph glyph-name="Lcaron" unicode="&#x13d;" horiz-adv-x="1136" 
d="M903 1243q-69 -20 -107 18.5t-26 104.5q9 48 45 78.5t90 30.5q68 0 96.5 -53t12.5 -138q-11 -53 -42.5 -101t-94.5 -88t-146 -48l2 79q53 8 105.5 43t64.5 74zM299 1464h244l-244 -1257h731l-41 -207h-975z" />
    <glyph glyph-name="lcaron" unicode="&#x13e;" horiz-adv-x="499" 
d="M723 1243q-69 -20 -107 18.5t-26 104.5q9 47 45 78t88 31q70 0 98.5 -53t12.5 -138q-11 -53 -42.5 -101t-94.5 -88t-146 -48l2 79q53 8 105.5 43t64.5 74zM281 1464h217l-285 -1464h-217z" />
    <glyph glyph-name="Lslash" unicode="&#x141;" horiz-adv-x="1157" 
d="M317 207h732l-43 -207h-973l94 475l-152 -96l33 182l152 98l157 805h244l-123 -624l410 262l-33 -184l-409 -263z" />
    <glyph glyph-name="lslash" unicode="&#x142;" horiz-adv-x="518" 
d="M614 1055l-30 -185l-166 -104l-152 -766h-217l121 608l-156 -100l31 184l158 101l131 671h217l-102 -516z" />
    <glyph glyph-name="Nacute" unicode="&#x143;" horiz-adv-x="1423" 
d="M971 1901h254l-221 -269h-175zM18 0l285 1464h270l447 -1099h8l211 1099h244l-285 -1464h-268l-449 1096h-4l-215 -1096h-244z" />
    <glyph glyph-name="nacute" unicode="&#x144;" horiz-adv-x="1101" 
d="M1006 1481l-222 -269h-174l142 269h254zM758 1075q158 0 240.5 -93.5t48.5 -266.5l-140 -715h-217l131 668q21 111 -13.5 168t-135.5 57q-128 0 -220.5 -72.5t-115.5 -189.5l-125 -631h-215l205 1047h215l-27 -136l4 7q59 69 151.5 113t213.5 44z" />
    <glyph glyph-name="Ncommaaccent" unicode="&#x145;" horiz-adv-x="1423" 
d="M18 0l285 1464h270l447 -1099h8l211 1099h244l-285 -1464h-268l-449 1096h-4l-215 -1096h-244zM561 -332q-59 -21 -94.5 12t-22.5 101q9 46 45 76t80 30q68 0 94.5 -52.5t10.5 -137.5q-16 -84 -81 -151.5t-183 -86.5l2 90q120 20 149 119z" />
    <glyph glyph-name="ncommaaccent" unicode="&#x146;" horiz-adv-x="1101" 
d="M758 1075q158 0 240.5 -93.5t48.5 -266.5l-140 -715h-217l131 668q21 111 -13.5 168t-135.5 57q-128 0 -220.5 -72.5t-115.5 -189.5l-125 -631h-215l205 1047h215l-27 -136l4 7q59 69 151.5 113t213.5 44zM412 -113q69 0 95.5 -52.5t8.5 -137.5q-16 -84 -81 -151.5
t-183 -86.5l4 90q55 9 93.5 39.5t53.5 79.5q-58 -21 -93 12t-23 101q9 46 45.5 76t79.5 30z" />
    <glyph glyph-name="Ncaron" unicode="&#x147;" horiz-adv-x="1423" 
d="M664 1901h196l76 -162h4l139 162h209l-252 -269h-227zM18 0l285 1464h270l447 -1099h8l211 1099h244l-285 -1464h-268l-449 1096h-4l-215 -1096h-244z" />
    <glyph glyph-name="ncaron" unicode="&#x148;" horiz-adv-x="1101" 
d="M819 1212h-229l-146 269h197l76 -162h4l139 162h207zM758 1075q158 0 240.5 -93.5t48.5 -266.5l-140 -715h-217l131 668q21 111 -13.5 168t-135.5 57q-128 0 -220.5 -72.5t-115.5 -189.5l-125 -631h-215l205 1047h215l-27 -136l4 7q59 69 151.5 113t213.5 44z" />
    <glyph glyph-name="Eng" unicode="&#x14a;" horiz-adv-x="1425" 
d="M18 0l285 1464h270l447 -1099h8l211 1099h244l-279 -1441q-39 -196 -151.5 -292t-286.5 -96q-75 0 -145 19l18 172q124 -9 199.5 27t103.5 127l-461 1116h-4l-215 -1096h-244z" />
    <glyph glyph-name="eng" unicode="&#x14b;" horiz-adv-x="1101" 
d="M891 -63q-33 -160 -106.5 -225.5t-202.5 -65.5q-66 0 -152 16l23 174q109 -5 160 21.5t69 111.5l135 699q21 111 -13.5 168t-135.5 57q-128 0 -220.5 -72.5t-115.5 -189.5l-125 -631h-215l205 1047h215l-27 -136l4 7q59 69 151.5 113t213.5 44q158 0 240 -93.5t48 -266.5
z" />
    <glyph glyph-name="Omacron" unicode="&#x14c;" horiz-adv-x="1542" 
d="M748 1851h546l-30 -161h-547zM674 -31q-132 0 -240 38t-181.5 107t-120 166t-54 214.5t15.5 253.5q31 161 107.5 298.5t186 237t253 155.5t303.5 56q220 0 368.5 -100.5t203.5 -276t12 -399.5q-42 -216 -160.5 -386t-299.5 -267t-394 -97zM690 178q124 0 229 46t178 126
t121.5 180.5t71.5 217.5q14 88 15.5 167t-22.5 147t-66.5 118t-115.5 78t-169 28q-125 0 -230 -45.5t-178.5 -125t-121.5 -179.5t-70 -217q-14 -88 -15.5 -167.5t22.5 -148t66.5 -118.5t115.5 -78.5t169 -28.5z" />
    <glyph glyph-name="omacron" unicode="&#x14d;" horiz-adv-x="1138" 
d="M465 1434h547l-31 -164h-547zM449 -31q-239 0 -348 148.5t-62 390.5q48 253 225 410t426 157q238 0 346 -147.5t62 -390.5q-48 -252 -225 -410t-424 -158zM492 145q144 0 243.5 99.5t141.5 263.5q41 174 -17.5 282.5t-210.5 108.5q-146 0 -246.5 -99.5t-140.5 -262.5
q-43 -173 16 -282.5t214 -109.5z" />
    <glyph glyph-name="Ohungarumlaut" unicode="&#x150;" horiz-adv-x="1542" 
d="M844 1901h254l-224 -269h-172zM1186 1901h254l-223 -269h-173zM674 -31q-132 0 -240 38t-181.5 107t-120 166t-54 214.5t15.5 253.5q31 161 107.5 298.5t186 237t253 155.5t303.5 56q220 0 368.5 -100.5t203.5 -276t12 -399.5q-42 -216 -160.5 -386t-299.5 -267t-394 -97
zM690 178q124 0 229 46t178 126t121.5 180.5t71.5 217.5q14 88 15.5 167t-22.5 147t-66.5 118t-115.5 78t-169 28q-125 0 -230 -45.5t-178.5 -125t-121.5 -179.5t-70 -217q-14 -88 -15.5 -167.5t22.5 -148t66.5 -118.5t115.5 -78.5t169 -28.5z" />
    <glyph glyph-name="ohungarumlaut" unicode="&#x151;" horiz-adv-x="1138" 
d="M561 1481h254l-219 -269h-174zM903 1481h254l-219 -269h-174zM449 -31q-239 0 -348 148.5t-62 390.5q48 253 225 410t426 157q238 0 346 -147.5t62 -390.5q-48 -252 -225 -410t-424 -158zM492 145q144 0 243.5 99.5t141.5 263.5q41 174 -17.5 282.5t-210.5 108.5
q-146 0 -246.5 -99.5t-140.5 -262.5q-43 -173 16 -282.5t214 -109.5z" />
    <glyph glyph-name="OE" unicode="&#x152;" horiz-adv-x="2193" 
d="M1225 207h835l-41 -207h-1079l27 113q-163 -144 -389 -144q-138 0 -244.5 58.5t-167.5 162.5t-81 247t15 311q41 214 149.5 384.5t265.5 266.5t333 96q236 0 348 -154l29 123h1059l-39 -207h-815l-78 -397h714l-38 -209h-717zM641 178q105 0 201.5 52.5t169.5 150.5
l145 715q-71 190 -276 190q-114 0 -209 -45.5t-160 -125.5t-108.5 -179t-65.5 -217q-17 -90 -19 -167.5t15 -147.5t53.5 -119t101 -78t152.5 -29z" />
    <glyph glyph-name="oe" unicode="&#x153;" horiz-adv-x="1947" 
d="M1896 463h-802q-27 -137 36.5 -227.5t198.5 -90.5q65 0 121 19t92.5 48.5t59.5 58.5t34 57h224q-70 -166 -209 -262.5t-330 -96.5q-140 0 -239.5 55t-153.5 156q-90 -100 -212 -155.5t-265 -55.5q-239 0 -348 148.5t-62 390.5q48 253 225 410t426 157q264 0 367 -180
q171 180 438 180q253 0 354.5 -164t44.5 -448zM1487 905q-134 0 -236 -81.5t-127 -202.5h590q23 132 -36.5 208t-190.5 76zM494 145q144 0 243.5 99.5t141.5 263.5q41 174 -17.5 282.5t-210.5 108.5q-146 0 -246.5 -99.5t-140.5 -262.5q-43 -173 16 -282.5t214 -109.5z" />
    <glyph glyph-name="Racute" unicode="&#x154;" horiz-adv-x="1280" 
d="M889 1901h254l-221 -269h-172zM18 0l285 1464h619q228 0 342.5 -115.5t76.5 -318.5q-60 -288 -333 -352l-17 -4q66 -13 107.5 -55t55 -99.5t15.5 -124.5t-6 -132t-15 -119.5t-6.5 -90.5t15.5 -41l2 -12l-250 4q-8 11 -9 41.5t8.5 72t15.5 91t11.5 99t-2.5 96t-26.5 82.5
t-61.5 57.5t-106 21.5h-366l-111 -565h-244zM508 1257l-94 -483h321q65 0 116 9.5t104 35t90 79t53 132.5q6 33 6 61t-5 49.5t-16.5 38.5t-25 29t-33 21t-39 14.5t-44.5 8.5t-47.5 4t-49.5 1h-336z" />
    <glyph glyph-name="racute" unicode="&#x155;" horiz-adv-x="727" 
d="M825 1481l-219 -269h-174l141 269h252zM690 1071q59 0 98 -8l-32 -201q-151 25 -280 -72t-161 -262l-104 -528h-215l205 1047h215l-39 -197l4 6q131 215 309 215z" />
    <glyph glyph-name="Rcommaaccent" unicode="&#x156;" horiz-adv-x="1280" 
d="M18 0l285 1464h619q228 0 342.5 -115.5t76.5 -318.5q-60 -288 -333 -352l-17 -4q66 -13 107.5 -55t55 -99.5t15.5 -124.5t-6 -132t-15 -119.5t-6.5 -90.5t15.5 -41l2 -12l-250 4q-8 11 -9 41.5t8.5 72t15.5 91t11.5 99t-2.5 96t-26.5 82.5t-61.5 57.5t-106 21.5h-366
l-111 -565h-244zM508 1257l-94 -483h321q65 0 116 9.5t104 35t90 79t53 132.5q6 33 6 61t-5 49.5t-16.5 38.5t-25 29t-33 21t-39 14.5t-44.5 8.5t-47.5 4t-49.5 1h-336zM526 -332q-58 -21 -92.5 12t-21.5 101q9 46 45 76t80 30q67 0 93.5 -53t8.5 -137q-14 -83 -78.5 -151
t-183.5 -87l2 90q55 9 94.5 39.5t52.5 79.5z" />
    <glyph glyph-name="rcommaaccent" unicode="&#x157;" horiz-adv-x="741" 
d="M705 1071q59 0 98 -8l-33 -201q-151 25 -279.5 -72t-160.5 -262l-105 -528h-215l205 1047h215l-39 -197l4 6q131 215 310 215zM84 -113q69 0 95.5 -52.5t8.5 -137.5q-16 -84 -81 -151.5t-183 -86.5l4 90q55 9 94.5 39.5t53.5 79.5q-58 -21 -93.5 12t-23.5 101
q9 46 45.5 76t79.5 30z" />
    <glyph glyph-name="Rcaron" unicode="&#x158;" horiz-adv-x="1280" 
d="M582 1901h196l76 -162h4l139 162h209l-252 -269h-227zM18 0l285 1464h619q228 0 342.5 -115.5t76.5 -318.5q-60 -288 -333 -352l-17 -4q66 -13 107.5 -55t55 -99.5t15.5 -124.5t-6 -132t-15 -119.5t-6.5 -90.5t15.5 -41l2 -12l-250 4q-8 11 -9 41.5t8.5 72t15.5 91
t11.5 99t-2.5 96t-26.5 82.5t-61.5 57.5t-106 21.5h-366l-111 -565h-244zM508 1257l-94 -483h321q65 0 116 9.5t104 35t90 79t53 132.5q6 33 6 61t-5 49.5t-16.5 38.5t-25 29t-33 21t-39 14.5t-44.5 8.5t-47.5 4t-49.5 1h-336z" />
    <glyph glyph-name="rcaron" unicode="&#x159;" horiz-adv-x="714" 
d="M633 1212h-227l-148 269h197l77 -162h5l137 162h209zM684 1071q59 0 98 -8l-32 -201q-151 25 -280 -72t-161 -262l-104 -528h-215l205 1047h215l-39 -197l4 6q131 215 309 215z" />
    <glyph glyph-name="Sacute" unicode="&#x15a;" horiz-adv-x="1265" 
d="M868 1901h254l-223 -269h-172zM715 868q54 -21 90 -35.5t82 -35t75.5 -37t65 -39t57 -44.5t45 -50t35 -58t20 -66t8 -78t-8.5 -89q-26 -173 -175 -270t-397 -97q-183 0 -323 60.5t-214.5 178t-60.5 273.5h240q-9 -141 88.5 -222t284.5 -81q143 0 221.5 43t95.5 135
q4 24 4.5 44.5t-4 39t-12 34.5t-22 31.5t-29.5 28.5t-39 27t-47.5 26t-58 26.5t-66 27t-76.5 29.5q-82 31 -133 53t-117 64t-100 87t-52.5 113.5t-3.5 151.5q16 90 65.5 159t125.5 111.5t169.5 64t203.5 21.5q249 0 391 -124t125 -337h-240q7 125 -67.5 188.5t-223.5 63.5
q-81 0 -144 -14t-108 -49.5t-55 -89.5q-7 -43 2 -77t28.5 -57.5t57.5 -45.5t75.5 -37.5t94.5 -37.5q18 -6 27 -10z" />
    <glyph glyph-name="sacute" unicode="&#x15b;" horiz-adv-x="991" 
d="M664 1481h254l-222 -269h-174zM551 627q66 -20 113.5 -38t100 -49.5t83 -67.5t46 -90t5.5 -120q-13 -100 -74 -167.5t-149.5 -96.5t-202.5 -29q-237 0 -359 103.5t-122 269.5h209q-3 -91 65 -147t211 -56q94 0 147.5 34t61.5 91q7 45 -5 75.5t-51.5 53t-73 34.5
t-105.5 32q-59 17 -101 33t-95 46t-84.5 65t-49 89.5t-8.5 120.5q13 122 124 192t287 70q107 0 190.5 -27.5t133.5 -74.5t75 -105t25 -123h-205q2 68 -54.5 114t-170.5 46q-86 0 -137 -26.5t-57 -73.5q-5 -39 6.5 -66t42 -45.5t65.5 -31.5t91 -29q7 -2 12 -3.5t10 -2.5z" />
    <glyph glyph-name="Scedilla" unicode="&#x15e;" horiz-adv-x="1265" 
d="M1268 1034h-240q7 125 -67.5 188.5t-223.5 63.5q-81 0 -144 -14t-108 -49.5t-55 -89.5q-7 -43 2 -77t28.5 -57.5t57.5 -45.5t75.5 -37.5t94.5 -37.5q18 -6 27 -10q54 -21 90 -35.5t82 -35t75.5 -37t65 -39t57 -44.5t45 -50t35 -58t20 -66t8 -78t-8.5 -89
q-27 -169 -168.5 -266t-378.5 -101l-92 -86l-13 -4q50 6 95.5 -5t74 -46.5t19.5 -89.5q-13 -65 -84.5 -103t-161.5 -38q-133 0 -221 63l49 51q65 -26 139 -26q49 0 89 23.5t47 60.5q3 23 -14.5 32t-59.5 9q-48 0 -86 -17l-29 45l139 135q-161 14 -281 77.5t-183 175
t-50 255.5h240q-9 -141 88.5 -222t284.5 -81q143 0 221.5 43t95.5 135q4 24 4.5 44.5t-4 39t-12 34.5t-22 31.5t-29.5 28.5t-39 27t-47.5 26t-58 26.5t-66 27t-76.5 29.5q-82 31 -133 53t-117 64t-100 87t-52.5 113.5t-3.5 151.5q16 90 65.5 159t125.5 111.5t169.5 64
t203.5 21.5q249 0 391 -124t125 -337z" />
    <glyph glyph-name="scedilla" unicode="&#x15f;" horiz-adv-x="991" 
d="M551 627q66 -20 113.5 -38t100 -49.5t83 -67.5t46 -90t5.5 -120q-13 -100 -74 -167.5t-149.5 -96.5t-202.5 -29h-20l-97 -86l-12 -4q81 10 142.5 -26t45.5 -115q-8 -43 -45 -76t-88.5 -49t-109.5 -16q-136 0 -221 63l49 51q62 -26 137 -26q51 0 90 23.5t45 60.5
q4 23 -13 32t-61 9q-48 0 -86 -17l-26 45l141 142q-175 27 -263.5 124t-88.5 238h209q-3 -91 65 -147t211 -56q94 0 147.5 34t61.5 91q7 45 -5 75.5t-51.5 53t-73 34.5t-105.5 32q-59 17 -101 33t-95 46t-84.5 65t-49 89.5t-8.5 120.5q13 122 124 192t287 70
q107 0 190.5 -27.5t133.5 -74.5t75 -105t25 -123h-205q2 68 -54.5 114t-170.5 46q-86 0 -137 -26.5t-57 -73.5q-5 -39 6.5 -66t42 -45.5t65.5 -31.5t91 -29q7 -2 12 -3.5t10 -2.5z" />
    <glyph glyph-name="Scaron" unicode="&#x160;" horiz-adv-x="1265" 
d="M559 1901h199l76 -162h4l139 162h207l-252 -269h-227zM715 868q54 -21 90 -35.5t82 -35t75.5 -37t65 -39t57 -44.5t45 -50t35 -58t20 -66t8 -78t-8.5 -89q-26 -173 -175 -270t-397 -97q-183 0 -323 60.5t-214.5 178t-60.5 273.5h240q-9 -141 88.5 -222t284.5 -81
q143 0 221.5 43t95.5 135q4 24 4.5 44.5t-4 39t-12 34.5t-22 31.5t-29.5 28.5t-39 27t-47.5 26t-58 26.5t-66 27t-76.5 29.5q-82 31 -133 53t-117 64t-100 87t-52.5 113.5t-3.5 151.5q16 90 65.5 159t125.5 111.5t169.5 64t203.5 21.5q249 0 391 -124t125 -337h-240
q7 125 -67.5 188.5t-223.5 63.5q-81 0 -144 -14t-108 -49.5t-55 -89.5q-7 -43 2 -77t28.5 -57.5t57.5 -45.5t75.5 -37.5t94.5 -37.5q18 -6 27 -10z" />
    <glyph glyph-name="scaron" unicode="&#x161;" horiz-adv-x="991" 
d="M354 1481h199l76 -162h4l139 162h207l-250 -269h-227zM551 627q66 -20 113.5 -38t100 -49.5t83 -67.5t46 -90t5.5 -120q-13 -100 -74 -167.5t-149.5 -96.5t-202.5 -29q-237 0 -359 103.5t-122 269.5h209q-3 -91 65 -147t211 -56q94 0 147.5 34t61.5 91q7 45 -5 75.5
t-51.5 53t-73 34.5t-105.5 32q-59 17 -101 33t-95 46t-84.5 65t-49 89.5t-8.5 120.5q13 122 124 192t287 70q107 0 190.5 -27.5t133.5 -74.5t75 -105t25 -123h-205q2 68 -54.5 114t-170.5 46q-86 0 -137 -26.5t-57 -73.5q-5 -39 6.5 -66t42 -45.5t65.5 -31.5t91 -29
q7 -2 12 -3.5t10 -2.5z" />
    <glyph glyph-name="uni0162" unicode="&#x162;" horiz-adv-x="1261" 
d="M594 0l-100 -100l-11 -4q81 10 142 -26.5t45 -115.5q-13 -65 -84 -103t-162 -38q-134 0 -219 63l51 52q61 -27 137 -27q49 0 88.5 23.5t46.5 60.5q3 23 -14.5 32t-60.5 9q-50 0 -86 -16l-27 45l143 145h-75l245 1257h-469l39 207h1180l-39 -207h-469l-244 -1257h-57z" />
    <glyph glyph-name="uni0163" unicode="&#x163;" horiz-adv-x="641" 
d="M287 -109q49 6 94.5 -5t74 -46.5t17.5 -89.5q-13 -65 -84.5 -103t-159.5 -38q-136 0 -221 63l49 52q69 -29 138 -29q49 0 88.5 24.5t46.5 61.5q4 23 -13 32t-61 9q-48 0 -86 -17l-29 45l148 142q-199 25 -148 299l113 579h-152l35 177h152l65 329h215l-63 -329h196
l-34 -177h-197l-113 -573q-9 -44 -3 -69.5t26.5 -37.5t57 -13.5t89.5 1.5l-22 -178q-50 -11 -111 -14l-100 -90z" />
    <glyph glyph-name="Tcaron" unicode="&#x164;" horiz-adv-x="1243" 
d="M571 1901h199l76 -162h4l139 162h207l-252 -269h-227zM397 0l246 1257h-469l39 207h1180l-41 -207h-467l-244 -1257h-244z" />
    <glyph glyph-name="tcaron" unicode="&#x165;" horiz-adv-x="694" 
d="M815 1577q68 0 96.5 -53t12.5 -138q-8 -39 -28 -76.5t-53 -72t-85 -58.5t-115 -30l2 80q52 8 104.5 43t65.5 74q-69 -20 -108 18t-27 104q9 47 45.5 78t89.5 31zM567 1376l-63 -329h196l-34 -177h-197l-113 -573q-9 -44 -3 -69.5t26.5 -37.5t57 -13.5t89.5 1.5l-22 -178
q-66 -14 -146 -14q-138 0 -194 72.5t-25 232.5l113 579h-152l35 177h152l65 329h215z" />
    <glyph glyph-name="Tbar" unicode="&#x166;" horiz-adv-x="1232" 
d="M1352 1257h-467l-82 -421h309l-29 -156h-309l-133 -680h-244l133 680h-309l29 156h309l84 421h-469l39 207h1180z" />
    <glyph glyph-name="tbar" unicode="&#x167;" horiz-adv-x="638" 
d="M602 539h-199l-47 -242q-18 -84 18.5 -105t149.5 -14l-20 -178q-66 -14 -146 -14q-138 0 -194 72.5t-25 232.5l47 248h-147l31 157h147l35 174h-152l35 177h152l63 329h217l-65 -329h198l-34 -177h-199l-33 -174h199z" />
    <glyph glyph-name="Umacron" unicode="&#x16a;" horiz-adv-x="1361" 
d="M657 1851h547l-33 -161h-546zM1251 494q-48 -249 -212 -387t-455 -138q-152 0 -259 39t-162 110t-73 170t8 220l185 956h243l-186 -970q-32 -166 31 -241t229 -75q346 0 410 330l186 956h242z" />
    <glyph glyph-name="umacron" unicode="&#x16b;" horiz-adv-x="1097" 
d="M979 1434l-31 -164h-547l31 164h547zM883 1047h217l-205 -1047h-217l29 133l-5 -4q-59 -70 -151 -115t-213 -45q-158 0 -240.5 94t-48.5 267l139 717h215l-129 -670q-46 -223 150 -223q128 0 220.5 72.5t115.5 189.5z" />
    <glyph glyph-name="Uring" unicode="&#x16e;" horiz-adv-x="1361" 
d="M887 1604q-84 0 -131.5 55.5t-30.5 144.5q15 76 75 125t134 49q84 0 133 -57.5t31 -144.5q-17 -77 -77 -124.5t-134 -47.5zM891 1696q46 0 76.5 27.5t36.5 68.5q9 47 -12.5 70.5t-61.5 23.5q-47 0 -76 -27t-37 -69q-9 -47 12.5 -70.5t61.5 -23.5zM1251 494
q-48 -249 -212 -387t-455 -138q-152 0 -259 39t-162 110t-73 170t8 220l185 956h243l-186 -970q-32 -166 31 -241t229 -75q346 0 410 330l186 956h242z" />
    <glyph glyph-name="uring" unicode="&#x16f;" horiz-adv-x="1097" 
d="M672 1186q-84 0 -132 56t-30 144q15 75 75.5 125t133.5 50q84 0 132.5 -57.5t31.5 -145.5q-17 -78 -77 -125t-134 -47zM676 1276q45 0 74.5 28t37.5 70q9 47 -12.5 70.5t-60.5 23.5q-47 0 -75 -27.5t-38 -70.5q-9 -47 12.5 -70.5t61.5 -23.5zM883 1047h217l-205 -1047
h-217l29 133l-5 -4q-59 -70 -151 -115t-213 -45q-158 0 -240.5 94t-48.5 267l139 717h215l-129 -670q-46 -223 150 -223q128 0 220.5 72.5t115.5 189.5z" />
    <glyph glyph-name="Uhungarumlaut" unicode="&#x170;" horiz-adv-x="1361" 
d="M752 1901h256l-224 -269h-172zM1094 1901h254l-222 -269h-172zM1251 494q-48 -249 -212 -387t-455 -138q-152 0 -259 39t-162 110t-73 170t8 220l185 956h243l-186 -970q-32 -166 31 -241t229 -75q346 0 410 330l186 956h242z" />
    <glyph glyph-name="uhungarumlaut" unicode="&#x171;" horiz-adv-x="1097" 
d="M782 1481l-219 -269h-174l139 269h254zM1124 1481l-219 -269h-174l139 269h254zM760 416l123 631h217l-205 -1047h-217l29 133l-5 -4q-59 -70 -151 -115t-213 -45q-158 0 -240.5 94t-48.5 267l139 717h215l-129 -670q-46 -223 150 -223q128 0 220.5 72.5t115.5 189.5z
" />
    <glyph glyph-name="Uogonek" unicode="&#x172;" horiz-adv-x="1361" 
d="M1196 1464h242l-187 -970q-78 -399 -422 -498q-67 -36 -106.5 -80t-46.5 -80q-6 -25 9 -39t42 -14q41 0 107 20l-17 -147q-67 -18 -139 -18q-104 0 -150.5 46t-31.5 126q18 100 135 165q-14 -6 -47 -6q-152 0 -259 39t-162 110t-73 170t8 220l185 956h243l-186 -970
q-32 -166 31 -241t229 -75q346 0 410 330z" />
    <glyph glyph-name="uogonek" unicode="&#x173;" horiz-adv-x="1099" 
d="M807 -217q38 0 100 20l-16 -147q-65 -18 -139 -18q-104 0 -151.5 46.5t-29.5 125.5q11 63 64 114.5t117 77.5l-74 -2l29 133l-5 -4q-59 -70 -151 -115t-213 -45q-158 0 -240.5 94t-48.5 267l139 717h215l-129 -670q-46 -223 150 -223q128 0 220.5 72.5t115.5 189.5
l123 631h217l-203 -1047h-4q-136 -92 -145 -166q-3 -25 12.5 -38t46.5 -13z" />
    <glyph glyph-name="Wcircumflex" unicode="&#x174;" horiz-adv-x="1878" 
d="M821 1632l250 269h227l148 -269h-199l-76 162h-4l-139 -162h-207zM190 1464h248l29 -1134h4l516 1134h250l76 -1134h4l471 1134h252l-651 -1464h-256l-78 1147h-4l-523 -1147h-258z" />
    <glyph glyph-name="wcircumflex" unicode="&#x175;" horiz-adv-x="1538" 
d="M573 1212l250 269h228l147 -269h-199l-75 162h-4l-138 -162h-209zM104 1047h224l59 -795h4l367 795h211l61 -795h4l367 795h229l-524 -1047h-217l-68 799h-4l-379 -799h-217z" />
    <glyph glyph-name="Ycircumflex" unicode="&#x176;" horiz-adv-x="1271" 
d="M522 1632l248 269h229l146 -269h-199l-74 162h-4l-141 -162h-205zM172 1464h256l246 -680h2l516 680h264l-694 -882l-115 -582h-244l117 582z" />
    <glyph glyph-name="ycircumflex" unicode="&#x177;" horiz-adv-x="1032" 
d="M319 1212l250 269h228l147 -269h-196l-78 162h-4l-138 -162h-209zM1124 1047l-632 -1119q-40 -71 -71 -114.5t-75.5 -86.5t-100 -63t-126.5 -20q-72 0 -158 22l27 162l10 -2q140 -19 219 65q42 35 67.5 95t14.5 129l-201 932h228l137 -801h4l424 801h233z" />
    <glyph glyph-name="Ydieresis" unicode="&#x178;" horiz-adv-x="1271" 
d="M578 1798q8 44 42.5 74.5t84.5 30.5q61 0 89 -39t17 -95q-8 -44 -41.5 -74t-83.5 -30q-62 0 -90.5 38.5t-17.5 94.5zM928 1798q8 44 42.5 74.5t84.5 30.5q61 0 89 -39t17 -95q-8 -43 -42 -73.5t-83 -30.5q-62 0 -90.5 38.5t-17.5 94.5zM172 1464h256l246 -680h2l516 680
h264l-694 -882l-115 -582h-244l117 582z" />
    <glyph glyph-name="Zacute" unicode="&#x179;" horiz-adv-x="1245" 
d="M891 1901h254l-221 -269h-174zM279 1464h1077l-37 -207l-1024 -1046l-4 -4h844l-43 -207h-1139l39 207l1024 1046l4 4h-780z" />
    <glyph glyph-name="zacute" unicode="&#x17a;" horiz-adv-x="964" 
d="M674 1481h254l-219 -269h-174zM-23 160l703 706l2 4h-526l34 177h816l-27 -144l-717 -723l-2 -4h598l-35 -176h-874z" />
    <glyph glyph-name="Zdotaccent" unicode="&#x17b;" horiz-adv-x="1245" 
d="M752 1798q8 44 42.5 74.5t84.5 30.5q61 0 89 -39t17 -95q-8 -43 -42 -73.5t-83 -30.5q-62 0 -90.5 38.5t-17.5 94.5zM279 1464h1077l-37 -207l-1024 -1046l-4 -4h844l-43 -207h-1139l39 207l1024 1046l4 4h-780z" />
    <glyph glyph-name="zdotaccent" unicode="&#x17c;" horiz-adv-x="964" 
d="M537 1378q6 45 40 76t85 31q61 0 89 -39t17 -96q-6 -43 -40 -73t-85 -30q-61 0 -89 38t-17 93zM-23 160l703 706l2 4h-526l34 177h816l-27 -144l-717 -723l-2 -4h598l-35 -176h-874z" />
    <glyph glyph-name="Zcaron" unicode="&#x17d;" horiz-adv-x="1245" 
d="M584 1901h196l76 -162h4l139 162h209l-252 -269h-227zM279 1464h1077l-37 -207l-1024 -1046l-4 -4h844l-43 -207h-1139l39 207l1024 1046l4 4h-780z" />
    <glyph glyph-name="zcaron" unicode="&#x17e;" horiz-adv-x="964" 
d="M367 1481h196l78 -162h4l137 162h209l-250 -269h-227zM-23 160l703 706l2 4h-526l34 177h816l-27 -144l-717 -723l-2 -4h598l-35 -176h-874z" />
    <glyph glyph-name="Scommaaccent" unicode="&#x218;" horiz-adv-x="1265" 
d="M715 868q54 -21 90 -35.5t82 -35t75.5 -37t65 -39t57 -44.5t45 -50t35 -58t20 -66t8 -78t-8.5 -89q-26 -173 -175 -270t-397 -97q-183 0 -323 60.5t-214.5 178t-60.5 273.5h240q-9 -141 88.5 -222t284.5 -81q143 0 221.5 43t95.5 135q4 24 4.5 44.5t-4 39t-12 34.5
t-22 31.5t-29.5 28.5t-39 27t-47.5 26t-58 26.5t-66 27t-76.5 29.5q-82 31 -133 53t-117 64t-100 87t-52.5 113.5t-3.5 151.5q16 90 65.5 159t125.5 111.5t169.5 64t203.5 21.5q249 0 391 -124t125 -337h-240q7 125 -67.5 188.5t-223.5 63.5q-81 0 -144 -14t-108 -49.5
t-55 -89.5q-7 -43 2 -77t28.5 -57.5t57.5 -45.5t75.5 -37.5t94.5 -37.5q18 -6 27 -10zM532 -332q-58 -21 -92.5 12t-21.5 101q9 46 45 76t80 30q67 0 93.5 -53t8.5 -137q-14 -83 -78.5 -151t-183.5 -87l2 90q56 9 95 39.5t52 79.5z" />
    <glyph glyph-name="scommaaccent" unicode="&#x219;" horiz-adv-x="991" 
d="M551 627q66 -20 113.5 -38t100 -49.5t83 -67.5t46 -90t5.5 -120q-13 -100 -74 -167.5t-149.5 -96.5t-202.5 -29q-237 0 -359 103.5t-122 269.5h209q-3 -91 65 -147t211 -56q94 0 147.5 34t61.5 91q7 45 -5 75.5t-51.5 53t-73 34.5t-105.5 32q-59 17 -101 33t-95 46
t-84.5 65t-49 89.5t-8.5 120.5q13 122 124 192t287 70q107 0 190.5 -27.5t133.5 -74.5t75 -105t25 -123h-205q2 68 -54.5 114t-170.5 46q-86 0 -137 -26.5t-57 -73.5q-5 -39 6.5 -66t42 -45.5t65.5 -31.5t91 -29q7 -2 12 -3.5t10 -2.5zM346 -332q-59 -21 -94.5 12t-22.5 101
q9 46 45 76t80 30q68 0 94.5 -52.5t10.5 -137.5q-16 -84 -81 -151.5t-183 -86.5l2 90q120 20 149 119z" />
    <glyph glyph-name="uni021A" unicode="&#x21a;" horiz-adv-x="1243" 
d="M397 0l246 1257h-469l39 207h1180l-41 -207h-467l-244 -1257h-244zM473 -315q-59 -21 -93.5 11.5t-21.5 100.5q9 47 44.5 77t80.5 30q67 0 93 -53t10 -138q-16 -84 -80 -151t-184 -86l2 90q123 20 149 119z" />
    <glyph glyph-name="uni021B" unicode="&#x21b;" horiz-adv-x="641" 
d="M668 870h-197l-113 -573q-9 -44 -3 -69.5t26.5 -37.5t57 -13.5t89.5 1.5l-22 -178q-66 -14 -146 -14q-138 0 -194 72.5t-25 232.5l113 579h-152l35 177h152l65 329h215l-63 -329h196zM295 -100q67 0 93.5 -53t10.5 -138q-18 -85 -82.5 -151.5t-183.5 -85.5l6 90
q55 9 94.5 39.5t53.5 79.5q-60 -21 -95 11.5t-22 100.5q9 46 45 76.5t80 30.5z" />
    <glyph glyph-name="circumflex" unicode="&#x2c6;" horiz-adv-x="1017" 
d="M322 1212l249 269h228l147 -269h-196l-78 162h-4l-138 -162h-208z" />
    <glyph glyph-name="caron" unicode="&#x2c7;" horiz-adv-x="1017" 
d="M383 1481h197l75 -162h4l140 162h207l-248 -269h-230z" />
    <glyph glyph-name="breve" unicode="&#x2d8;" horiz-adv-x="1015" 
d="M655 1204q-127 0 -193.5 75.5t-45.5 209.5l139 -14q-7 -66 16.5 -94.5t85.5 -28.5q141 0 177 137l143 -14q-32 -130 -118 -200.5t-204 -70.5z" />
    <glyph glyph-name="dotaccent" unicode="&#x2d9;" horiz-adv-x="1032" 
d="M561 1378q8 45 41.5 76t83.5 31q61 0 90.5 -39.5t18.5 -95.5q-8 -43 -42.5 -73t-84.5 -30q-61 0 -89.5 38t-17.5 93z" />
    <glyph glyph-name="ring" unicode="&#x2da;" horiz-adv-x="1013" 
d="M651 1186q-84 0 -132.5 55.5t-31.5 144.5q15 75 76 125t133 50q85 0 133.5 -57.5t30.5 -145.5q-15 -77 -75 -124.5t-134 -47.5zM653 1276q47 0 77 28t36 70q9 47 -12.5 70.5t-61.5 23.5q-45 0 -74.5 -28t-35.5 -70q-9 -47 12 -70.5t59 -23.5z" />
    <glyph glyph-name="ogonek" unicode="&#x2db;" horiz-adv-x="1019" 
d="M319 -362q-104 0 -150.5 46t-31.5 126q11 63 64.5 114.5t117.5 77.5l160 -6q-77 -51 -118.5 -90.5t-45.5 -75.5q-4 -23 11.5 -35t44.5 -12q38 0 104 20l-16 -147q-65 -18 -140 -18z" />
    <glyph glyph-name="tilde" unicode="&#x2dc;" horiz-adv-x="1028" 
d="M352 1264q21 112 71 162.5t118 50.5q45 0 92.5 -19t86 -38t60.5 -19q36 0 56 24.5t26 55.5l135 -15q-44 -213 -188 -213q-45 0 -93 19t-86.5 38t-60.5 19q-36 0 -57 -26t-25 -54z" />
    <glyph glyph-name="hungarumlaut" unicode="&#x2dd;" horiz-adv-x="1116" 
d="M514 1481h254l-221 -269h-174zM856 1481h254l-221 -269h-174z" />
    <glyph glyph-name="gravecomb" unicode="&#x300;" 
d="M35 1481l35 -269h-164l-117 269h246z" />
    <glyph glyph-name="acutecomb" unicode="&#x301;" 
d="M-127 1481h254l-221 -269h-174z" />
    <glyph glyph-name="uni0302" unicode="&#x302;" 
d="M-555 1212l250 269h227l148 -269h-197l-78 162h-4l-137 -162h-209z" />
    <glyph glyph-name="tildecomb" unicode="&#x303;" 
d="M-524 1264q22 112 71.5 162.5t116.5 50.5q45 0 93 -19t86.5 -38t60.5 -19q36 0 56 24.5t26 55.5l135 -15q-41 -213 -189 -213q-45 0 -92.5 19t-86 38t-60.5 19q-36 0 -57 -26t-25 -54z" />
    <glyph glyph-name="uni0304" unicode="&#x304;" 
d="M-432 1434h547l-31 -164h-547z" />
    <glyph glyph-name="uni0306" unicode="&#x306;" 
d="M-197 1204q-129 0 -195.5 75.5t-45.5 209.5l141 -14q-7 -66 16.5 -94.5t85.5 -28.5q138 0 177 137l141 -14q-32 -130 -117 -200.5t-203 -70.5z" />
    <glyph glyph-name="uni0307" unicode="&#x307;" 
d="M-135 1378q8 45 42.5 76t84.5 31q61 0 89 -39t17 -96q-8 -44 -41.5 -73.5t-83.5 -29.5q-61 0 -90 38t-18 93z" />
    <glyph glyph-name="uni0308" unicode="&#x308;" 
d="M-483 1378q8 45 42 76t83 31q61 0 90 -39.5t18 -95.5q-8 -43 -42.5 -73t-84.5 -30q-61 0 -89 38t-17 93zM-133 1378q6 45 40 76t85 31q61 0 89 -39t17 -96q-6 -43 -40 -73t-85 -30q-61 0 -89 38t-17 93z" />
    <glyph glyph-name="uni030A" unicode="&#x30a;" 
d="M-109 1186q-84 0 -132 55.5t-31 144.5q15 75 76 125t133 50q85 0 133 -57.5t30 -145.5q-15 -77 -75 -124.5t-134 -47.5zM-106 1276q47 0 76.5 27.5t37.5 70.5q8 47 -14 70.5t-62 23.5q-45 0 -74.5 -28t-35.5 -70q-8 -47 13 -70.5t59 -23.5z" />
    <glyph glyph-name="uni030B" unicode="&#x30b;" 
d="M-469 1481h254l-221 -269h-174zM-127 1481h254l-221 -269h-174z" />
    <glyph glyph-name="uni030C" unicode="&#x30c;" 
d="M-496 1481h197l76 -162h4l139 162h207l-248 -269h-227z" />
    <glyph glyph-name="uni0312" unicode="&#x312;" 
d="M-2 1386q60 21 95 -12t22 -102q-9 -47 -42.5 -76t-78.5 -29q-69 0 -97 53.5t-12 139.5q8 38 26.5 75.5t49.5 74t81 63.5t112 37l-4 -90q-54 -9 -95.5 -46t-56.5 -88z" />
    <glyph glyph-name="uni0326" unicode="&#x326;" 
d="M-336 -332q-58 -21 -93.5 12t-23.5 101q9 46 45.5 76t79.5 30q69 0 96 -53t9 -137q-16 -84 -81 -151.5t-183 -86.5l4 90q55 9 93.5 39.5t53.5 79.5z" />
    <glyph glyph-name="uni0327" unicode="&#x327;" 
d="M-285 -16l-100 -101l-12 -4q37 5 72 -1t64.5 -21.5t44 -46.5t7.5 -72q-13 -65 -84.5 -103t-161.5 -38q-133 0 -221 63l49 51q65 -26 138 -26q51 0 90 23.5t45 60.5q4 23 -13 32t-59 9q-46 0 -88 -17l-27 45l142 146h114z" />
    <glyph glyph-name="uni0328" unicode="&#x328;" 
d="M-362 -362q-104 0 -151.5 46.5t-29.5 125.5q11 63 64 114.5t117 77.5l159 -6q-77 -51 -118.5 -90.5t-45.5 -75.5q-3 -23 12.5 -35t43.5 -12q42 0 104 20l-16 -147q-65 -18 -139 -18z" />
    <glyph glyph-name="uni0335" unicode="&#x335;" 
d="M-2 836l-29 -156h-862l31 156h860z" />
    <glyph glyph-name="uni0336" unicode="&#x336;" 
d="M0 848l-41 -221h-1051l43 221h1049z" />
    <glyph glyph-name="uni0337" unicode="&#x337;" 
d="M-1243 55l55 -75l1215 1013l-58 76z" />
    <glyph glyph-name="uni0338" unicode="&#x338;" 
d="M-1243 55l55 -75l1215 1013l-58 76z" />
    <glyph glyph-name="Wgrave" unicode="&#x1e80;" horiz-adv-x="1878" 
d="M1178 1901l34 -269h-165l-117 269h248zM190 1464h248l29 -1134h4l516 1134h250l76 -1134h4l471 1134h252l-651 -1464h-256l-78 1147h-4l-523 -1147h-258z" />
    <glyph glyph-name="wgrave" unicode="&#x1e81;" horiz-adv-x="1538" 
d="M930 1481l35 -269h-164l-119 269h248zM104 1047h224l59 -795h4l367 795h211l61 -795h4l367 795h229l-524 -1047h-217l-68 799h-4l-379 -799h-217z" />
    <glyph glyph-name="Wacute" unicode="&#x1e82;" horiz-adv-x="1878" 
d="M1190 1901h254l-223 -269h-172zM190 1464h248l29 -1134h4l516 1134h250l76 -1134h4l471 1134h252l-651 -1464h-256l-78 1147h-4l-523 -1147h-258z" />
    <glyph glyph-name="wacute" unicode="&#x1e83;" horiz-adv-x="1538" 
d="M942 1481h254l-221 -269h-174zM104 1047h224l59 -795h4l367 795h211l61 -795h4l367 795h229l-524 -1047h-217l-68 799h-4l-379 -799h-217z" />
    <glyph glyph-name="Wdieresis" unicode="&#x1e84;" horiz-adv-x="1878" 
d="M879 1798q8 44 42.5 74.5t84.5 30.5q61 0 89 -39t17 -95q-8 -43 -42 -73.5t-83 -30.5q-62 0 -90.5 38.5t-17.5 94.5zM1227 1798q10 44 44.5 74.5t84.5 30.5q61 0 89 -39t17 -95q-8 -44 -42.5 -74t-84.5 -30q-61 0 -89 38t-19 95zM190 1464h248l29 -1134h4l516 1134h250
l76 -1134h4l471 1134h252l-651 -1464h-256l-78 1147h-4l-523 -1147h-258z" />
    <glyph glyph-name="wdieresis" unicode="&#x1e85;" horiz-adv-x="1538" 
d="M631 1378q8 45 42 76t83 31q62 0 90.5 -39t17.5 -96q-8 -43 -42.5 -73t-84.5 -30q-61 0 -89 38t-17 93zM981 1378q8 45 41.5 76t83.5 31q61 0 90 -39.5t18 -95.5q-8 -43 -42.5 -73t-84.5 -30q-61 0 -89 38t-17 93zM104 1047h224l59 -795h4l367 795h211l61 -795h4l367 795
h229l-524 -1047h-217l-68 799h-4l-379 -799h-217z" />
    <glyph glyph-name="Ygrave" unicode="&#x1ef2;" horiz-adv-x="1271" 
d="M877 1901l34 -269h-166l-114 269h246zM172 1464h256l246 -680h2l516 680h264l-694 -882l-115 -582h-244l117 582z" />
    <glyph glyph-name="ygrave" unicode="&#x1ef3;" horiz-adv-x="1032" 
d="M676 1481l35 -269h-164l-119 269h248zM1124 1047l-632 -1119q-40 -71 -71 -114.5t-75.5 -86.5t-100 -63t-126.5 -20q-72 0 -158 22l27 162l10 -2q140 -19 219 65q42 35 67.5 95t14.5 129l-201 932h228l137 -801h4l424 801h233z" />
    <glyph glyph-name="endash" unicode="&#x2013;" horiz-adv-x="1212" 
d="M111 621h1024l-39 -201h-1024z" />
    <glyph glyph-name="emdash" unicode="&#x2014;" horiz-adv-x="2048" 
d="M223 621h1639l-41 -203h-1639z" />
    <glyph glyph-name="quoteleft" unicode="&#x2018;" horiz-adv-x="430" 
d="M332 1192q64 15 102 -23t23 -112q-12 -59 -51.5 -91t-92.5 -32q-72 0 -101 54t-11 147q11 56 35.5 109t61.5 101t92 81.5t120 43.5l-10 -118q-58 -10 -105.5 -56t-62.5 -104z" />
    <glyph glyph-name="quoteright" unicode="&#x2019;" horiz-adv-x="423" 
d="M360 1223q-65 -15 -102 22t-22 113q10 58 50 90.5t93 32.5q72 0 101.5 -54.5t11.5 -148.5q-11 -56 -35.5 -108.5t-62 -101t-93 -82.5t-121.5 -44l13 121q57 10 103 55t64 105z" />
    <glyph glyph-name="quotesinglbase" unicode="&#x201a;" horiz-adv-x="423" 
d="M121 -8q-65 -15 -102.5 22t-22.5 113q10 58 50.5 90.5t94.5 32.5q71 0 99.5 -55.5t9.5 -147.5q-15 -76 -50.5 -144t-103 -123t-153.5 -69l10 121q58 10 104 55t64 105z" />
    <glyph glyph-name="quotedblleft" unicode="&#x201c;" horiz-adv-x="782" 
d="M336 1192q63 15 100.5 -22.5t24.5 -112.5q-12 -59 -52 -91t-92 -32q-73 0 -101.5 54t-10.5 147q11 56 34.5 109t60.5 100.5t92.5 81.5t121.5 44l-10 -118q-58 -10 -105.5 -56t-62.5 -104zM684 1192q65 15 102.5 -22.5t22.5 -112.5q-12 -59 -51 -91t-92 -32
q-72 0 -101.5 54.5t-11.5 146.5q11 56 35.5 109t61.5 101t92 81.5t120 43.5l-10 -118q-58 -10 -105.5 -56t-62.5 -104z" />
    <glyph glyph-name="quotedblright" unicode="&#x201d;" horiz-adv-x="770" 
d="M356 1223q-64 -15 -101 22t-24 113q10 58 50.5 90.5t93.5 32.5q72 0 101 -54.5t11 -148.5q-11 -56 -35 -108.5t-61 -101t-92 -82.5t-121 -44l10 121q58 10 105.5 55.5t62.5 104.5zM705 1223q-64 -16 -101 21.5t-22 113.5q10 58 49.5 90.5t93.5 32.5q71 0 100.5 -55
t12.5 -148q-11 -56 -35.5 -108.5t-62 -101t-93 -82.5t-121.5 -44l11 121q58 10 105.5 55.5t62.5 104.5z" />
    <glyph glyph-name="quotedblbase" unicode="&#x201e;" horiz-adv-x="774" 
d="M121 -8q-65 -15 -102.5 22t-22.5 113q10 58 50.5 90.5t94.5 32.5q71 0 99.5 -55.5t9.5 -147.5q-15 -76 -50.5 -144t-103 -123t-153.5 -69l10 121q58 10 104 55t64 105zM471 -8q-65 -15 -102.5 22t-22.5 113q10 58 50.5 90.5t95.5 32.5q71 0 99.5 -55t10.5 -148
q-11 -56 -35 -108.5t-61 -101t-92 -82.5t-121 -44l10 121q58 10 104 55t64 105z" />
    <glyph glyph-name="dagger" unicode="&#x2020;" horiz-adv-x="1091" 
d="M489 848h-360l39 201h360l80 415h238l-80 -415h358l-41 -201h-358l-233 -1210h-238z" />
    <glyph glyph-name="daggerdbl" unicode="&#x2021;" horiz-adv-x="1089" 
d="M360 193h-360l41 200h360l86 455h-360l41 201h360l80 415h238l-80 -415h358l-41 -201h-358l-86 -455h358l-41 -200h-358l-106 -555h-238z" />
    <glyph glyph-name="bullet" unicode="&#x2022;" horiz-adv-x="653" 
d="M313 389q-125 0 -187 81.5t-38 199.5q21 106 104 179t197 73q126 0 186.5 -81t38.5 -200q-21 -106 -104 -179t-197 -73z" />
    <glyph glyph-name="ellipsis" unicode="&#x2026;" horiz-adv-x="1140" 
d="M117 -16q-63 0 -96.5 41t-20.5 106q10 53 49.5 86t91.5 33q61 0 95.5 -42.5t21.5 -105.5q-10 -54 -50 -86t-91 -32zM477 -16q-63 0 -96.5 41t-20.5 106q10 53 50 86t92 33q61 0 95 -42t21 -106q-10 -54 -50 -86t-91 -32zM838 -16q-63 0 -96.5 41t-20.5 106q10 53 49.5 86
t91.5 33q61 0 95.5 -42.5t21.5 -105.5q-10 -54 -50 -86t-91 -32z" />
    <glyph glyph-name="perthousand" unicode="&#x2030;" horiz-adv-x="2463" 
d="M414 631q-70 0 -125 22t-88.5 61t-53.5 92.5t-20.5 115.5t10.5 131q33 170 139.5 281.5t270.5 111.5q88 0 151 -34t93 -92t39.5 -134.5t-9.5 -161.5q-33 -171 -138 -282t-269 -111zM1468 1415l-1019 -1415h-166l1017 1415h168zM424 786q168 0 219 258q45 244 -108 244
q-86 0 -141 -68t-79 -190q-45 -244 109 -244zM1204 -31q-70 0 -125 22t-88.5 61t-53 92.5t-20 115.5t10.5 131q16 82 50.5 151.5t84.5 124.5t120.5 86t153.5 31q88 0 151 -34t93.5 -92t40 -134.5t-9.5 -161.5q-16 -82 -49 -151.5t-83 -124.5t-121 -86t-155 -31zM1978 -31
q-70 0 -125 22t-88.5 61t-53 92.5t-20 115.5t10.5 131q16 82 50.5 151.5t84.5 124.5t120.5 86t153.5 31q88 0 151 -34t93.5 -92t40 -134.5t-9.5 -161.5q-16 -82 -49 -151.5t-83 -124.5t-121 -86t-155 -31zM1217 127q166 0 217 258q24 117 -3 180.5t-104 63.5
q-86 0 -141.5 -68.5t-79.5 -191.5q-22 -117 5.5 -179.5t105.5 -62.5zM1991 127q166 0 217 258q24 117 -3 180.5t-104 63.5q-170 0 -221 -260q-22 -117 5.5 -179.5t105.5 -62.5z" />
    <glyph glyph-name="guilsinglleft" unicode="&#x2039;" horiz-adv-x="509" 
d="M72 403l41 226l364 252l-39 -209l-229 -154l-2 -4l168 -154l-37 -208z" />
    <glyph glyph-name="guilsinglright" unicode="&#x203a;" horiz-adv-x="514" 
d="M393 403l-362 -251l37 208l231 154v4l-168 154l39 209l264 -252z" />
    <glyph glyph-name="fraction" unicode="&#x2044;" horiz-adv-x="593" 
d="M938 1464h174l-1376 -1464h-174z" />
    <glyph glyph-name="Euro" unicode="&#x20ac;" horiz-adv-x="1320" 
d="M666 172q76 0 137.5 28t102.5 77.5t68.5 104.5t45.5 122h235q-68 -251 -222.5 -393t-385.5 -142q-120 0 -212 40t-147.5 112.5t-82 170t-21.5 216.5h-123l23 129h113q1 20 10 74q1 5 4 21t4 26h-109l25 129h121q87 256 254.5 401.5t398.5 145.5q120 0 209.5 -39
t140 -108.5t70.5 -159.5t10 -197h-233q16 301 -217 301q-266 0 -398 -344h383l-24 -129h-393q-3 -12 -9 -33.5t-8 -34.5q-6 -48 -6 -53h393l-22 -129h-383q-5 -158 54.5 -247t193.5 -89z" />
    <glyph glyph-name="trademark" unicode="&#x2122;" horiz-adv-x="1345" 
d="M389 1339h-176l25 125h489l-25 -125h-176l-84 -440h-137zM803 1464h190l47 -385l199 385h195l-109 -565h-133l78 406h-2l-203 -406h-117l-41 406h-6l-78 -406h-129z" />
    <glyph glyph-name="arrowleft" unicode="&#x2190;" horiz-adv-x="1538" 
d="M516 76l-430 577l645 580l107 -119l-418 -373h1100l-35 -176h-1104l278 -370z" />
    <glyph glyph-name="arrowup" unicode="&#x2191;" horiz-adv-x="1282" 
d="M1288 879l-139 -125l-305 348l-217 -1102h-176l217 1102l-439 -348l-98 125l678 536z" />
    <glyph glyph-name="arrowright" unicode="&#x2192;" horiz-adv-x="1538" 
d="M858 76l-108 119l419 370h-1099l34 176h1104l-280 373l145 119l428 -580z" />
    <glyph glyph-name="arrowdown" unicode="&#x2193;" horiz-adv-x="1282" 
d="M1206 455l-680 -537l-479 537l141 125l306 -349l217 1102h176l-217 -1102l436 349z" />
    <glyph glyph-name="arrowboth" unicode="&#x2194;" horiz-adv-x="2334" 
d="M1870 1233l428 -580l-641 -577l-111 119l420 370h-1585l278 -370l-143 -121l-430 579l645 580l107 -119l-418 -373h1585l-279 373z" />
    <glyph glyph-name="arrowupdn" unicode="&#x2195;" horiz-adv-x="1282" 
d="M614 -49l437 348l102 -125l-680 -536l-479 536l139 125l305 -348l267 1345l-437 -348l-100 125l680 537l479 -537l-139 -125l-307 348z" />
    <glyph glyph-name="uni2196" unicode="&#x2196;" horiz-adv-x="1200" 
d="M25 440l184 789l797 31l-33 -175l-514 -16l631 -778l-144 -123l-631 778l-116 -510z" />
    <glyph glyph-name="uni2197" unicode="&#x2197;" horiz-adv-x="1216" 
d="M1139 440l-176 -4l86 510l-928 -778l-105 123l928 778l-504 16l37 175l785 -31z" />
    <glyph glyph-name="uni2198" unicode="&#x2198;" horiz-adv-x="1200" 
d="M1225 879l-185 -789l-796 -31l32 174l515 17l-631 778l143 123l631 -778l115 510z" />
    <glyph glyph-name="uni2199" unicode="&#x2199;" horiz-adv-x="1200" 
d="M111 879l174 4l-84 -510l927 778l105 -123l-928 -778l504 -17l-39 -174l-782 31z" />
    <glyph glyph-name="partialdiff" unicode="&#x2202;" horiz-adv-x="1150" 
d="M893 829l8 17q1 104 -28.5 183t-85.5 128t-130.5 75.5t-167.5 31.5l27 200q127 -3 228.5 -35.5t171 -89t116 -132.5t67 -168t19.5 -193.5t-22 -212.5q-20 -104 -56.5 -198t-94 -180t-130.5 -148.5t-171.5 -100t-211.5 -37.5q-207 0 -307.5 133t-56.5 357q19 98 71 189.5
t124.5 161.5t165.5 112.5t189 42.5q199 0 275 -136zM465 164q136 0 239 103t132 249q21 106 -26 180t-151 74q-133 0 -237 -104t-131 -248q-23 -113 26.5 -183.5t147.5 -70.5z" />
    <glyph glyph-name="emptyset" unicode="&#x2205;" horiz-adv-x="1632" 
d="M1518 1194q145 -209 86 -502q-41 -211 -171.5 -377t-316.5 -256t-393 -90q-284 0 -465 170l-162 -137l-69 82l159 135q-145 209 -86 502q41 211 172 377.5t317.5 257t393.5 90.5q285 0 463 -170l162 137l71 -82zM209 692q-44 -234 65 -399l1086 907q-138 129 -373 129
q-179 0 -343.5 -79.5t-281.5 -226.5t-153 -331zM719 86q178 0 342 79.5t281 226t153 329.5q44 235 -63 401l-1088 -907q141 -129 375 -129z" />
    <glyph glyph-name="product" unicode="&#x220f;" horiz-adv-x="1146" 
d="M184 1464h1182l-324 -1669h-235l285 1469h-709l-287 -1469h-235z" />
    <glyph glyph-name="summation" unicode="&#x2211;" horiz-adv-x="970" 
d="M-150 2l678 643l2 4l-430 611l37 204h1090l-39 -200h-811l-2 -4l383 -549l-19 -115l-620 -596l-4 -4h848l-39 -201h-1110z" />
    <glyph glyph-name="minus" unicode="&#x2212;" horiz-adv-x="1146" 
d="M145 780h951l-37 -202h-953z" />
    <glyph glyph-name="radical" unicode="&#x221a;" horiz-adv-x="1343" 
d="M63 676h310l84 -592h4l706 1380h240l-893 -1669h-215l-117 680h-155z" />
    <glyph glyph-name="infinity" unicode="&#x221e;" horiz-adv-x="1452" 
d="M63 637q32 172 136 261t229 89q64 0 117.5 -18.5t94 -54t65 -65t53.5 -73.5l4 10q46 43 81 71.5t86.5 62t107.5 50.5t116 17q63 0 115 -23t89.5 -70t49.5 -118t-6 -168q-32 -169 -136 -258.5t-227 -89.5q-61 0 -111 18.5t-90.5 59t-59.5 65t-52 76.5q-7 10 -10 15l-6 -11
q-108 -101 -164 -140q-119 -83 -232 -83q-64 0 -116.5 23t-90 70t-49.5 118t6 166zM350 444q21 0 43 6t39.5 12.5t41 22.5t36 24.5t37.5 31.5t33 30.5t33.5 33.5t29.5 30q-52 85 -79 113q-54 57 -118 57q-77 0 -132 -52t-72 -143q-15 -81 13 -123.5t95 -42.5zM1020 444
q76 0 131 52t74 143q15 81 -13.5 123.5t-95.5 42.5q-24 0 -47.5 -5.5t-49 -20t-42 -24t-44.5 -35t-37 -33.5t-39.5 -39t-33.5 -34q51 -87 83 -119q52 -51 114 -51z" />
    <glyph glyph-name="integral" unicode="&#x222b;" horiz-adv-x="937" 
d="M471 -18q-31 -162 -118.5 -252t-235.5 -90q-95 0 -176 22l22 186q237 -36 289 215l215 1111q68 342 354 342q88 0 178 -23l-24 -186q-238 37 -287 -215z" />
    <glyph glyph-name="approxequal" unicode="&#x2248;" horiz-adv-x="1142" 
d="M854 684q-82 0 -239 39t-216 39q-118 0 -139 -98l-160 12q54 268 277 268q80 0 237 -39t217 -39q117 0 138 99l159 -13q-54 -268 -274 -268zM782 324q-79 0 -236.5 38.5t-217.5 38.5q-121 0 -138 -98l-159 14q23 120 88.5 194.5t185.5 74.5q81 0 238.5 -40t216.5 -40
q120 0 137 100l162 -14q-54 -268 -277 -268z" />
    <glyph glyph-name="notequal" unicode="&#x2260;" horiz-adv-x="1136" 
d="M1073 719h-358l-107 -160h434l-41 -201h-526l-135 -202h-168l135 202h-244l39 201h338l107 160h-414l39 201h510l123 186h166l-123 -186h264z" />
    <glyph glyph-name="lessequal" unicode="&#x2264;" horiz-adv-x="1034" 
d="M881 233l-777 320l41 223l899 322l-36 -203l-703 -227l-2 -4l615 -228zM866 172l-35 -176h-837l35 176h837z" />
    <glyph glyph-name="greaterequal" unicode="&#x2265;" horiz-adv-x="1034" 
d="M47 233l39 203l700 228l2 4l-614 227l39 203l774 -322l-43 -223zM33 172h837l-34 -176h-838z" />
    <glyph glyph-name="lozenge" unicode="&#x25ca;" horiz-adv-x="1150" 
d="M80 733l553 731h231l273 -733l-553 -731h-232zM506 201l393 526l-186 537h-2l-396 -529l187 -534h4z" />
    <glyph glyph-name="i.loclTRK" horiz-adv-x="444" 
d="M264 1378q8 45 42.5 76t84.5 31q61 0 89.5 -39.5t17.5 -95.5q-8 -44 -41.5 -73.5t-83.5 -29.5q-61 0 -90.5 38t-18.5 93zM221 1047h215l-205 -1047h-215z" />
    <glyph glyph-name="logo" horiz-adv-x="1865" 
d="M1679 1260q45 0 87 -18.5t76 -53.5t48 -93.5t0 -129.5q-22 -112 -100 -173t-180 -61q94 0 150.5 -70t33.5 -190q-17 -87 -69.5 -150t-110.5 -89.5t-113 -26.5q-24 0 -46.5 4t-34 8.5t-29 12.5t-23.5 10q1 -2 4 -13t4 -15.5t3.5 -16t3 -20.5t1 -21.5t-1 -26t-4.5 -27.5
q-8 -40 -32 -80.5t-62.5 -77t-96.5 -59t-124 -22.5q-119 0 -175.5 70t-37.5 163q-20 -101 -94 -167t-187 -66q-57 0 -103.5 16.5t-73.5 44t-45 62.5t-20 72t3 73q14 78 61 115q-49 -39 -125 -39q-45 0 -87 18t-76 54.5t-47 92t1 130.5q22 111 100.5 171t180.5 60
q-94 0 -150.5 70t-33.5 190q16 87 68 151t109.5 91t112.5 27q20 0 37 -2t33 -7t24 -8.5t23.5 -11t18.5 -8.5q-1 3 -6 23t-7 32t-2 36t4 48q7 40 31 81t62.5 78t96.5 60t124 23q119 0 175 -71t40 -165q20 102 93 169t185 67q71 0 124 -25.5t79.5 -66t36.5 -86.5t2 -91
q-14 -76 -57 -110q47 35 118 35zM756 817q79 0 121 35t57 115l55 278q39 201 -106 201q-72 0 -125.5 -41.5t-65.5 -112.5q-12 -64 21 -125q14 7 24 7q57 0 91 -42.5t22 -99.5q-11 -50 -51.5 -84.5t-89.5 -34.5q-58 0 -88 40t-25 106q-2 8 6 18q-42 45 -115 45
q-62 0 -116.5 -46t-67.5 -115q-12 -65 24.5 -104.5t147.5 -39.5h281zM1739 989q12 58 -18 95.5t-83 37.5q-83 0 -157 -67q-3 -1 -6 -23q-10 -53 -50.5 -86t-87.5 -33q-61 0 -94 42.5t-22 103.5q7 47 48 81t91 34q19 0 31 8q70 56 88 139q12 60 -18 92.5t-91 32.5
q-77 0 -135 -50.5t-80 -162.5l-53 -281q-15 -79 7.5 -107t102.5 -28h279q112 0 172.5 48t75.5 124zM846 510q15 80 -8.5 108.5t-102.5 28.5h-278q-112 0 -172.5 -48.5t-75.5 -125.5q-12 -59 18 -96t82 -37q83 0 158 68q3 1 6 24q9 51 49 84t88 33q60 0 94 -43t23 -103
q-9 -47 -49 -79.5t-90 -32.5q-23 0 -31 -8q-73 -62 -90 -142q-10 -59 20 -92t91 -33q76 0 133.5 50.5t79.5 162.5zM1642 502q12 67 -23 106t-146 39h-281q-80 0 -122.5 -36t-57.5 -115l-54 -279q-39 -201 107 -201q71 0 123 41.5t67 112.5q13 65 -20 125q-8 -4 -27 -4
q-56 0 -88 41.5t-22 99.5q11 50 51.5 83.5t89.5 33.5q34 0 62 -32.5t39.5 -64.5t11.5 -49q2 -8 -6 -18q45 -45 114 -45q63 0 116.5 46.5t65.5 115.5z" />
    </font>
</defs>
</svg>
