<?xml version="1.0" encoding="UTF-8"?>
<svg width="512px" height="512px" viewBox="0 0 512 512" version="1.1" xmlns="http://www.w3.org/2000/svg" xmlns:xlink="http://www.w3.org/1999/xlink">
    <!-- Generator: Sketch 62 (91390) - https://sketch.com -->
    <title>brush</title>
    <desc>Created with Sketch.</desc>
    <g id="Placeholders" stroke="none" stroke-width="1" fill="none" fill-rule="evenodd">
        <g id="brush">
            <rect id="Rectangle-Copy-2" fill="#FAFAFA" x="0" y="0" width="512" height="512"></rect>
            <g opacity="0.448311942" transform="translate(138.000000, 138.000000)" fill="#000000" fill-rule="nonzero">
                <path d="M208.284813,27.6981434 C189.917648,9.34268572 165.500047,-0.490496417 139.529018,0.0188396476 C128.286497,0.237785015 118.852466,8.07833384 116.587358,19.0850631 L101.330739,93.2130504 L6.17542996,188.306785 C-2.05847665,196.535904 -2.05847665,209.926142 6.17542996,218.155722 L17.8459732,229.818366 C21.8347042,233.804554 27.1384064,236 32.7797301,236 C38.4210539,236 43.7247561,233.804554 47.713487,229.818366 L140.928856,136.662413 C141.070915,136.644436 141.212513,136.623233 141.353189,136.591428 L217.322185,119.531666 C228.090098,117.113127 235.760841,107.722906 235.975775,96.6968169 L235.98131,96.4101137 C236.488664,70.4565603 226.651978,46.0540621 208.284813,27.6981434 Z M41.1944395,223.303473 C38.9468579,225.549622 35.9585384,226.786779 32.7797301,226.786779 C29.6009219,226.786779 26.6130636,225.549622 24.365482,223.303473 L21.1400894,220.080137 L38.5036144,202.72814 C40.3038013,200.929101 40.3042625,198.012287 38.5036144,196.212787 C36.7029662,194.414669 33.7847538,194.414669 31.9845669,196.212787 L14.6210419,213.565244 L12.6944775,211.639908 C8.05448751,207.003337 8.05448751,199.458249 12.6944775,194.821216 L63.2044117,144.343477 L91.7043738,172.824812 L41.1944395,223.303473 Z M98.2234213,166.310842 L69.7239204,137.829507 L104.642382,102.933303 L133.141882,131.414638 L98.2234213,166.310842 Z M226.764518,96.2298871 L226.758984,96.5165903 C226.62661,103.289608 221.915129,109.057781 215.301529,110.542922 L141.808424,127.046793 L138.042468,123.283238 L169.611927,109.64732 C171.948987,108.637867 173.024579,105.926632 172.014482,103.591522 C171.004385,101.256412 168.291421,100.180583 165.954821,101.190498 L131.029903,116.276064 L128.719133,113.966766 L146.383842,96.3128558 C148.184029,94.5138163 148.184029,91.5970031 146.383842,89.7979636 C144.583655,87.9989241 141.664981,87.9989241 139.864794,89.7979636 L122.200085,107.451413 L119.987096,105.239835 L135.082284,70.3371775 C136.092381,68.0020675 135.016789,65.2903715 132.679728,64.2813791 C130.343129,63.2710038 127.629703,64.3468322 126.620068,66.6824031 L112.975453,98.2317391 L110.267101,95.5251134 L125.61735,20.9417199 C127.008886,14.1811479 132.803338,9.36527166 139.708898,9.23067788 C163.162525,8.77204495 185.188179,17.6464769 201.766227,34.2134966 C218.343813,50.7800554 227.22206,72.8054984 226.764518,96.2298871 Z" id="Shape"></path>
                <path d="M158.681609,77.318391 C157.844557,76.4817891 156.688263,76 155.5,76 C154.31669,76 153.155443,76.4813388 152.318391,77.318391 C151.481339,78.1554433 151,79.3162397 151,80.5 C151,81.68331 151.481339,82.8445567 152.318391,83.681609 C153.155443,84.5186612 154.31624,85 155.5,85 C156.68331,85 157.844557,84.5186612 158.681609,83.681609 C159.518661,82.8445567 160,81.6837603 160,80.5 C160,79.3162397 159.518661,78.1554433 158.681609,77.318391 Z" id="Path"></path>
                <path d="M50.681609,184.318182 C49.8445567,183.481548 48.6837603,183 47.5,183 C46.31669,183 45.1554433,183.481098 44.318391,184.318182 C43.4813388,185.154365 43,186.314581 43,187.49775 C43,188.685419 43.4813388,189.841134 44.318391,190.682268 C45.1554433,191.518902 46.3162397,192 47.5,192 C48.68331,192 49.8445567,191.519352 50.681609,190.682268 C51.5186612,189.841134 52,188.685869 52,187.49775 C52,186.314581 51.5186612,185.153915 50.681609,184.318182 Z" id="Path"></path>
            </g>
        </g>
    </g>
</svg>