<?xml version="1.0" encoding="iso-8859-1"?>
<!-- Generator: Adobe Illustrator 16.0.0, SVG Export Plug-In . SVG Version: 6.00 Build 0)  -->
<!DOCTYPE svg PUBLIC "-//W3C//DTD SVG 1.1//EN" "http://www.w3.org/Graphics/SVG/1.1/DTD/svg11.dtd">
<svg version="1.1" id="Capa_1" xmlns="http://www.w3.org/2000/svg" xmlns:xlink="http://www.w3.org/1999/xlink" x="0px" y="0px"
	 width="430.909px" height="430.909px" viewBox="0 0 430.909 430.909" style="enable-background:new 0 0 430.909 430.909;"
	 xml:space="preserve">
<g>
	<polygon points="240.953,87.503 218.781,65.329 284.114,0 306.289,22.174 292.32,36.145 292.305,36.15 280.892,47.573 	"/>
	<polygon points="287.406,56.261 296.104,47.558 311.947,63.392 282.172,93.162 266.346,77.332 	"/>
	<g>
		<path d="M369.548,311.384c-13.217-13.216-30.797-20.498-49.495-20.498s-36.284,7.282-49.508,20.511
			c-5.985,5.983-10.824,13.044-14.368,20.98l-0.473,1.124c-0.225,0.52-0.444,1.029-0.634,1.559
			c-0.117,0.336-0.268,0.657-0.447,0.956c-9.79,25.764-3.591,54.878,15.917,74.394c13.224,13.219,30.808,20.5,49.507,20.5l0,0
			c18.704,0,36.284-7.281,49.501-20.51c13.224-13.219,20.51-30.803,20.51-49.503C390.058,342.193,382.771,324.612,369.548,311.384z
			 M360.472,352.835l-9.442,35.243c-0.499,1.854-1.948,3.309-3.8,3.802l-35.24,9.443c-0.457,0.121-0.925,0.184-1.392,0.184
			c-1.407,0-2.776-0.556-3.8-1.574l-25.79-25.797c-1.36-1.354-1.891-3.338-1.392-5.196l9.438-35.233
			c0.493-1.854,1.947-3.308,3.802-3.801l35.238-9.438c1.854-0.5,3.832,0.031,5.192,1.391l25.801,25.79
			C360.44,349.003,360.972,350.981,360.472,352.835z"/>
		<polygon points="298.634,339.49 290.802,368.729 312.21,390.138 341.449,382.3 349.286,353.054 327.88,331.658 		"/>
	</g>
	<path d="M263.904,301.253c-6.499,6.5-11.8,14.117-15.748,22.583l-39.111-39.118l34.775-34.876l37.969,37.968
		C275.201,291.447,269.205,295.952,263.904,301.253z"/>
	<path d="M72.43,183.367c-18.66,0-36.182-7.257-49.348-20.422c-18.005-18-24.667-44.003-17.994-68.132l33.795,33.796
		c1.074,1.079,2.585,1.646,4.084,1.57l39.177-2.093c2.74-0.144,4.935-2.338,5.079-5.079l2.086-39.176
		c0.082-1.523-0.491-3.011-1.569-4.087l-33.79-33.792c6.047-1.666,12.294-2.512,18.648-2.512c18.695,0,36.271,7.279,49.496,20.496
		c18.914,18.922,25.365,47.505,16.425,72.839c-0.128,0.365-0.283,0.713-0.44,1.067l-0.504,1.21
		c-3.59,9.182-8.806,17.229-15.494,23.901c-6.147,6.152-13.388,11.071-21.601,14.651c-0.409,0.184-0.824,0.339-1.236,0.496
		l-1.005,0.386C89.997,181.717,81.314,183.367,72.43,183.367L72.43,183.367z"/>
	<path d="M109.53,185.199c0.409-0.21,0.79-0.457,1.2-0.671c0.769-0.409,1.522-0.843,2.277-1.279
		c1.308-0.753,2.594-1.543,3.851-2.359c0.714-0.467,1.431-0.938,2.128-1.431c1.312-0.913,2.58-1.882,3.827-2.876
		c0.575-0.452,1.161-0.892,1.725-1.359c1.774-1.488,3.501-3.037,5.144-4.682c1.749-1.741,3.376-3.591,4.948-5.489
		c0.473-0.575,0.923-1.171,1.38-1.763c1.103-1.407,2.149-2.854,3.155-4.342c0.44-0.651,0.882-1.296,1.301-1.958
		c1.135-1.795,2.202-3.649,3.202-5.546c0.174-0.329,0.374-0.641,0.539-0.969c0.026-0.052,0.065-0.108,0.092-0.16l57.328,57.326
		l-20.26,20.263l-14.567,14.568L109.53,185.199z"/>
	<path d="M86.685,392.168c-0.176,0.136-0.344,0.299-0.542,0.541c-0.039,0.031-0.07,0.067-0.107,0.101l-1.851,1.847
		c-0.38,0.141-0.753,0.33-1.096,0.551c-7.392,4.872-17.856,3.838-24.169-2.478c-6.402-6.394-7.454-16.529-2.499-24.095
		c0.231-0.347,0.409-0.729,0.539-1.118l113.636-113.634h0.005l9.567-9.569l101.201-101.199l26.872,26.872L86.685,392.168z"/>
	<path d="M351.821,193.299l-77.292-77.292l28.268-28.268l20.552-20.546l0,0l13.969-13.969l42.615,42.744
		c0.467,0.414,46.698,41.929,48.378,96.891c0.829,27.144-9.328,53.212-30.226,77.644
		C396.152,254.854,386.768,228.245,351.821,193.299z"/>
</g>
<g>
</g>
<g>
</g>
<g>
</g>
<g>
</g>
<g>
</g>
<g>
</g>
<g>
</g>
<g>
</g>
<g>
</g>
<g>
</g>
<g>
</g>
<g>
</g>
<g>
</g>
<g>
</g>
<g>
</g>
</svg>
