<?xml version="1.0" encoding="iso-8859-1"?>
<!-- Generator: Adobe Illustrator 19.0.0, SVG Export Plug-In . SVG Version: 6.00 Build 0)  -->
<svg version="1.1" id="Capa_1" xmlns="http://www.w3.org/2000/svg" xmlns:xlink="http://www.w3.org/1999/xlink" x="0px" y="0px"
	 viewBox="0 0 478.77 478.77" style="enable-background:new 0 0 478.77 478.77;" xml:space="preserve">
<g>
	<g>
		<path d="M473.282,345.596l-85.333-85.333c-6.664-6.662-17.468-6.662-24.132,0l-56.201,56.166L162.771,170.783l56.32-56.32
			c6.663-6.665,6.663-17.468,0-24.132L133.758,4.997c-6.664-6.663-17.468-6.663-24.132,0L40.403,74.236
			c-53.216,53.351-53.216,139.707,0,193.058L211.07,438.849c53.359,53.229,139.733,53.229,193.092,0l69.12-69.12
			C479.944,363.064,479.944,352.261,473.282,345.596z M380.03,414.716c-40.018,39.9-104.775,39.9-144.794,0L64.569,243.179
			c-39.923-40.022-39.923-104.805,0-144.828l57.02-57.037l61.218,61.201l-56.201,56.201c-6.64,6.661-6.64,17.438,0,24.098
			l168.96,169.813c3.196,3.2,7.526,5.009,12.049,5.035c4.526-0.001,8.866-1.8,12.066-5l56.201-56.201l61.201,61.201L380.03,414.716z
			" fill="#DD9929"/>
	</g>
</g>
<g>
</g>
<g>
</g>
<g>
</g>
<g>
</g>
<g>
</g>
<g>
</g>
<g>
</g>
<g>
</g>
<g>
</g>
<g>
</g>
<g>
</g>
<g>
</g>
<g>
</g>
<g>
</g>
<g>
</g>
</svg>
