<?xml version="1.0" encoding="UTF-8"?>
<svg width="512px" height="512px" viewBox="0 0 512 512" version="1.1" xmlns="http://www.w3.org/2000/svg" xmlns:xlink="http://www.w3.org/1999/xlink">
    <!-- Generator: Sketch 62 (91390) - https://sketch.com -->
    <title>product_placeholder</title>
    <desc>Created with Sketch.</desc>
    <g id="Placeholders" stroke="none" stroke-width="1" fill="none" fill-rule="evenodd">
        <g id="product_placeholder">
            <rect id="Rectangle" fill="#FAFAFA" x="0" y="0" width="512" height="512"></rect>
            <g id="Group-2" transform="translate(125.000000, 162.000000)">
                <g id="Group-Copy" transform="translate(0.000000, 93.093782)" stroke="#2C2C2C" stroke-width="1.2">
                    <path d="M178.30578,20.9243697 C178.510814,20.3894379 178.615385,19.8483107 178.615385,19.3018801 C178.615385,8.64174607 138.816943,0 89.7230769,0 C40.629211,0 0.830769231,8.64174607 0.830769231,19.3018801 C0.830769231,19.4793677 0.841801802,19.6562957 0.863726159,19.8326337" id="Path" fill="#FBFBFB"></path>
                    <ellipse id="Oval-Copy" fill="#FBFBFB" cx="89.7230769" cy="19.2504202" rx="88.2923077" ry="18.6504202"></ellipse>
                    <path d="M0.830769231,63.610084 C0.830769231,74.2417975 40.629211,82.8605042 89.7230769,82.8605042 C138.816943,82.8605042 178.615385,74.2417975 178.615385,63.610084" id="Path"></path>
                    <line x1="0.415384615" y1="63.610084" x2="0.415384615" y2="19.2504202" id="Path"></line>
                    <line x1="179.030769" y1="19.2504202" x2="179.030769" y2="63.610084" id="Path-2"></line>
                </g>
                <g id="Group" transform="translate(168.901752, 93.482071) rotate(-315.000000) translate(-168.901752, -93.482071) translate(78.901752, 51.982071)" stroke="#2C2C2C" stroke-width="1.2">
                    <path d="M178.515428,20.8208955 C178.720703,20.288609 178.825397,19.7501577 178.825397,19.2064293 C178.825397,8.5990113 138.980161,0 89.8285714,0 C40.676982,0 0.831746032,8.5990113 0.831746032,19.2064293 C0.831746032,19.3830392 0.842791575,19.5590923 0.86474171,19.7345583" id="Path" fill="#FBFBFB"></path>
                    <ellipse id="Oval-Copy" fill="#FBFBFB" cx="89.8285714" cy="19.1552239" rx="88.3968254" ry="18.5552239"></ellipse>
                    <path d="M0.831746032,63.2955224 C0.831746032,73.8746604 40.676982,82.4507463 89.8285714,82.4507463 C138.980161,82.4507463 178.825397,73.8746604 178.825397,63.2955224" id="Path"></path>
                    <line x1="0.905984065" y1="63.7862756" x2="0.905984065" y2="19.6459771" id="Path"></line>
                    <line x1="178.751159" y1="19.6459771" x2="178.751159" y2="63.7862756" id="Path-2"></line>
                </g>
                <path d="M245,142.947065 L214.824543,173.093782 C196.322146,171.4645 169.161951,152.075132 133.343957,114.925678 C101.151067,80.996546 86.8911644,58.077942 90.5642484,46.1698666 L119.863234,17.0937821 C118.754116,30.4252906 135.174725,54.6370832 169.125062,89.7291599 C203.075399,124.821237 228.367045,142.560538 245,142.947065 Z" id="Path-3-Copy" fill="#FFFFFF"></path>
            </g>
        </g>
    </g>
</svg>